<?xml version="1.0" encoding="utf-8"?>
<!-- Generator: Adobe Illustrator 25.4.1, SVG Export Plug-In . SVG Version: 6.00 Build 0)  -->
<svg version="1.1"
	 id="svg323" xmlns:cc="http://creativecommons.org/ns#" xmlns:dc="http://purl.org/dc/elements/1.1/" xmlns:inkscape="http://www.inkscape.org/namespaces/inkscape" xmlns:rdf="http://www.w3.org/1999/02/22-rdf-syntax-ns#" xmlns:sodipodi="http://sodipodi.sourceforge.net/DTD/sodipodi-0.dtd" xmlns:svg="http://www.w3.org/2000/svg"
	 xmlns="http://www.w3.org/2000/svg" xmlns:xlink="http://www.w3.org/1999/xlink" x="0px" y="0px" viewBox="0 0 750 630.5"
	 style="enable-background:new 0 0 750 630.5;" xml:space="preserve">
<style type="text/css">
	.st0{fill:#343536;}
	.st1{fill:url(#path8_00000016755058726932392420000017074549917620878773_);}
	.st2{fill:none;}
	.st3{fill:#212323;}
	.st4{fill:#181919;}
	.st5{display:none;}
	.st6{display:inline;}
	.st7{fill:#141414;}
	.st8{fill:#FF0000;}
	.st9{display:inline;fill:none;}
	.st10{fill:#753DE2;}
	.st11{display:none;fill:#561BB2;}
	.st12{fill:#561BB2;}
	.st13{display:inline;fill:#242424;}
	.st14{display:inline;fill:#1C1C1C;}
	.st15{fill:#EBEBEB;}
	.st16{fill:#EDF4F4;}
	.st17{fill:#DBDBDB;}
	.st18{fill:#E3E3E3;}
	.st19{fill:#D6D6D6;}
	.st20{display:inline;fill:#0F0F0F;}
	.st21{fill:#E6E6E6;}
	.st22{fill:#E8E8E8;}
	.st23{fill:#F0F0F0;}
	.st24{fill:#E5E5E5;}
	.st25{fill:#DEDEDE;}
	.st26{fill:#DEDEDE;stroke:#6D6B6C;stroke-miterlimit:10;}
	.st27{fill:#6D6B6C;}
	.st28{display:inline;fill:#F5F5F5;stroke:#FFFFFF;stroke-miterlimit:10;}
	.st29{fill:#929493;}
	.st30{fill:#FCAD1F;}
	.st31{fill:#B77E2C;}
	.st32{fill:#64C4C6;stroke:#181919;stroke-width:2;stroke-miterlimit:10;}
	.st33{fill:#488D8F;}
	.st34{fill:#71D758;}
	.st35{fill:#1A1A1A;}
	.st36{fill:#FFFFFF;}
	.st37{clip-path:url(#SVGID_00000173858051600237161590000013005619928598701745_);}
	.st38{clip-path:url(#SVGID_00000077309915237237878100000007369210991667445122_);}
	.st39{clip-path:url(#SVGID_00000141442621443267185490000012337011031050797197_);}
	.st40{clip-path:url(#SVGID_00000141442621443267185490000012337011031050797197_);fill:#2A035E;}
	.st41{clip-path:url(#SVGID_00000141442621443267185490000012337011031050797197_);fill:#F6BC00;}
	.st42{clip-path:url(#SVGID_00000141442621443267185490000012337011031050797197_);fill:#5C3F9C;}
	.st43{opacity:0.5;clip-path:url(#SVGID_00000141442621443267185490000012337011031050797197_);}
	.st44{clip-path:url(#SVGID_00000027581407475180939330000007373436302951395985_);fill:#2A035E;}
	.st45{clip-path:url(#SVGID_00000172425180535503016430000010499452911486314634_);fill:#2A035E;}
	.st46{clip-path:url(#SVGID_00000046334819149593008650000002052791665011083943_);fill:#2A035E;}
	.st47{clip-path:url(#SVGID_00000173855559457326982650000010173252042961352856_);fill:#2A035E;}
	.st48{clip-path:url(#SVGID_00000009572270239023328240000016459882718610022040_);fill:#2A035E;}
	.st49{clip-path:url(#SVGID_00000141442621443267185490000012337011031050797197_);fill:#212327;}
	.st50{clip-path:url(#SVGID_00000141442621443267185490000012337011031050797197_);fill:#FCAD1F;}
	.st51{clip-path:url(#SVGID_00000083076872335877964590000015482402844170822286_);fill:#0A0700;}
	.st52{clip-path:url(#SVGID_00000173850916693528419330000003676572290785093019_);}
	.st53{clip-path:url(#SVGID_00000141442621443267185490000012337011031050797197_);fill:#D6D6D6;}
</style>
<sodipodi:namedview  bordercolor="#666666" borderopacity="1" gridtolerance="10" guidetolerance="10" id="namedview325" inkscape:current-layer="svg323" inkscape:cx="159.73686" inkscape:cy="276.75148" inkscape:pageopacity="0" inkscape:pageshadow="2" inkscape:window-height="1387" inkscape:window-maximized="1" inkscape:window-width="2560" inkscape:window-x="-8" inkscape:window-y="-8" inkscape:zoom="2" objecttolerance="10" pagecolor="#ffffff" showgrid="false">
	</sodipodi:namedview>
<g id="g10" transform="translate(4.4468082e-5,1.7089844e-5)">
	<path id="path4" inkscape:connector-curvature="0" class="st0" d="M106.2,192.6c0.5-0.3,0.9-0.5,1.2-0.6
		C107,192.2,106.6,192.4,106.2,192.6z"/>
	<path id="path6" inkscape:connector-curvature="0" class="st0" d="M642.6,192c0.2,0.2,0.8,0.4,1.5,0.8
		C643.6,192.5,643.1,192.2,642.6,192z"/>
	<path id="path8" inkscape:connector-curvature="0" class="st0" d="M664.4,214c-3.3-8.3-8.4-13.5-12.9-16.8c-3-2.2-5.7-3.6-7.4-4.4
		c-0.8-0.4-1.3-0.6-1.5-0.8c-33.6-18-97.5-38.2-117.5-34.3c-26,5-65.5,79.7-89,79.7c-15.1,0-60.5,0-60.5,0s-45.4,0-60.5,0
		c-23.4,0-63-74.7-89-79.7c-19.6-3.8-85.6,16.5-118.7,34.3c-0.2,0.2-0.6,0.4-1.2,0.6c-1.8,0.8-5.1,2.4-8.7,5.3
		c-4.2,3.3-8.8,8.4-11.9,16.1C22.9,370-1.7,469.1,0.1,529.1C3,623.5,76.7,630.5,76.7,630.5c37-8.6,111.6-129.1,168.5-129.1
		c31.2,0,129.8,0,129.8,0s98.6,0,129.8,0c57,0,131.5,120.5,168.5,129.1c0,0,73.7-6.9,76.6-101.3C751.8,469.1,727.1,370,664.4,214
		L664.4,214z"/>
</g>
<linearGradient id="path8_00000155133325118817303030000013550891332945009280_" gradientUnits="userSpaceOnUse" x1="33.5543" y1="611.7828" x2="698.8677" y2="242.9935">
	<stop  offset="0.1023" style="stop-color:#FCAD1F"/>
	<stop  offset="0.1837" style="stop-color:#DF9549"/>
	<stop  offset="0.3209" style="stop-color:#B26F8A"/>
	<stop  offset="0.4365" style="stop-color:#9154BA"/>
	<stop  offset="0.5246" style="stop-color:#7D43D7"/>
	<stop  offset="0.5748" style="stop-color:#753DE2"/>
</linearGradient>
<path id="path8_00000025410207017791530650000008654802679449204652_" inkscape:connector-curvature="0" style="fill:url(#path8_00000155133325118817303030000013550891332945009280_);" d="
	M664.3,213.8c-3.3-8.3-8.4-13.5-12.9-16.8c-3-2.2-5.7-3.6-7.4-4.4c-0.8-0.4-1.3-0.6-1.5-0.8c-33.6-18-97.5-38.2-117.5-34.3
	c-26,5-65.5,79.7-89,79.7c-15.1,0-60.5,0-60.5,0s-45.4,0-60.5,0c-23.4,0-63-74.7-89-79.7c-19.6-3.8-85.6,16.5-118.7,34.3
	c-0.2,0.2-0.6,0.4-1.2,0.6c-1.8,0.8-5.1,2.4-8.7,5.3c-4.2,3.3-8.8,8.4-11.9,16.1C22.8,369.8-1.8,469,0,529
	c2.9,94.4,76.6,101.3,76.6,101.3c37-8.6,111.6-129.1,168.5-129.1c31.2,0,129.8,0,129.8,0s98.6,0,129.8,0
	c57,0,131.5,120.5,168.5,129.1c0,0,73.7-6.9,76.6-101.3C751.7,469,727,369.8,664.3,213.8L664.3,213.8z"/>
<line id="line12" class="st2" x1="107.5" y1="192" x2="107.5" y2="193.5"/>
<line id="line14" class="st2" x1="642.5" y1="191.5" x2="642.5" y2="192.4"/>
<g id="Dpad">
	<g id="g22">
		<path id="path16" inkscape:connector-curvature="0" class="st3" d="M277.7,462.1c-33.4,0-60.6-27.2-60.6-60.6
			c0-33.4,27.2-60.6,60.6-60.6c33.4,0,60.6,27.2,60.6,60.6C338.3,434.9,311.1,462.1,277.7,462.1z"/>
		<g id="g20">
			<path id="path18" inkscape:connector-curvature="0" class="st4" d="M277.7,341.9c32.9,0,59.6,26.7,59.6,59.6
				c0,32.9-26.7,59.6-59.6,59.6c-32.9,0-59.6-26.7-59.6-59.6C218,368.6,244.8,341.9,277.7,341.9 M277.7,339.9
				c-34,0-61.6,27.6-61.6,61.6c0,34,27.6,61.6,61.6,61.6c34,0,61.6-27.6,61.6-61.6C339.3,367.4,311.7,339.9,277.7,339.9z"/>
		</g>
	</g>
	<g id="g32" class="st5">
		<g id="g26" class="st6">
			<path id="path24" inkscape:connector-curvature="0" class="st7" d="M291.2,353.5L291.2,353.5c0-5-27.1-5-27.1,0c0,23.8,0,96,0,96
				l0,0l0,0c0,5,27.1,5,27.1,0C291.2,425.6,291.2,353.5,291.2,353.5L291.2,353.5z"/>
		</g>
		<g id="g30" class="st6">
			<path id="path28" inkscape:connector-curvature="0" class="st7" d="M229.7,387.9L229.7,387.9c-5,0-5,27.1,0,27.1
				c23.9,0,96,0,96,0l0,0l0,0c5,0,5-27.1,0-27.1C301.8,387.9,229.7,387.9,229.7,387.9L229.7,387.9z"/>
		</g>
	</g>
	<g id="g62" class="st5">
		<g id="g36" class="st6">
			<path id="path34" inkscape:connector-curvature="0" class="st8" d="M277.7,349.8c6.8,0,13.6,1.2,13.6,3.7v0h0c0,0,0,15.4,0,34.4
				c13.8,0,26.7,0,34.4,0c5,0,5,27.1,0,27.1l0,0l0,0c0,0-15.5,0-34.4,0c0,13.8,0,26.7,0,34.4c0,2.5-6.8,3.7-13.6,3.7
				c-6.8,0-13.6-1.2-13.6-3.7l0,0l0,0c0,0,0-15.4,0-34.4c-13.8,0-26.7,0-34.4,0c-5,0-5-27.1,0-27.1h0c0,0,15.5,0,34.4,0
				c0-13.8,0-26.7,0-34.4C264.1,351,270.9,349.8,277.7,349.8 M277.7,346.2c-3.8,0-7.5,0.4-10.2,1c-5.8,1.4-7,4.2-7,6.3v30.8h-30.8
				c-2.1,0-4.9,1.2-6.3,7c-0.7,2.7-1,6.4-1,10.2c0,3.8,0.4,7.4,1,10.2c1.4,5.8,4.2,7,6.3,7h30.8v30.8v0.8l0.1,0.2
				c0.4,1.9,2.1,4,6.9,5.2c2.7,0.7,6.3,1,10.2,1c3.8,0,7.4-0.4,10.2-1c5.8-1.4,7-4.2,7-6.3v-30.8h30.8h1.5l0.3-0.3
				c1.7-0.7,3.4-2.5,4.5-6.6c0.7-2.7,1-6.4,1-10.2c0-3.8-0.4-7.4-1-10.2c-1.4-5.8-4.2-7-6.3-7h-30.8v-30.8c0-2.1-1.2-4.9-7-6.3
				C285.1,346.5,281.5,346.2,277.7,346.2z"/>
		</g>
		<line id="line38" class="st9" x1="287.6" y1="357.1" x2="294.8" y2="349.9"/>
		<line id="line40" class="st9" x1="267.8" y1="356.2" x2="260.9" y2="349.3"/>
		<line id="line42" class="st9" x1="322.3" y1="391.3" x2="329" y2="384.6"/>
		<line id="line44" class="st9" x1="322.8" y1="412.2" x2="328.5" y2="417.9"/>
		<line id="line46" class="st9" x1="286.7" y1="392.5" x2="295.8" y2="383.4"/>
		<line id="line48" class="st9" x1="286.1" y1="409.9" x2="296.3" y2="420.2"/>
		<line id="line50" class="st9" x1="287.5" y1="445.8" x2="294.9" y2="453.2"/>
		<line id="line52" class="st9" x1="268.5" y1="445.1" x2="259.7" y2="453.9"/>
		<line id="line54" class="st9" x1="269.6" y1="409.6" x2="258.6" y2="420.5"/>
		<line id="line56" class="st9" x1="270.3" y1="394.2" x2="257.9" y2="381.7"/>
		<line id="line58" class="st9" x1="233.8" y1="411" x2="225.6" y2="419.1"/>
		<line id="line60" class="st9" x1="233.4" y1="391.6" x2="226" y2="384.2"/>
	</g>
	<g id="g94">
		<g id="g68">
			<path id="path64" inkscape:connector-curvature="0" class="st10" d="M277.7,452.7c-7.1,0-12.7-1.3-13-3.1c0,0,0-0.1,0-0.1
				c0-0.1,0-15.5,0-34.4c0-0.3-0.2-0.5-0.5-0.5h-34.4c-1.8,0-3.2-5.7-3.2-13.1c0-7.3,1.4-13.1,3.2-13.1h34.4c0.3,0,0.5-0.2,0.5-0.5
				v-34.4c0,0,0-0.1,0-0.1l0.1-0.2c0,0,0.1-0.1,0.1-0.1c0.5-0.8,2.1-1.5,4.5-2c0.3-0.1,0.6-0.1,0.9-0.2c0.4-0.1,0.7-0.1,1-0.1
				c0,0,0.1,0,0.2,0c0.3,0,0.6-0.1,0.9-0.1c0.3,0,0.7-0.1,1-0.1c0.4,0,0.7-0.1,1-0.1l2.4-0.1c0.4,0,0.7,0,1,0
				c7.3,0,13.1,1.4,13.1,3.2c0,0.2,0,16,0,34.4c0,0.3,0.2,0.5,0.5,0.5h34.4c1.8,0,3.2,5.7,3.2,13.1c0,7.3-1.4,13.1-3.2,13.1h-34.4
				c-0.3,0-0.5,0.2-0.5,0.5v34.4c0,0,0,0.1,0,0.2C290.4,451.4,284.8,452.7,277.7,452.7z"/>
			<path id="path66" inkscape:connector-curvature="0" class="st11" d="M277.7,350.8c8.1,0,12.6,1.6,12.6,2.7c0,0,0,0,0,0v34.4
				c0,0.6,0.4,1,1,1h34.4c1.1,0,2.7,4.8,2.7,12.6c0,7.8-1.6,12.6-2.7,12.6h-34.4c-0.6,0-1,0.4-1,1v34.4c0,0,0,0,0,0.1
				c-0.2,1.1-4.7,2.7-12.6,2.7c-7.9,0-12.4-1.5-12.6-2.7c0,0,0-0.1,0-0.1V415c0-0.6-0.4-1-1-1h-34.4c-1.1,0-2.7-4.8-2.7-12.6
				s1.6-12.6,2.7-12.6h34.4c0.6,0,1-0.4,1-1v-34.4c0,0,0,0,0,0l0,0c0,0,0,0,0,0l0,0c0,0,0-0.1,0-0.1c0,0,0,0,0-0.1
				c0.2-0.2,0.9-1.1,4.2-1.8c0,0,0,0,0.1,0c0.3-0.1,0.6-0.1,0.8-0.2l0.1,0c0.3-0.1,0.6-0.1,0.8-0.1c0,0,0.1,0,0.2,0
				c0.3,0,0.6-0.1,0.9-0.1c0,0,0,0,0,0c0.3,0,0.7-0.1,1-0.1l0,0c0,0,0,0,0,0c0.3,0,0.6-0.1,1-0.1l0.1,0c0.2,0,0.4,0,0.6,0l0.4,0
				c0.1,0,0.1,0,0.2,0c0.3,0,0.7,0,1,0l0.1,0C277,350.8,277.3,350.8,277.7,350.8 M277.7,349.8c-0.4,0-0.7,0-1.1,0c0,0-0.1,0-0.1,0
				c-0.3,0-0.7,0-1,0c-0.1,0-0.1,0-0.2,0c-0.3,0-0.7,0-1,0c0,0-0.1,0-0.1,0c-0.3,0-0.7,0-1,0.1c0,0,0,0,0,0c-0.3,0-0.7,0.1-1,0.1h0
				c-0.3,0-0.7,0.1-1,0.1c0,0,0,0-0.1,0c-0.3,0-0.6,0.1-0.9,0.1c0,0,0,0-0.1,0c-0.3,0.1-0.6,0.1-0.9,0.2c0,0,0,0,0,0
				c-2.4,0.5-4.2,1.2-4.9,2.2c0,0-0.1,0.1-0.1,0.2c0,0,0,0,0,0c0,0.1,0,0.1,0,0.2c0,0,0,0,0,0c0,0,0,0.1,0,0.1c0,0.1,0,0.1,0,0.2
				c0,7.7,0,20.6,0,34.4c-19,0-34.4,0-34.4,0h0c-5,0-5,27.1,0,27.1c7.8,0,20.6,0,34.4,0c0,19,0,34.4,0,34.4l0,0c0,0.1,0,0.2,0,0.2
				c0.4,2.3,7,3.5,13.5,3.5c6.6,0,13.1-1.2,13.5-3.5c0-0.1,0-0.2,0-0.2c0-7.7,0-20.6,0-34.4c19,0,34.4,0,34.4,0l0,0
				c5,0,5-27.1,0-27.1c-7.8,0-20.6,0-34.4,0c0-19,0-34.4,0-34.4h0v0C291.2,351,284.4,349.8,277.7,349.8L277.7,349.8z"/>
		</g>
		<path id="path70" inkscape:connector-curvature="0" class="st12" d="M264.1,387.9l-3.6-3.6h-30.8c-0.9,0-1.8,0.2-2.8,0.8l2.8,2.8
			C229.7,387.9,245.1,387.9,264.1,387.9L264.1,387.9z"/>
		<path id="path72" inkscape:connector-curvature="0" class="st12" d="M229.7,387.9L229.7,387.9l-2.8-2.8c-1.4,0.9-2.7,2.7-3.5,6.1
			c-0.7,2.7-1,6.4-1,10.2c0,3.8,0.4,7.4,1,10.2c0.8,3.4,2.2,5.2,3.5,6.1l2.8-2.8C224.7,415,224.7,387.9,229.7,387.9z"/>
		<path id="path74" inkscape:connector-curvature="0" class="st12" d="M269.2,350.5C269.2,350.5,269.2,350.5,269.2,350.5
			c0.3-0.1,0.6-0.1,0.9-0.2c0,0,0,0,0.1,0c0.3-0.1,0.6-0.1,0.9-0.1c0,0,0,0,0.1,0c0.3,0,0.7-0.1,1-0.1h0c0.3,0,0.7-0.1,1-0.1
			c0,0,0,0,0,0c0.3,0,0.7-0.1,1-0.1c0,0,0.1,0,0.1,0c0.3,0,0.6,0,1,0c0.1,0,0.1,0,0.2,0c0.3,0,0.7,0,1,0c0,0,0.1,0,0.1,0
			c0.4,0,0.7,0,1.1,0c6.8,0,13.6,1.2,13.6,3.7l2.8-2.8c-0.9-1.4-2.7-2.7-6.1-3.5c-2.7-0.7-6.4-1-10.2-1c-3.8,0-7.5,0.4-10.2,1
			c-2.9,0.7-4.7,1.8-5.7,3l2.6,2.6C265,351.7,266.8,351,269.2,350.5L269.2,350.5z"/>
		<path id="path76" inkscape:connector-curvature="0" class="st12" d="M325.7,387.9l2.8-2.8c-0.9-0.6-1.9-0.8-2.8-0.8h-30.8
			l-3.6,3.6C305,387.9,317.9,387.9,325.7,387.9L325.7,387.9z"/>
		<path id="path78" inkscape:connector-curvature="0" class="st12" d="M291.2,353.5L291.2,353.5c0,0,0,15.4,0,34.4l3.6-3.6l0,0
			v-30.8c0-0.9-0.2-1.8-0.8-2.8L291.2,353.5z"/>
		<path id="path80" inkscape:connector-curvature="0" class="st12" d="M264.1,353.5c0-0.1,0-0.1,0-0.2c0,0,0-0.1,0-0.1c0,0,0,0,0,0
			c0-0.1,0-0.1,0-0.2c0,0,0,0,0,0c0-0.1,0.1-0.1,0.1-0.2l-2.6-2.6c-1,1.1-1.3,2.3-1.3,3.3v30.8l3.6,3.6
			C264.1,374.1,264.1,361.3,264.1,353.5L264.1,353.5z"/>
		<path id="path82" inkscape:connector-curvature="0" class="st12" d="M325.7,415L325.7,415c0,0-15.5,0-34.4,0l3.6,3.6h30.8h1.5
			l0.3-0.3c0.3-0.1,0.6-0.3,0.9-0.5L325.7,415z"/>
		<path id="path84" inkscape:connector-curvature="0" class="st12" d="M291.2,449.5l2.8,2.8c0.6-0.9,0.8-1.9,0.8-2.8v-30.8l-3.6-3.6
			C291.2,428.9,291.2,441.7,291.2,449.5L291.2,449.5z"/>
		<path id="path86" inkscape:connector-curvature="0" class="st12" d="M332,391.3c-0.8-3.4-2.2-5.2-3.6-6.1l-2.8,2.8
			c5,0,5,27.1,0,27.1l2.8,2.8c1.4-0.9,2.7-2.7,3.5-6.1c0.7-2.7,1-6.4,1-10.2C333,397.7,332.6,394,332,391.3L332,391.3z"/>
		<path id="path88" inkscape:connector-curvature="0" class="st12" d="M291.2,449.7c-0.4,2.3-7,3.5-13.5,3.5s-13.1-1.2-13.5-3.5
			c0-0.1,0-0.2,0-0.2l-2.8,2.8c0.9,1.4,2.7,2.7,6.2,3.5c2.7,0.7,6.3,1,10.2,1c3.8,0,7.4-0.4,10.2-1c3.4-0.8,5.2-2.2,6.1-3.5
			l-2.8-2.8C291.2,449.5,291.2,449.6,291.2,449.7z"/>
		<path id="path90" inkscape:connector-curvature="0" class="st12" d="M264.1,449.5L264.1,449.5c0,0,0-15.4,0-34.4l-3.6,3.6v30.8
			v0.8l0.1,0.2c0.1,0.5,0.3,1.1,0.7,1.7L264.1,449.5z"/>
		<path id="path92" inkscape:connector-curvature="0" class="st12" d="M229.7,415l-2.8,2.8c1,0.6,1.9,0.8,2.8,0.8h30.8l3.6-3.6
			C250.3,415,237.4,415,229.7,415z"/>
	</g>
	<g id="g154" class="st5">
		<path id="polygon96" class="st13" d="M264.1,387.9l-3.6-3.6L264.1,387.9z"/>
		<polygon id="polygon98" class="st14" points="294.8,384.3 294.8,384.3 291.2,387.9 294.8,384.3 		"/>
		<g id="Up" class="st6">
			<g id="g104">
				<path id="path100" inkscape:connector-curvature="0" class="st15" d="M264.6,387.7v-34.2c0,0,0-0.1,0-0.1l0.1-0.2
					c0,0,0.1-0.1,0.1-0.1c0.5-0.8,2.1-1.5,4.5-2c0.3-0.1,0.6-0.1,0.9-0.2c0.4-0.1,0.7-0.1,1-0.1c0,0,0.1,0,0.2,0
					c0.3,0,0.6-0.1,0.9-0.1c0.3,0,0.7-0.1,1-0.1c0.4,0,0.7-0.1,1-0.1l2.4-0.1c0.4,0,0.7,0,1,0c7.3,0,13.1,1.4,13.1,3.2
					c0,0.2,0,15.9,0,34.2l-13.1,13.1L264.6,387.7z"/>
				<path id="path102" inkscape:connector-curvature="0" class="st16" d="M277.7,350.8c8.1,0,12.6,1.6,12.6,2.7c0,0,0,0,0,0v34
					l-12.6,12.6l-12.6-12.6v-34c0,0,0,0,0,0l0,0c0,0,0,0,0,0l0,0c0,0,0-0.1,0-0.1c0,0,0,0,0-0.1c0.2-0.2,0.9-1.1,4.2-1.8
					c0,0,0,0,0.1,0c0.3-0.1,0.6-0.1,0.8-0.2l0.1,0c0.3-0.1,0.6-0.1,0.8-0.1c0,0,0.1,0,0.2,0c0.3,0,0.6-0.1,0.9-0.1c0,0,0,0,0,0
					c0.3,0,0.7-0.1,1-0.1l0,0c0,0,0,0,0,0c0.3,0,0.6-0.1,1-0.1l0.1,0c0.2,0,0.4,0,0.6,0l0.4,0c0.1,0,0.1,0,0.2,0c0.3,0,0.7,0,1,0
					l0.1,0C277,350.8,277.3,350.8,277.7,350.8 M277.7,349.8c-0.4,0-0.7,0-1.1,0c0,0-0.1,0-0.1,0c-0.3,0-0.7,0-1,0
					c-0.1,0-0.1,0-0.2,0c-0.3,0-0.7,0-1,0c0,0-0.1,0-0.1,0c-0.3,0-0.7,0-1,0.1c0,0,0,0,0,0c-0.3,0-0.7,0.1-1,0.1h0
					c-0.3,0-0.7,0.1-1,0.1c0,0,0,0-0.1,0c-0.3,0-0.6,0.1-0.9,0.1c0,0,0,0-0.1,0c-0.3,0.1-0.6,0.1-0.9,0.2c0,0,0,0,0,0
					c-2.4,0.5-4.2,1.2-4.9,2.2c0,0-0.1,0.1-0.1,0.2c0,0,0,0,0,0c0,0.1,0,0.1,0,0.2c0,0,0,0,0,0c0,0,0,0.1,0,0.1c0,0.1,0,0.1,0,0.2
					c0,7.7,0,20.6,0,34.4l13.6,13.6l13.6-13.6c0-19,0-34.4,0-34.4h0v0C291.2,351,284.4,349.8,277.7,349.8L277.7,349.8z"/>
			</g>
			<path id="path106" inkscape:connector-curvature="0" class="st17" d="M269.2,350.5C269.2,350.5,269.2,350.5,269.2,350.5
				c0.3-0.1,0.6-0.1,0.9-0.2c0,0,0,0,0.1,0c0.3-0.1,0.6-0.1,0.9-0.1c0,0,0,0,0.1,0c0.3,0,0.7-0.1,1-0.1h0c0.3,0,0.7-0.1,1-0.1
				c0,0,0,0,0,0c0.3,0,0.7-0.1,1-0.1c0,0,0.1,0,0.1,0c0.3,0,0.6,0,1,0c0.1,0,0.1,0,0.2,0c0.3,0,0.7,0,1,0c0,0,0.1,0,0.1,0
				c0.4,0,0.7,0,1.1,0c6.8,0,13.6,1.2,13.6,3.7l2.8-2.8c-0.9-1.4-2.7-2.7-6.1-3.5c-2.7-0.7-6.4-1-10.2-1c-3.8,0-7.5,0.4-10.2,1
				c-2.9,0.7-4.7,1.8-5.7,3l2.6,2.6C265,351.7,266.8,351,269.2,350.5L269.2,350.5z"/>
			<path id="path108" inkscape:connector-curvature="0" class="st18" d="M291.2,353.5L291.2,353.5c0,0,0,15.4,0,34.4l3.6-3.6v-30.8
				c0-0.9-0.2-1.8-0.8-2.8L291.2,353.5z"/>
			<path id="path110" inkscape:connector-curvature="0" class="st19" d="M264.1,353.5c0-0.1,0-0.1,0-0.2c0,0,0-0.1,0-0.1
				c0,0,0,0,0,0c0-0.1,0-0.1,0-0.2c0,0,0,0,0,0c0-0.1,0.1-0.1,0.1-0.2l-2.6-2.6c-1,1.1-1.3,2.3-1.3,3.3v30.8l3.6,3.6
				C264.1,374.1,264.1,361.3,264.1,353.5L264.1,353.5z"/>
		</g>
		<polygon id="rect113" class="st20" points="294.9,418.7 291.3,415.1 291.3,415.1 		"/>
		<g id="Right" class="st6">
			<g id="g119">
				<path id="path115" inkscape:connector-curvature="0" class="st15" d="M291.4,414.5l-13.1-13.1l13.1-13.1h34.2
					c1.8,0,3.2,5.7,3.2,13.1c0,7.3-1.4,13.1-3.2,13.1H291.4z"/>
				<path id="path117" inkscape:connector-curvature="0" class="st16" d="M325.7,388.9c1.1,0,2.7,4.8,2.7,12.6
					c0,7.8-1.6,12.6-2.7,12.6h-34l-12.6-12.6l12.6-12.6H325.7 M325.7,387.9c-7.8,0-20.6,0-34.4,0l-13.6,13.6l13.6,13.6
					c19,0,34.4,0,34.4,0l0,0C330.6,415,330.6,387.9,325.7,387.9z"/>
			</g>
			<path id="path121" inkscape:connector-curvature="0" class="st21" d="M325.7,387.9l2.8-2.8c-0.9-0.6-1.9-0.8-2.8-0.8h-30.8
				l-3.6,3.6C305,387.9,317.9,387.9,325.7,387.9L325.7,387.9z"/>
			<path id="path123" inkscape:connector-curvature="0" class="st22" d="M325.7,415L325.7,415c0,0-15.5,0-34.4,0l3.6,3.6h30.8h1.5
				l0.3-0.3c0.3-0.1,0.6-0.3,0.9-0.5L325.7,415z"/>
			<path id="path125" inkscape:connector-curvature="0" class="st23" d="M328.4,385.2l-2.8,2.8c5,0,5,27.1,0,27.1l2.8,2.8
				c1.4-0.9,2.7-2.7,3.5-6.1c0.7-2.7,1-6.4,1-10.2c0-3.8-0.4-7.4-1-10.2C331.1,387.9,329.8,386.1,328.4,385.2L328.4,385.2z"/>
		</g>
		<g id="Down" class="st6">
			<g id="g132">
				<path id="path128" inkscape:connector-curvature="0" class="st15" d="M277.7,452.7c-7.1,0-12.7-1.3-13-3.1c0,0,0-0.1,0-0.1
					c0-0.1,0-15.4,0-34.2l13.1-13.1l13.1,13.1v34.2c0,0,0,0.1,0,0.2C290.4,451.4,284.8,452.7,277.7,452.7L277.7,452.7z"/>
				<path id="path130" inkscape:connector-curvature="0" class="st16" d="M277.7,402.9l12.6,12.6v34c0,0,0,0,0,0.1
					c-0.2,1.1-4.7,2.7-12.6,2.7c-7.9,0-12.4-1.5-12.6-2.7c0,0,0-0.1,0-0.1v-34L277.7,402.9 M277.7,401.5L264.1,415
					c0,19,0,34.4,0,34.4l0,0c0,0.1,0,0.2,0,0.2c0.4,2.3,7,3.5,13.5,3.5c6.6,0,13.1-1.2,13.5-3.5c0-0.1,0-0.2,0-0.2
					c0-7.7,0-20.6,0-34.4L277.7,401.5z"/>
			</g>
			<path id="path134" inkscape:connector-curvature="0" class="st23" d="M291.2,449.5l2.8,2.8c0.6-0.9,0.8-1.9,0.8-2.8v-30.8
				l-3.6-3.6C291.2,428.9,291.2,441.7,291.2,449.5L291.2,449.5z"/>
			<path id="path136" inkscape:connector-curvature="0" class="st22" d="M291.2,449.7c-0.4,2.3-7,3.5-13.5,3.5s-13.1-1.2-13.5-3.5
				c0-0.1,0-0.2,0-0.2l-2.8,2.8c0.9,1.4,2.7,2.7,6.2,3.5c2.7,0.7,6.3,1,10.2,1c3.8,0,7.4-0.4,10.2-1c3.4-0.8,5.2-2.2,6.1-3.5
				l-2.8-2.8C291.2,449.5,291.2,449.6,291.2,449.7z"/>
			<path id="path138" inkscape:connector-curvature="0" class="st18" d="M264.1,449.5L264.1,449.5c0,0,0-15.4,0-34.4l-3.6,3.6v30.8
				v0.8l0.1,0.2c0.1,0.5,0.3,1.1,0.7,1.7L264.1,449.5z"/>
		</g>
		<g id="left" class="st6">
			<g id="g145">
				<path id="path141" inkscape:connector-curvature="0" class="st15" d="M229.7,414.5c-1.8,0-3.2-5.7-3.2-13.1
					c0-7.3,1.4-13.1,3.2-13.1h34.2l13.1,13.1l-13.1,13.1H229.7z"/>
				<path id="path143" inkscape:connector-curvature="0" class="st16" d="M263.7,388.9l12.6,12.6L263.7,414h-34
					c-1.1,0-2.7-4.8-2.7-12.6s1.6-12.6,2.7-12.6L263.7,388.9 M264.1,387.9c-19,0-34.4,0-34.4,0h0c-5,0-5,27.1,0,27.1
					c7.8,0,20.6,0,34.4,0l13.6-13.6L264.1,387.9z"/>
			</g>
			<path id="path147" inkscape:connector-curvature="0" class="st17" d="M264.1,387.9l-3.6-3.6h-30.8c-0.9,0-1.8,0.2-2.8,0.8
				l2.8,2.8C229.7,387.9,245.1,387.9,264.1,387.9L264.1,387.9z"/>
			<path id="path149" inkscape:connector-curvature="0" class="st19" d="M229.7,387.9L229.7,387.9l-2.8-2.8
				c-1.4,0.9-2.7,2.7-3.5,6.1c-0.7,2.7-1,6.4-1,10.2c0,3.8,0.4,7.4,1,10.2c0.8,3.4,2.2,5.2,3.5,6.1l2.8-2.8
				C224.7,415,224.7,387.9,229.7,387.9z"/>
			<path id="path151" inkscape:connector-curvature="0" class="st24" d="M229.7,415l-2.8,2.8c1,0.6,1.9,0.8,2.8,0.8h30.8l3.6-3.6
				C250.3,415,237.4,415,229.7,415z"/>
		</g>
	</g>
</g>
<g id="Menu_Key">
	<g id="g159">
		<path id="path157" inkscape:connector-curvature="0" class="st25" d="M448.9,280.4c0,10.4-8.4,18.8-18.8,18.8
			c-10.4,0-18.8-8.4-18.8-18.8c0-10.4,8.4-18.8,18.8-18.8C440.5,261.6,448.9,270,448.9,280.4z"/>
	</g>
	<g id="g171">
		<path id="path161" inkscape:connector-curvature="0" class="st26" d="M446.2,280.4c0,8.9-7.2,16.1-16.1,16.1
			c-8.9,0-16.1-7.2-16.1-16.1c0-8.9,7.2-16.1,16.1-16.1C439,264.3,446.2,271.5,446.2,280.4z"/>
		<g id="g169">
			<rect id="rect163" x="422.9" y="275.7" class="st27" width="14.4" height="1.6"/>
			<rect id="rect165" x="422.9" y="279.7" class="st27" width="14.4" height="1.6"/>
			<rect id="rect167" x="422.9" y="283.5" class="st27" width="14.4" height="1.5"/>
		</g>
	</g>
	<g id="Menu_Pressed" class="st5">
		<path id="path173" inkscape:connector-curvature="0" class="st28" d="M446.2,280.4c0,8.9-7.2,16.1-16.1,16.1
			c-8.9,0-16.1-7.2-16.1-16.1c0-8.9,7.2-16.1,16.1-16.1C439,264.3,446.2,271.5,446.2,280.4z"/>
		<g id="g181" class="st6">
			<rect id="rect175" x="422.9" y="275.7" class="st29" width="14.4" height="1.6"/>
			<rect id="rect177" x="422.9" y="279.7" class="st29" width="14.4" height="1.6"/>
			<rect id="rect179" x="422.9" y="283.5" class="st29" width="14.4" height="1.5"/>
		</g>
	</g>
</g>
<g id="Switcher_Key">
	<g id="g187">
		<path id="path185" inkscape:connector-curvature="0" class="st25" d="M340.9,280.4c0,10.4-8.4,18.8-18.8,18.8
			c-10.4,0-18.8-8.4-18.8-18.8c0-10.4,8.4-18.8,18.8-18.8C332.5,261.6,340.9,270,340.9,280.4z"/>
	</g>
	<g id="g197">
		<path id="path189" inkscape:connector-curvature="0" class="st26" d="M338.2,280.4c0,8.9-7.2,16.1-16.1,16.1
			c-8.9,0-16.1-7.2-16.1-16.1c0-8.9,7.2-16.1,16.1-16.1C331,264.3,338.2,271.5,338.2,280.4z"/>
		<g id="g195">
			<polygon id="polygon191" class="st27" points="316.6,276.5 322,276.5 322,277.8 323.8,277.8 323.8,274.7 315,274.7 315,282.1 
				319.6,282.1 319.6,280.3 316.6,280.3 			"/>
			<path id="path193" inkscape:connector-curvature="0" class="st27" d="M320.4,278.4v7.6h9v-7.6H320.4z M327.5,284.2H322v-3.9h5.5
				V284.2z"/>
		</g>
	</g>
</g>
<g id="Left_Stick">
	<g id="g202">
		<path id="path200" inkscape:connector-curvature="0" class="st30" d="M185.5,351.5c-37.3,0-67.7-30.4-67.7-67.7
			s30.4-67.7,67.7-67.7c37.3,0,67.7,30.4,67.7,67.7S222.8,351.5,185.5,351.5z"/>
	</g>
	<path id="path204" inkscape:connector-curvature="0" class="st31" d="M241.6,279.9c0,31-25.1,56.1-56.1,56.1
		c-31,0-56.1-25.1-56.1-56.1c0-31,25.1-56.1,56.1-56.1C216.5,223.8,241.6,248.9,241.6,279.9z"/>
</g>
<g id="Right_Stick">
	<g id="g209">
		<path id="path207" inkscape:connector-curvature="0" class="st32" d="M473,465.5c-37.3,0-67.7-30.4-67.7-67.7
			c0-37.3,30.4-67.7,67.7-67.7c37.3,0,67.7,30.4,67.7,67.7C540.7,435.1,510.4,465.5,473,465.5L473,465.5z"/>
	</g>
	<path id="path211" inkscape:connector-curvature="0" class="st33" d="M529.2,393.8c0,31-25.1,56.1-56.1,56.1
		c-31,0-56.1-25.1-56.1-56.1c0-31,25.1-56.1,56.1-56.1C504,337.7,529.2,362.8,529.2,393.8z"/>
</g>
<g id="Button_Base">
	<g id="A">
		<path id="path214" inkscape:connector-curvature="0" class="st3" d="M566.8,355.3c-13.9,0-25.2-11.3-25.2-25.2
			c0-13.9,11.3-25.2,25.2-25.2c13.9,0,25.2,11.3,25.2,25.2C592,344,580.7,355.3,566.8,355.3z"/>
		<path id="path216" inkscape:connector-curvature="0" class="st4" d="M566.8,306.4c13.1,0,23.7,10.6,23.7,23.7
			c0,13.1-10.6,23.7-23.7,23.7c-13.1,0-23.7-10.6-23.7-23.7C543.1,317,553.7,306.4,566.8,306.4 M566.8,303.4
			c-14.7,0-26.7,12-26.7,26.7c0,14.7,12,26.7,26.7,26.7c14.7,0,26.7-12,26.7-26.7C593.5,315.4,581.5,303.4,566.8,303.4z"/>
	</g>
	<g id="Y">
		<path id="path219" inkscape:connector-curvature="0" class="st3" d="M566.8,254.2c-13.9,0-25.2-11.3-25.2-25.2
			c0-13.9,11.3-25.2,25.2-25.2c13.9,0,25.2,11.3,25.2,25.2C592,242.9,580.7,254.2,566.8,254.2z"/>
		<path id="path221" inkscape:connector-curvature="0" class="st4" d="M566.8,205.3c13.1,0,23.7,10.6,23.7,23.7
			c0,13.1-10.6,23.7-23.7,23.7c-13.1,0-23.7-10.6-23.7-23.7C543.1,215.9,553.7,205.3,566.8,205.3 M566.8,202.3
			c-14.7,0-26.7,12-26.7,26.7c0,14.7,12,26.7,26.7,26.7c14.7,0,26.7-12,26.7-26.7C593.5,214.3,581.5,202.3,566.8,202.3z"/>
	</g>
	<g id="B">
		<path id="path224" inkscape:connector-curvature="0" class="st3" d="M617.3,304.7c-13.9,0-25.2-11.3-25.2-25.2
			c0-13.9,11.3-25.2,25.2-25.2c13.9,0,25.2,11.3,25.2,25.2C642.5,293.4,631.2,304.7,617.3,304.7z"/>
		<path id="path226" inkscape:connector-curvature="0" class="st4" d="M617.3,255.8c13.1,0,23.7,10.6,23.7,23.7
			c0,13.1-10.6,23.7-23.7,23.7c-13.1,0-23.7-10.6-23.7-23.7C593.6,266.4,604.2,255.8,617.3,255.8 M617.3,252.8
			c-14.7,0-26.7,12-26.7,26.7c0,14.7,12,26.7,26.7,26.7c14.7,0,26.7-12,26.7-26.7C644,264.8,632,252.8,617.3,252.8z"/>
	</g>
	<g id="X">
		<path id="path229" inkscape:connector-curvature="0" class="st3" d="M516.2,304.7c-13.9,0-25.2-11.3-25.2-25.2
			c0-13.9,11.3-25.2,25.2-25.2c13.9,0,25.2,11.3,25.2,25.2C541.4,293.4,530.1,304.7,516.2,304.7z"/>
		<path id="path231" inkscape:connector-curvature="0" class="st4" d="M516.2,255.8c13.1,0,23.7,10.6,23.7,23.7
			c0,13.1-10.6,23.7-23.7,23.7c-13.1,0-23.7-10.6-23.7-23.7C492.5,266.4,503.1,255.8,516.2,255.8 M516.2,252.8
			c-14.7,0-26.7,12-26.7,26.7c0,14.7,12,26.7,26.7,26.7c14.7,0,26.7-12,26.7-26.7C542.9,264.8,530.9,252.8,516.2,252.8z"/>
	</g>
</g>
<path id="path235" inkscape:connector-curvature="0" class="st3" d="M375.6,156.5c0,0-88.9-1.1-100.5-3l-16.4,30.5
	c20.2,23.3,41.6,53.3,56.4,53.3c15.1,0,60.5,0,60.5,0s45.4,0,60.5,0c14.9,0,36.2-30,56.5-53.3l-16.4-30.5
	C464.6,155.4,375.6,156.5,375.6,156.5L375.6,156.5z"/>
<path id="path237" inkscape:connector-curvature="0" class="st27" d="M476.2,153.5l-3.6-6.8c-1.9,0.5-3.7,0.7-5.4,0.7
	c-21.9,0-92.2,0-92.2,0s-70.3,0-92.2,0c-1.4,0-2.8-0.2-4.3-0.5l-3.5,6.5c11.6,1.9,100.5,3,100.5,3S464.6,155.4,476.2,153.5
	L476.2,153.5z"/>
<path id="path241" inkscape:connector-curvature="0" class="st3" d="M642.5,192c-9-7.9-5.6-16.2-11.5-23.8c0.2,0.3,0.5,0.7,0.7,1
	c0,0-96.5-42.1-120.8-34.5c-15.6,4.9-27.2,15.3-32.8,18.2l15.9,29.6c11.2-12.7,21.9-23,31.1-24.8C545.1,153.8,609,174,642.5,192
	C642.6,192,642.6,192,642.5,192L642.5,192z"/>
<path id="path243" inkscape:connector-curvature="0" class="st27" d="M511,134.6c24.3-7.6,120.8,34.5,120.8,34.5
	c-0.2-0.3-0.5-0.7-0.7-1c0,0-0.1-0.1-0.1-0.1c-0.1-0.1-0.2-0.2-0.3-0.4c0-0.1-0.1-0.1-0.1-0.2c-0.1-0.1-0.2-0.2-0.3-0.3
	c-0.1-0.1-0.1-0.1-0.2-0.2c-0.1-0.1-0.2-0.2-0.3-0.3c-0.1-0.1-0.1-0.1-0.2-0.2c-0.1-0.1-0.2-0.2-0.3-0.3c-0.1-0.1-0.1-0.1-0.2-0.2
	c-0.1-0.1-0.2-0.2-0.3-0.3c-0.1-0.1-0.2-0.1-0.2-0.2c-0.1-0.1-0.2-0.2-0.3-0.3c-0.1-0.1-0.1-0.1-0.2-0.2c-0.1-0.1-0.2-0.2-0.3-0.3
	c-0.1-0.1-0.2-0.1-0.3-0.2c-0.1-0.1-0.2-0.2-0.3-0.3c-0.1-0.1-0.2-0.1-0.3-0.2c-0.1-0.1-0.2-0.2-0.4-0.3c-0.1-0.1-0.2-0.1-0.3-0.2
	c-0.1-0.1-0.3-0.2-0.4-0.3c-0.1-0.1-0.2-0.1-0.3-0.2c-0.1-0.1-0.3-0.2-0.4-0.3c-0.1-0.1-0.2-0.1-0.3-0.2c-0.2-0.1-0.3-0.2-0.5-0.3
	c-0.1-0.1-0.2-0.1-0.3-0.2c-0.2-0.1-0.4-0.2-0.5-0.3c-0.1-0.1-0.2-0.1-0.3-0.2c-0.3-0.2-0.6-0.3-0.8-0.5c-18.3-9.9-72-37-114.2-31.4
	c-7.6,1-21.6,12.3-33.8,16.3l3.6,6.7C483.7,149.9,495.4,139.5,511,134.6L511,134.6z"/>
<path id="path246" inkscape:connector-curvature="0" class="st27" d="M241.6,129.9c-42.2-5.6-95.9,21.5-114.2,31.4
	c-0.3,0.2-0.6,0.3-0.8,0.5c-0.1,0.1-0.2,0.1-0.2,0.2c-0.2,0.1-0.4,0.2-0.5,0.3c-0.1,0.1-0.2,0.1-0.3,0.2c-0.1,0.1-0.3,0.2-0.5,0.3
	c-0.1,0-0.2,0.1-0.3,0.2c-0.1,0.1-0.3,0.2-0.4,0.3c-0.1,0.1-0.2,0.1-0.3,0.2c-0.1,0.1-0.3,0.2-0.4,0.3c-0.1,0.1-0.2,0.1-0.3,0.2
	c-0.1,0.1-0.3,0.2-0.4,0.3c-0.1,0.1-0.2,0.1-0.2,0.2c-0.1,0.1-0.2,0.2-0.4,0.3c-0.1,0.1-0.1,0.1-0.2,0.2c-0.1,0.1-0.2,0.2-0.3,0.3
	c-0.1,0.1-0.1,0.1-0.2,0.2c-0.1,0.1-0.2,0.2-0.3,0.3c-0.1,0.1-0.1,0.1-0.2,0.2c-0.1,0.1-0.2,0.2-0.3,0.3c-0.1,0-0.1,0.1-0.2,0.2
	c-0.1,0.1-0.2,0.2-0.3,0.3c0,0.1-0.1,0.1-0.1,0.2c-0.1,0.1-0.2,0.2-0.3,0.3c0,0-0.1,0.1-0.1,0.1c-0.1,0.1-0.2,0.3-0.3,0.4
	c0,0-0.1,0.1-0.1,0.1c-0.1,0.1-0.2,0.3-0.3,0.4c0,0,0,0.1-0.1,0.1c-0.1,0.1-0.2,0.3-0.3,0.4c0,0,0,0,0,0c-0.1,0.2-0.2,0.3-0.3,0.5
	c0,0,97.7-42,122-34.4c15.5,4.9,27.2,15.3,32.8,18.2l3.4-6.3C264.1,142.9,249.5,130.9,241.6,129.9L241.6,129.9z"/>
<g id="g254">
	<path id="path248" inkscape:connector-curvature="0" class="st34" d="M273.6,153.1c0.2,0.1,0.3,0.1,0.5,0.2
		C273.9,153.2,273.7,153.2,273.6,153.1z"/>
	<path id="path250" inkscape:connector-curvature="0" class="st3" d="M273.1,152.8c-5.6-2.9-17.3-13.4-32.8-18.2
		c-24.2-7.6-121.3,34.1-122,34.4c-5,7.4-2.2,15.3-10.8,23c0,0,0,0-0.1,0c33.2-17.9,99.2-38.1,118.7-34.3
		c9.1,1.8,19.9,12.1,31.1,24.8L273.1,152.8C273.1,152.8,273.1,152.8,273.1,152.8L273.1,152.8z"/>
	<path id="path252" inkscape:connector-curvature="0" class="st34" d="M273.1,152.8c0.2,0.1,0.3,0.2,0.5,0.2
		C273.4,153,273.3,152.9,273.1,152.8z"/>
</g>
<path id="path256" inkscape:connector-curvature="0" class="st27" d="M258,183.2c0.2,0.3,0.5,0.6,0.7,0.8l16.4-30.5l3.5-6.5
	c-0.3-0.1-0.7-0.1-1-0.2c-0.3-0.1-0.7-0.2-1-0.3l-3.4,6.3l-15.9,29.6C257.5,182.7,257.7,183,258,183.2L258,183.2"/>
<path id="path259" inkscape:connector-curvature="0" class="st27" d="M478.1,152.8l-3.6-6.7c-0.3,0.1-0.7,0.2-1,0.3
	c-0.3,0.1-0.7,0.2-1,0.3l3.6,6.8l16.4,30.5c0.2-0.3,0.5-0.5,0.7-0.8c0.2-0.3,0.5-0.5,0.7-0.8L478.1,152.8z"/>
<path id="polygon261" class="st35" d="M356.9,169.3L356.9,169.3L356.9,169.3z"/>
<g id="g275">
	<g id="g271">
		
			<image style="overflow:visible;opacity:0.75;enable-background:new    ;" width="102" height="102" id="image265" xlink:href="59BD856.png"  transform="matrix(1 0 0 1 324.2354 145.4111)">
		</image>
		<g id="g269">
			<path id="path267" inkscape:connector-curvature="0" class="st36" d="M407.6,196.4c0,18-14.6,32.6-32.6,32.6
				c-18,0-32.6-14.6-32.6-32.6c0-18,14.6-32.6,32.6-32.6C393,163.8,407.6,178.4,407.6,196.4z"/>
		</g>
	</g>
	<path id="path273" inkscape:connector-curvature="0" class="st35" d="M384,182c0,0,8.9-9.4,13.8-8.9c0,0,0,0,0,0
		c-0.7-0.7-1.5-1.4-2.3-2c0,0,0,0,0,0c-0.4-0.3-0.8-0.6-1.2-0.9c0,0,0,0-0.1-0.1c-0.4-0.3-0.8-0.5-1.2-0.8c0,0,0,0,0,0
		c-0.4-0.1-0.8-0.1-1.2-0.2c-5.2-0.5-16.9,4.5-16.9,4.5s-11.6-5-16.9-4.5c-0.4,0-0.8,0.1-1.2,0.2c0,0,0,0,0,0
		c-0.4,0.3-0.8,0.6-1.2,0.8c0,0,0,0-0.1,0c-0.4,0.3-0.8,0.6-1.2,0.9c0,0,0,0,0,0c-0.8,0.6-1.5,1.3-2.3,2v0
		c4.8-0.6,13.8,8.9,13.8,8.9s-17.7,20.9-17,34.1c1.1,1.4,2.3,2.8,3.6,4c-0.4-12,22.3-30.1,22.3-30.1s22.8,18.1,22.3,30.1
		c1.3-1.2,2.5-2.6,3.6-4c0,0,0,0,0,0C401.7,202.9,384,182,384,182L384,182z"/>
</g>
<g id="g289">
	<g id="g281">
		<path id="path277" inkscape:connector-curvature="0" class="st30" d="M549.1,5.5c-0.4-0.3-0.8-0.6-1.2-0.9l-2.3,110l53.3,7.2
			C586.7,5,555.8,10.8,549.1,5.5z"/>
		<path id="path279" inkscape:connector-curvature="0" class="st31" d="M522,0.1c-10.8,0.4-12.1,11.4-12.2,15.2v1.2
			c0,0,2.9,40.7,0,93.1c9.9,2.3,38.5,5.3,38.5,5.3s0-20.9,0.7-50.6c0.8-37.5-1.2-59.8-1.2-59.8C541.5,0.1,534.3-0.3,522,0.1z"/>
	</g>
	<g id="g287">
		<path id="path283" inkscape:connector-curvature="0" class="st30" d="M201,5.5c0.4-0.3,0.8-0.6,1.2-0.9l2.3,110l-53.2,7.2
			C163.3,5,194.2,10.8,201,5.5z"/>
		<path id="path285" inkscape:connector-curvature="0" class="st31" d="M228,0.1c10.8,0.4,12.1,11.4,12.2,15.2v1.2
			c0,0-2.9,40.7,0,93.1c-9.9,2.3-38.5,5.3-38.5,5.3S201.6,94,201,64.4c-0.8-37.5,1.2-59.8,1.2-59.8C208.6,0.1,215.8-0.3,228,0.1z"/>
	</g>
</g>
<g id="g292">
</g>
<g id="g294">
</g>
<g id="g296">
</g>
<g id="g298">
</g>
<g id="g300">
</g>
<g id="g302">
</g>
<g id="g304">
</g>
<g id="g306">
</g>
<g id="g308">
</g>
<g id="g310">
</g>
<g id="g312">
</g>
<g id="g314">
</g>
<g id="g316">
</g>
<g id="g318">
</g>
<g id="g320">
</g>
<g>
	<g>
		<defs>
			<rect id="SVGID_1_" x="-144.1" y="372.5" width="419.2" height="419.2"/>
		</defs>
		<clipPath id="SVGID_00000072260745470134530680000016221594817577225863_">
			<use xlink:href="#SVGID_1_"  style="overflow:visible;"/>
		</clipPath>
		<g style="clip-path:url(#SVGID_00000072260745470134530680000016221594817577225863_);">
			<defs>
				<rect id="SVGID_00000143598567679564096940000016641496788947894689_" x="-144.1" y="372.5" width="419.2" height="419.2"/>
			</defs>
			<clipPath id="SVGID_00000077323753072693828610000002697869214084046013_">
				<use xlink:href="#SVGID_00000143598567679564096940000016641496788947894689_"  style="overflow:visible;"/>
			</clipPath>
			<g style="clip-path:url(#SVGID_00000077323753072693828610000002697869214084046013_);">
				<defs>
					<rect id="SVGID_00000061460856566307405700000010119026458400932787_" x="-144.1" y="372.5" width="419.2" height="419.2"/>
				</defs>
				<clipPath id="SVGID_00000003789778646727954240000001888653656091682194_">
					<use xlink:href="#SVGID_00000061460856566307405700000010119026458400932787_"  style="overflow:visible;"/>
				</clipPath>
				<path style="clip-path:url(#SVGID_00000003789778646727954240000001888653656091682194_);" d="M118.8,462.4c-0.1,0-0.2,0-0.3,0
					c-1-0.1-1.8-0.9-2.1-1.9c-0.2-0.9-0.4-1.6-0.5-1.8c0-0.1-0.1-0.2-0.1-0.3c-8-21.6-25.2-30.3-34.7-33.6c-1.2-0.4-1.9-1.7-1.6-2.9
					c0.3-1.2,1.3-2,2.5-2c0.1,0,0.2,0,0.2,0c11.8,1.1,19.8,4.9,22,6.1c0.5,0.3,0.9,0.7,1.1,1.2l1.4,3.4l14.2,18.3
					c0.3,0.4,0.5,0.8,0.5,1.2c0.1,0.5,0.3,2.3,1.4,3.1c0,0,0.1,0,0.1,0.1c1,0.8,1.3,2.2,0.7,3.3l-2.6,4.5
					C120.6,461.9,119.7,462.4,118.8,462.4"/>
				<path style="clip-path:url(#SVGID_00000003789778646727954240000001888653656091682194_);" d="M118.1,457.5
					c0.1,0.2,0.1,0.3,0.2,0.5c0.1,0.4,0.3,1.1,0.5,1.9l2.6-4.5c-0.1-0.1-0.1-0.1-0.2-0.2c-1.6-1.4-2.1-3.7-2.2-4.8L104.7,432
					c-0.1-0.1-0.1-0.2-0.2-0.3l-1.5-3.5c-1.9-1-9.6-4.8-21.1-5.8C91.7,425.8,109.7,434.9,118.1,457.5"/>
				<path style="clip-path:url(#SVGID_00000003789778646727954240000001888653656091682194_);" d="M29.9,461.2
					c-0.9,0-1.7-0.5-2.2-1.3l-1.9-3.4c-0.6-1.1-0.3-2.5,0.7-3.2c0,0,0.1,0,0.1-0.1c1-0.9,1.3-2.6,1.4-3.1c0.1-0.5,0.2-0.9,0.5-1.2
					l14.2-18.3l1.3-3.1c0.3-0.6,0.7-1.1,1.3-1.3c6.3-2.7,12.7-4.6,19-5.6c0.1,0,0.3,0,0.4,0c1.1,0,2.1,0.7,2.4,1.9
					c0.3,1.2-0.3,2.5-1.5,3c-9,3.5-25.3,12.3-33,33l-0.1,0.3c-0.1,0.2-0.1,0.4-0.2,0.7c-0.3,1-1.1,1.7-2.1,1.8
					C30.1,461.2,30,461.2,29.9,461.2"/>
				<path style="clip-path:url(#SVGID_00000003789778646727954240000001888653656091682194_);" d="M64.7,423
					c-6.1,1-12.3,2.8-18.4,5.4l-1.4,3.2c-0.1,0.1-0.1,0.2-0.2,0.3l-14.3,18.4c-0.1,1.1-0.6,3.4-2.2,4.7c-0.1,0.1-0.1,0.1-0.2,0.2
					l1.9,3.4c0.1-0.3,0.2-0.5,0.2-0.7c0,0,0,0,0-0.1l0.1-0.4c0,0,0,0,0-0.1C38.2,436.2,54.6,426.9,64.7,423"/>
				<path style="clip-path:url(#SVGID_00000003789778646727954240000001888653656091682194_);fill:#2A035E;" d="M46.8,431.5
					c0.3,0.2,0.6,0.3,0.9,0.3c0.3,0,0.7-0.1,0.9-0.3c0.2-0.1,0.4-0.3,0.5-0.4c0.6-0.5,0.8-1.3,0.4-2c-0.3-0.5-0.8-0.8-1.3-0.8
					c-0.2,0-0.4,0-0.6,0.1c-0.1,0.1-0.3,0.1-0.4,0.2c-0.4,0.2-0.7,0.4-0.8,0.8l-0.1,0.2C46,430.3,46.2,431,46.8,431.5"/>
				<path style="clip-path:url(#SVGID_00000003789778646727954240000001888653656091682194_);fill:#2A035E;" d="M104.7,432
					l14.3,18.4c0.1,1.1,0.6,3.4,2.2,4.8c0.1,0.1,0.1,0.1,0.2,0.2l-2.6,4.5c-0.2-0.9-0.4-1.5-0.5-1.9c0-0.2-0.1-0.3-0.2-0.5
					c-8.4-22.6-26.4-31.7-36.2-35.1c11.5,1,19.2,4.8,21.1,5.8l1.5,3.5C104.5,431.8,104.6,431.9,104.7,432 M30.2,457.5
					C30.2,457.5,30.2,457.5,30.2,457.5l-0.1,0.4c0,0,0,0,0,0.1c-0.1,0.2-0.1,0.5-0.2,0.7l-1.9-3.4c0.1-0.1,0.1-0.1,0.2-0.2
					c1.6-1.4,2.1-3.7,2.2-4.8L44.7,432c0.1-0.1,0.1-0.2,0.2-0.3l1.4-3.2c6.1-2.6,12.3-4.4,18.4-5.4
					C54.6,426.9,38.2,436.2,30.2,457.5"/>
				<path style="clip-path:url(#SVGID_00000003789778646727954240000001888653656091682194_);fill:#F6BC00;" d="M48.3,429.8
					c-0.2,0.1-0.4,0.3-0.5,0.4l0.1-0.2C48,429.9,48.1,429.9,48.3,429.8"/>
				<path style="clip-path:url(#SVGID_00000003789778646727954240000001888653656091682194_);fill:#2A035E;" d="M130.6,586
					c-1-1.7-0.9-3.8,1.1-5.4c5.7-4.7,11.1-9.7,16.8-14.4c2-1.6,4.7-3.6,6.8-5.9c-0.9-9.3-4.6-25-18.6-33.8c-1.1-0.7-14.2-7-21-9.1
					c3.1-6,4.4-10.4,4.6-11.3c5.2-15.8,1.8-27.8-2-35.3c0.3-0.7,0.4-1.4,0.4-2.1c0-3.4-1.5-8.7-1.9-10.2c0-0.1-0.1-0.3-0.1-0.4
					c-10.9-29.3-38.4-35.3-41.4-35.9c-0.3-0.1-0.7-0.1-1.1-0.1c-0.4,0-0.7,0-1.1,0.1c-3.1,0.6-30.5,6.7-41.4,36
					c0,0.1-0.1,0.2-0.1,0.4c-0.5,1.5-1.9,6.9-1.9,10.3c0,0.7,0.1,1.4,0.4,2.1c-3.9,7.5-7.2,19.4-2,35.3c0.3,1,1.6,5.4,4.6,11.3
					c-6.8,2.1-20.2,8.6-21,9.1c-4.7,3-8.2,6.7-10.9,10.7c0.2,0.4,0.3,0.9,0.3,1.3c0.3,3,0.4,6.1,0.5,9.1c1.6,11.9,6.9,22.9,9.6,34.6
					c0.9,1.4,1.9,2.9,2.7,4.2c3.9,6.2,7.9,11.8,13.4,16.7c5.7,5.1,12.8,8.1,18.8,12.7c2.7,2.1,4.8,4.7,7.5,6.8
					c2.4,1.9,5.8,2.6,8.9,3.3c8.9,0,17.5-1,26.4-2.8c6.3-4,11.8-9.6,17.6-14.1c6.5-5.1,11.7-11.2,17.9-16.6c1.3-1.1,2.5-2.2,3.8-3.2
					C128.9,588.1,129.7,587.1,130.6,586z"/>
				<path style="clip-path:url(#SVGID_00000003789778646727954240000001888653656091682194_);fill:#5C3F9C;" d="M126.5,565.5
					c2,6,1.9,15.2,1.9,15.2c1.5-2.8,4.1-10.8,4.4-11.8c0-0.1,0-0.1,0-0.1l0,0l-0.1,1.8l-0.2,3.2v0c-0.1,2.1,0,4.3,0.4,5.5
					c2.8-2.3,5.5-4.7,8.2-7c1.1-1.6,2-2.8,2.1-3.1c0,0,0,0,0,0c-0.2,0.6-0.4,1.2-0.6,1.8c1.9-1.7,3.8-3.3,5.8-5
					c0.7-0.5,1.4-1.1,2.2-1.7c-0.5-1.5-0.8-2.6-0.8-2.6c-0.9-11.9-5.7-24.1-16.1-30.7c-1.7-1.1-20.5-9.7-21.5-8.9c0,0,0,0,0,0
					c-1.1,2.9-4,9.2-8.4,13.8c-3.8,3.9-5.8,6.3-6.8,7.5c-0.2,0.2-0.3,0.4-0.4,0.5c0,0-0.1,0.1-0.1,0.1c-0.1,0.1-0.2,0.2-0.2,0.3
					c0,0,0,0,0,0l0,0c0,0,0,0,0,0c0.3-0.6,4.5-9.5,7.1-15.1c2.6-5.6,5.7-11.3,5.8-11.5c4.5-7.8,5.9-13.5,5.9-13.5
					c8.4-25.4-7.5-39.5-9.3-41c0,0,0-0.1-0.1-0.1c0.1,0,0.1,0,0.2,0.1c0,0,0.1,0,0.1,0c0.5,0.2,1,0.5,1.5,0.7
					c3.3,1.8,5.6,4.3,5.8,4.5c0-0.1,0-0.1,0-0.2c0-0.1,0-0.1,0-0.2c0-0.2,0-0.4,0-0.6c-0.3-3-1.7-7.7-1.7-7.7
					c-6.7-18-20.3-26.3-29.2-29.9c-2.6-1.1-5.3-1.6-8.1-1.6c-2.8,0-5.5,0.5-8.1,1.6c-8.9,3.6-22.5,11.9-29.2,29.9
					c0,0-1.4,4.9-1.7,7.9c0,0.3,0,0.5,0,0.8c0.2-0.2,3.4-3.6,7.6-5.4c0,0,0,0,0,0c-0.9,0.7-18.1,14.9-9.5,41.1c0,0,1.5,5.7,5.9,13.5
					c0.1,0.2,3.2,5.9,5.8,11.5c0.3,0.5,0.5,1.1,0.8,1.8c0,0,0,0.1,0,0.1c0,0,0,0,0,0c0,0,0,0,0,0c2,4.2,4.5,9.5,5.6,11.9
					c0,0,0,0,0,0c0.1,0.3,0.3,0.5,0.4,0.7c0,0,0,0,0,0c0.1,0.3,0.2,0.5,0.2,0.5c0,0,0,0,0-0.1c0,0,0,0,0,0c0,0,0,0,0,0
					c0,0-0.1-0.1-0.2-0.2l0,0v0c0,0-0.1-0.1-0.1-0.1c-0.7-0.9-2.8-3.4-7.2-8c-4.5-4.6-7.3-10.8-8.4-13.7c0,0,0,0,0,0c0,0,0,0,0,0
					c0,0,0,0,0,0l-0.1,0c-2-0.3-19.7,7.9-21.4,8.9c-6.2,3.9-10.4,9.9-13,16.5c1.3,9.5,5,18.5,7.7,27.7c2,2.5,4.1,5,5.1,5.1
					c1.2,0.2,1.4-3.3,1.3-6.5v0l-0.2-3.2l-0.1-1.8l0,0c0,0,0,0,0,0.1c0.3,1,3,9,4.4,11.8c0,0-0.1-9.3,1.9-15.2
					c0,0-1.8,18.8,3.9,36.2c0.5,0.5,1,1,1.5,1.4c5.7,5.1,12.8,8.1,18.8,12.7c2.7,2.1,4.8,4.7,7.5,6.8c2.4,1.9,5.8,2.6,8.9,3.3
					c8.9,0,17.5-1,26.4-2.8c6.3-4,11.8-9.6,17.6-14.1c6.5-5.1,11.7-11.2,17.9-16.6c0.3-0.2,0.5-0.5,0.8-0.7
					C127.7,577.9,126.5,565.5,126.5,565.5z M57.3,531c-2.7-3-5.3-6.3-7.4-9.7c-3-4.7-6.4-11-7.8-17c0,0,0,0,0,0c0,0,0-0.1,0-0.1
					l0.3,10.5c0,0,0,0-0.1-0.1c-0.4-0.6-1.8-3.2-3.3-7c0,0-1.6-4.7-1.6-11.1c0-5.2,1.1-11.6,5.2-17.2c8.9-12.1,30.7-12.5,31.6-12.5
					h0c0,0,22.6,0.1,31.6,12.5c7.8,10.6,4.8,23.8,3.9,27.4c-1.8,4.9-3.7,8-3.7,8l0.3-10.5c-1.4,6-4.9,12.4-7.8,17.1
					c-2.2,3.5-4.7,6.7-7.4,9.7C84.3,538.6,64.1,538.6,57.3,531z"/>
				<path style="clip-path:url(#SVGID_00000003789778646727954240000001888653656091682194_);fill:#2A035E;" d="M105.9,463.4
					C105.9,463.4,105.8,463.4,105.9,463.4c0.3-0.1,0.9,0.2,1.5,0.7C106.9,463.9,106.4,463.7,105.9,463.4"/>
				<g style="opacity:0.5;clip-path:url(#SVGID_00000003789778646727954240000001888653656091682194_);">
					<g>
						<defs>
							<rect id="SVGID_00000018210682424209641350000016631945941135268521_" x="90.8" y="463.4" width="26.6" height="81.1"/>
						</defs>
						<clipPath id="SVGID_00000153681861205361197140000012078951793659475082_">
							<use xlink:href="#SVGID_00000018210682424209641350000016631945941135268521_"  style="overflow:visible;"/>
						</clipPath>
						<path style="clip-path:url(#SVGID_00000153681861205361197140000012078951793659475082_);fill:#2A035E;" d="M100.5,529.6
							c0,0-1.8,9.3-4.3,14.9c0.3-0.6,4.5-9.5,7.1-15.1c2.6-5.6,5.7-11.3,5.8-11.5c4.5-7.8,5.9-13.5,5.9-13.5
							c8.4-25.4-7.5-39.5-9.3-41c0,0,26,36.1-14.9,73.1C91.1,536.3,98.8,531.7,100.5,529.6z"/>
					</g>
				</g>
				<g style="opacity:0.5;clip-path:url(#SVGID_00000003789778646727954240000001888653656091682194_);">
					<g>
						<defs>
							<rect id="SVGID_00000096059460534676756080000004110552534679167364_" x="-2.1" y="522.2" width="54" height="41.2"/>
						</defs>
						<clipPath id="SVGID_00000153666112443378541580000005578718949331883393_">
							<use xlink:href="#SVGID_00000096059460534676756080000004110552534679167364_"  style="overflow:visible;"/>
						</clipPath>
						<path style="clip-path:url(#SVGID_00000153666112443378541580000005578718949331883393_);fill:#2A035E;" d="M2.9,554.6
							c8.4-12.8,26.3-31.9,48.9-10.4v0c0,0-0.1-0.1-0.1-0.1c-0.7-0.9-2.8-3.4-7.2-8c-4.5-4.6-7.3-10.8-8.4-13.7c0,0,0,0,0,0
							c0,0,0,0,0,0c0,0,0,0,0,0l-0.1,0c-2-0.3-19.7,7.9-21.4,8.9c-6.2,3.9-10.4,9.9-13,16.5C1.9,550,2.4,552.3,2.9,554.6z"/>
					</g>
				</g>
				<g style="opacity:0.5;clip-path:url(#SVGID_00000003789778646727954240000001888653656091682194_);">
					<g>
						<defs>
							<rect id="SVGID_00000129902522998793310270000002012036101320682399_" x="30.9" y="428.5" width="82.2" height="114.7"/>
						</defs>
						<clipPath id="SVGID_00000150790871351306796130000000367775175048489124_">
							<use xlink:href="#SVGID_00000129902522998793310270000002012036101320682399_"  style="overflow:visible;"/>
						</clipPath>
						<path style="clip-path:url(#SVGID_00000150790871351306796130000000367775175048489124_);fill:#2A035E;" d="M33.3,504.4
							c0,0,1.5,5.7,5.9,13.5c0.1,0.2,3.2,5.9,5.8,11.5c0.2,0.6,0.5,1.1,0.8,1.8c0,0,0,0.1,0,0.1c0,0,0,0,0,0c0,0,0,0,0,0
							c2,4.2,4.5,9.5,5.6,11.9c-1.6-4.1-7.4-20.1-7.3-27.3l-1.1,6.4c0,0-9.9-18.6-8.3-28s7-32.2,35.9-29.1c0,0-15.4-3.2-24.2,4.6
							c0,0,8.9-41.9,39.4-28c12.6,5.7,21.2,15.9,27.1,25.8c-0.3-3-1.7-7.7-1.7-7.7c-6.7-18-20.3-26.3-29.2-29.9
							c-2.6-1.1-5.3-1.6-8.1-1.6c-2.8,0-5.5,0.5-8.1,1.6c-8.9,3.6-22.5,11.9-29.2,29.9c0,0-1.4,4.9-1.7,7.9c0,0.3,0,0.5,0,0.8
							c0.2-0.2,3.4-3.6,7.6-5.4c0,0,0,0,0,0C41.9,464,24.7,478.2,33.3,504.4z"/>
					</g>
				</g>
				<g style="opacity:0.5;clip-path:url(#SVGID_00000003789778646727954240000001888653656091682194_);">
					<g>
						<defs>
							<rect id="SVGID_00000098221945027653013740000012944810133830167959_" x="95.6" y="522.2" width="54.3" height="39.6"/>
						</defs>
						<clipPath id="SVGID_00000021116645861222525610000017799474249265596577_">
							<use xlink:href="#SVGID_00000098221945027653013740000012944810133830167959_"  style="overflow:visible;"/>
						</clipPath>
						<path style="clip-path:url(#SVGID_00000021116645861222525610000017799474249265596577_);fill:#2A035E;" d="M149.9,561.9
							c-0.9-11.9-5.7-24.1-16.1-30.7c-1.7-1.1-20.5-9.7-21.5-8.9c0,0,0,0,0,0c-1.1,2.9-4,9.2-8.4,13.8c-3.8,3.9-5.8,6.3-6.8,7.5
							c-0.6,0.9-1,1.6-1.3,1.9C95.6,545.5,133,524.1,149.9,561.9z"/>
					</g>
				</g>
				<g style="opacity:0.5;clip-path:url(#SVGID_00000003789778646727954240000001888653656091682194_);">
					<g>
						<defs>
							<rect id="SVGID_00000162325595685923749330000005164638962599524529_" x="-8" y="557.5" width="164.1" height="72.2"/>
						</defs>
						<clipPath id="SVGID_00000035532175307685822240000014612077389514967741_">
							<use xlink:href="#SVGID_00000162325595685923749330000005164638962599524529_"  style="overflow:visible;"/>
						</clipPath>
						<path style="clip-path:url(#SVGID_00000035532175307685822240000014612077389514967741_);fill:#2A035E;" d="M126.5,565.5
							c2,6,1.9,15.2,1.9,15.2c1.5-2.8,4.1-10.8,4.4-11.8c0-0.1,0-0.1,0-0.1l0,0l-0.1,1.8l-0.2,3.2v0c-0.1,2.1,0,4.3,0.4,5.5
							c2.8-2.3,5.5-4.7,8.2-7c1.1-1.6,2-2.8,2.1-3.1c0,0,0,0,0,0c-0.2,0.6-0.4,1.2-0.6,1.8c0.5-0.4,0.9-0.8,1.4-1.2
							c0.3-2.2,0.4-3.7,0.4-3.7s-5.3,8.8-8.2,8.9c-2.9,0.1-3.4-10.5-3.4-10.5l-3.2,6.9c-1.8-7.5-5.9-9.4-6-9.5
							c5.1,10.5-0.7,28.3-3.8,23c-3.1-5.3-10.7-6.4-18-7.3c-7.3-0.9-13.8,4.9-18.4,7.2c-4.5,2.3-7.3,7.2-10.7,7.6
							c-3.4,0.4-3.7,0.4-9.7-4.7c-6-5.1-5.8-2-8.7-4.1c-2.9-2.2-2.4-3.8-8.6-6.9c-6.2-3.2-12.5,5.2-19.3,3.4
							c-6.8-1.9-3.5-22.6-3.5-22.6c-5.6,6.8-4.3,10.6-5.2,12.4c-0.9,1.8-5.9-11-6-11.4c0.1,0.2,1.6,5.1,0.9,13.6
							c-0.3,4.1-2.6,2.3-4.9-0.9c0.4,1.4,0.9,2.8,1.3,4.1c2,2.5,4.1,5,5.1,5.1c1.2,0.2,1.4-3.3,1.3-6.5v0l-0.2-3.2l-0.1-1.8l0,0
							c0,0,0,0,0,0.1c0.3,1,3,9,4.4,11.8c0,0-0.1-9.3,1.9-15.2c0,0-1.8,18.8,3.9,36.2c0.5,0.5,1,1,1.5,1.4
							c5.7,5.1,12.8,8.1,18.8,12.7c2.7,2.1,4.8,4.7,7.5,6.8c2.8,2.2,6.9,2.8,10.3,3.6c7.9,1.7,14.8,2.5,22.1-1.4
							c7.5-4,13.7-10.5,20.4-15.8c6.5-5.1,11.7-11.2,17.9-16.6c0.3-0.2,0.5-0.5,0.8-0.7C127.7,577.9,126.5,565.5,126.5,565.5z"/>
					</g>
				</g>
				<path style="clip-path:url(#SVGID_00000003789778646727954240000001888653656091682194_);fill:#F6BC00;" d="M113.2,468.3
					L113.2,468.3c-0.1,0-5.5-25.8-27.9-35.6c-6.7-2.9-14.3-3-21.1-0.1c-10,4.2-24.5,14.1-29,36.1c0-0.2,0-0.5,0-0.8v0
					c0.2-3,1.7-7.9,1.7-7.9c6.7-18,20.3-26.3,29.2-29.9c2.6-1.1,5.4-1.6,8.1-1.6c2.7,0,5.5,0.5,8.1,1.6c8.9,3.6,22.5,11.9,29.2,29.9
					C111.5,460,113,465.3,113.2,468.3"/>
				<path style="clip-path:url(#SVGID_00000003789778646727954240000001888653656091682194_);fill:#F6BC00;" d="M148.1,551.9
					L148.1,551.9c-2.3-8.4-6.9-16-14.4-20.8c-1.7-1-19.4-9.2-21.4-8.9l-0.1,0c0,0,13.3,6.3,17.8,8.9
					C134.4,533.8,144.6,539.9,148.1,551.9z"/>
				<path style="clip-path:url(#SVGID_00000003789778646727954240000001888653656091682194_);fill:#F6BC00;" d="M1.7,548
					c4.3-9.5,12.7-14.5,16.6-16.9c4.4-2.6,17.8-8.9,17.8-8.9l-0.1,0c-2-0.3-19.7,7.9-21.4,8.9c-6.2,3.9-10.4,9.9-13,16.5
					C1.6,547.8,1.6,547.9,1.7,548z"/>
				<path style="clip-path:url(#SVGID_00000003789778646727954240000001888653656091682194_);fill:#2A035E;" d="M39.8,422.3l1.5-0.8
					c0.2-0.1,16-7.4,35.7-7.4c11.6,0,22.2,2.5,31.6,7.5l1.2,0.6l-5.1,5.3l-0.5-0.3c-0.1-0.1-11.1-6.6-28.3-6.6
					c-10.5,0-21.1,2.4-31.5,7l-0.6,0.3L39.8,422.3z"/>
				<path style="clip-path:url(#SVGID_00000003789778646727954240000001888653656091682194_);fill:#5C3F9C;" d="M108.3,422.4
					l-1.1,1.1l-1.3,1.4l-1.3,1.3c0,0-0.1-0.1-0.4-0.2c-3.3-1.8-26.2-13.3-57.6-0.5c-0.8,0.3-1.6,0.7-2.4,1c0,0-0.1,0-0.1,0.1
					l-0.1-0.2l-0.8-1.4l-1.6-2.6c0,0,0.1-0.1,0.4-0.2C46,420.5,78.8,406.9,108.3,422.4"/>
				<path style="clip-path:url(#SVGID_00000003789778646727954240000001888653656091682194_);fill:#F6BC00;" d="M108.3,422.4
					l-1.1,1.1c-23.4-16.2-65.2-1.2-65.2-1.2l0-0.1C46,420.5,78.8,406.9,108.3,422.4"/>
				<path style="clip-path:url(#SVGID_00000003789778646727954240000001888653656091682194_);fill:#2A035E;" d="M104,425.4l0.9-1.8
					l0.2-0.4l0.3-0.2c0,0,0.3-0.2,0.8-0.4c0.8-0.3,2.1-0.6,3.4-0.4l0.4,0.1l0.3,0.3l19,23.7l0.9,1.2l-1.2,0.8l-5.4,3.9l-0.8,0.6
					l-0.6-0.8L106,431.2l-0.1-0.1l-0.1-0.2l-1.8-4.3l-0.3-0.6L104,425.4z"/>
				<path style="clip-path:url(#SVGID_00000003789778646727954240000001888653656091682194_);fill:#F6BC00;" d="M105,426l1.8,4.3
					l16.2,20.9l2.6-1.9l2.7-2l-2.5-3.1l-16.5-20.6c-0.4-0.1-0.7-0.1-1.1-0.1c-0.5,0-0.9,0.1-1.3,0.2c-0.7,0.2-1.2,0.5-1.2,0.5
					L105,426z"/>
				<path style="clip-path:url(#SVGID_00000003789778646727954240000001888653656091682194_);fill:#F6BC00;" d="M108.3,423.5
					l16.4,21.4c0,0,0.5-0.3,1.1-0.8l-16.5-20.6C109,423.5,108.7,423.5,108.3,423.5"/>
				<path style="clip-path:url(#SVGID_00000003789778646727954240000001888653656091682194_);fill:#5C3F9C;" d="M105,426l1.8,4.3
					l16.2,20.9l2.6-1.9c-0.4-0.7-0.8-1.4-1.4-2.1c-3.1-3.8-13.6-18.4-17.2-23.4c-0.7,0.2-1.2,0.5-1.2,0.5L105,426z"/>
				<path style="clip-path:url(#SVGID_00000003789778646727954240000001888653656091682194_);fill:#2A035E;" d="M134.9,467.1
					c-0.4-3.5-0.7-7-0.7-7l-0.2-1.9l1.6,0.5c0.1,0,2.6,0.8,4.4,4.5c1.6,3.4,3.1,22,3.2,24.1l0.6,7.7l-2.7-7
					c-1.9-5-4.9-12.6-5.1-13.1C135.9,474.7,135.7,474.5,134.9,467.1"/>
				<path style="clip-path:url(#SVGID_00000003789778646727954240000001888653656091682194_);fill:#F6BC00;" d="M137,474.4
					c0.3,0.6,5.2,13.1,5.2,13.1s-0.2-2.2-0.4-5.2l0,0c0-0.2,0-0.5-0.1-0.7c-0.6-6.3-1.6-15.5-2.6-17.7c-1-2.2-2.4-3.2-3.1-3.7
					c0,0,0,0,0,0c-0.1,0-0.2-0.1-0.2-0.1c-0.1,0-0.1,0-0.1,0c-0.2-0.1-0.3-0.1-0.3-0.1s0,0,0,0.1C135.4,460.9,136.7,473.8,137,474.4
					"/>
				<path style="clip-path:url(#SVGID_00000003789778646727954240000001888653656091682194_);fill:#212327;" d="M137,474.4
					c0.3,0.6,5.2,13.1,5.2,13.1s-0.2-2.2-0.4-5.2l0,0c-0.7-4-3.4-18.2-4.2-19.9c-0.7-1.6-1.6-2.2-1.8-2.4c-0.1,0-0.1,0-0.1,0
					l-0.3-0.1C135.4,460.9,136.7,473.8,137,474.4"/>
				<path style="clip-path:url(#SVGID_00000003789778646727954240000001888653656091682194_);fill:#2A035E;" d="M120.3,504.8
					l0.4,0.3c0.2,0.1,2.2,1.4,6,0.6c1-0.2,1.8-0.4,2.5-0.7c2-0.8,3.1-2.1,3.6-4c2.5,3.6,4.6,3.5,5.7,3.1c0.4-0.2,0.7-0.4,1-0.7
					c0.8-0.8,2.4-3.6,2.6-3.9c2-3.3,2-4.1,2-4.4c0.1-1.4-2.1-11.6-2.9-13.8c-0.8-2.4-4.1-14.5-4.6-17.3c-0.4-2.3-1.7-8.3-4.6-13.2
					c-2.7-4.5-7.3-9.9-7.5-10.1l-1.8-2.1l-0.1,2.9c-0.1,3.3-2.1,7.6-2.1,7.7l-0.1,0.3l0,0.3c0,0.3,0.2,2.9,1.7,4.1
					c0.5,0.5,1.2,0.7,1.9,0.7c-0.5,0.3-0.8,0.5-0.8,0.6l-0.1,0.1l-0.1,0.2l-3.5,6.2c-0.6,0.7-4.1,4.6-4.8,5.4
					c-0.6,0.6-0.5,1.5-0.2,2.7c0.2,0.8,0.5,1.8,1,3c0.8,2.2,1.8,4.7,2.3,6.1c0.2,0.4,0.3,0.8,0.4,1c0.2,1.4,1.3,15.1,2.1,24.2
					L120.3,504.8z"/>
				<path style="clip-path:url(#SVGID_00000003789778646727954240000001888653656091682194_);fill:#5C3F9C;" d="M131,502.5
					c0.6-0.7,0.9-1.6,0.9-2.8c0.2-3.1-2-22.5-2.8-29.2c-0.8-6.7-0.6-15.3,0.1-11.2c0.7,4.1,2.2,10.6,2.2,10.6s5.4,22.4,6.2,25.5
					c0.8,3,0.9,6.3-0.4,6.6c-1.3,0.3-3.6-2.2-3.8-2.4c2.5,4.1,4.7,3.7,5.5,2.9c0.3-0.3,0.9-1.2,1.6-2.3c0,0,0,0,0,0
					c1.2-1.9,2.6-4.5,2.6-5.2c0.1-1.1-2-10.9-2.8-13.4c-0.8-2.5-4.1-14.7-4.6-17.5c-0.5-2.8-1.8-8.3-4.4-12.8
					c-2.6-4.3-7.1-9.6-7.4-9.9c0,0,0,0,0,0c-0.2,3.7-2.3,8.2-2.3,8.2s0.2,4.3,3.1,3.8c2.9-0.6,3.8,3.2,3.8,3.2
					c-1.9-1.7-3.4-1.2-4.1-0.8l0.4,0.8c0.1,0.2,2.6,5.1,4.2,17.3c0.7,4.9,1.5,12.2,1.9,18.5C131.2,497.3,131.2,500.4,131,502.5"/>
				<path style="clip-path:url(#SVGID_00000003789778646727954240000001888653656091682194_);fill:#F6BC00;" d="M128.8,503.9
					c0.3-0.1,0.7-0.3,0.9-0.4c0.9-6.3-0.7-20.5-1.9-29.3c-1.6-12-4-16.7-4.1-16.9l-0.4,0.3l-0.4,0.3l0,0c0,0,0,0,0,0
					c0.1,0.2,2.4,4.9,4,16.6C129,489,129.6,499.7,128.8,503.9"/>
				<path style="clip-path:url(#SVGID_00000003789778646727954240000001888653656091682194_);fill:#2A035E;" d="M45.3,425.4
					l-0.9-1.8l-0.2-0.4L44,423c0,0-0.3-0.2-0.8-0.4c-0.8-0.3-2.1-0.6-3.4-0.4l-0.4,0.1l-0.3,0.3l-19,23.7l-0.9,1.2l1.2,0.8l5.4,3.9
					l0.8,0.6l0.6-0.8l16.2-20.9l0.1-0.1l0.1-0.2l1.8-4.3l0.3-0.6L45.3,425.4z"/>
				<path style="clip-path:url(#SVGID_00000003789778646727954240000001888653656091682194_);fill:#F6BC00;" d="M44.4,426l-1.8,4.3
					l-16.2,20.9l-2.6-1.9l-2.7-2l2.5-3.1L40,423.6c0.4-0.1,0.7-0.1,1.1-0.1c0.5,0,0.9,0.1,1.3,0.2c0.7,0.2,1.2,0.5,1.2,0.5L44.4,426
					z"/>
				<path style="clip-path:url(#SVGID_00000003789778646727954240000001888653656091682194_);fill:#F6BC00;" d="M41,423.5
					l-16.4,21.4c0,0-0.5-0.3-1.1-0.8L40,423.6C40.3,423.5,40.7,423.5,41,423.5"/>
				<path style="clip-path:url(#SVGID_00000003789778646727954240000001888653656091682194_);fill:#5C3F9C;" d="M44.4,426l-1.8,4.3
					l-16.2,20.9l-2.6-1.9c0.4-0.7,0.8-1.4,1.4-2.1c3.1-3.8,13.6-18.4,17.2-23.4c0.7,0.2,1.2,0.5,1.2,0.5L44.4,426z"/>
				<path style="clip-path:url(#SVGID_00000003789778646727954240000001888653656091682194_);fill:#2A035E;" d="M14.4,467.1
					c0.4-3.5,0.7-7,0.7-7l0.2-1.9l-1.6,0.5c-0.1,0-2.6,0.8-4.4,4.5c-1.6,3.4-3.1,22-3.2,24.1L5.5,495l2.7-7c1.9-5,4.9-12.6,5.1-13.1
					C13.5,474.7,13.6,474.5,14.4,467.1"/>
				<path style="clip-path:url(#SVGID_00000003789778646727954240000001888653656091682194_);fill:#F6BC00;" d="M12.4,474.4
					c-0.3,0.6-5.2,13.1-5.2,13.1s0.2-2.2,0.4-5.2l0,0c0-0.2,0-0.5,0.1-0.7c0.6-6.3,1.6-15.5,2.6-17.7c1-2.2,2.4-3.2,3.1-3.7
					c0,0,0,0,0,0c0.1,0,0.2-0.1,0.2-0.1c0.1,0,0.1,0,0.1,0c0.2-0.1,0.3-0.1,0.3-0.1s0,0,0,0.1C14,460.9,12.6,473.8,12.4,474.4"/>
				<path style="clip-path:url(#SVGID_00000003789778646727954240000001888653656091682194_);fill:#212327;" d="M12.4,474.4
					c-0.3,0.6-5.2,13.1-5.2,13.1s0.2-2.2,0.4-5.2l0,0c0.7-4,3.4-18.2,4.2-19.9c0.7-1.6,1.6-2.2,1.8-2.4c0.1,0,0.1,0,0.1,0l0.3-0.1
					C14,460.9,12.6,473.8,12.4,474.4"/>
				<path style="clip-path:url(#SVGID_00000003789778646727954240000001888653656091682194_);fill:#2A035E;" d="M29.1,504.2
					c0.8-9.1,1.9-22.8,2.1-24.2c0.1-0.2,0.2-0.6,0.4-1c0.6-1.5,1.6-3.9,2.3-6.1c0.4-1.3,0.8-2.3,0.9-3c0.3-1.2,0.4-2.1-0.2-2.7
					c-0.7-0.8-4.2-4.7-4.8-5.4l-3.5-6.2l-0.1-0.2l-0.1-0.1c-0.1-0.1-0.4-0.3-0.8-0.6c0.7,0,1.3-0.3,1.9-0.7c1.5-1.3,1.7-3.9,1.7-4.1
					l0-0.3l-0.1-0.3c0,0-2-4.3-2.1-7.7l-0.1-2.9l-1.8,2.1c-0.2,0.2-4.9,5.6-7.5,10.1c-2.9,4.9-4.1,10.8-4.6,13.2
					c-0.5,2.8-3.8,14.9-4.6,17.3c-0.7,2.3-2.9,12.4-2.9,13.8c0,0.3,0.1,1.1,2,4.4c0.2,0.3,1.8,3.1,2.6,3.9c0.3,0.3,0.6,0.5,1,0.7
					c1.1,0.4,3.2,0.5,5.7-3.1c0.4,1.9,1.6,3.2,3.6,4c0.7,0.3,1.5,0.5,2.5,0.7c3.8,0.7,5.8-0.5,6-0.6l0.4-0.3L29.1,504.2z"/>
				<path style="clip-path:url(#SVGID_00000003789778646727954240000001888653656091682194_);fill:#5C3F9C;" d="M27.8,449.7
					c0,0-0.2,4.3-3.1,3.8c-2.9-0.6-3.8,3.2-3.8,3.2c1.9-1.7,3.4-1.2,4.1-0.8l-0.4,0.8c-0.1,0.2-2.6,5.1-4.2,17.3
					c-0.7,4.9-1.5,12.2-1.9,18.5c-0.3,4.8-0.3,8-0.1,10.1c-0.6-0.7-0.9-1.6-0.9-2.8c-0.2-3.1,2-22.5,2.8-29.2
					c0.8-6.7,0.6-15.3-0.1-11.2C19.5,463.5,18,470,18,470s-5.4,22.4-6.2,25.5c-0.8,3-0.9,6.3,0.4,6.6c1.3,0.3,3.6-2.2,3.8-2.4
					c-2.5,4.1-4.7,3.7-5.5,2.9c-0.3-0.3-0.9-1.2-1.6-2.3l0,0c-0.8-1.2-1.6-2.6-2.1-3.7c-0.3-0.7-0.5-1.2-0.5-1.4
					c-0.1-1.1,2-10.9,2.8-13.4c0.8-2.5,4.1-14.7,4.6-17.5c0.5-2.8,1.8-8.3,4.4-12.8c2.5-4.2,6.9-9.4,7.4-9.9c0,0,0,0,0,0
					c0,0,0,0,0,0C25.7,445.2,27.8,449.7,27.8,449.7"/>
				<path style="clip-path:url(#SVGID_00000003789778646727954240000001888653656091682194_);fill:#F6BC00;" d="M25.5,441.6
					c-0.6,0.8-8.8,13.1-10.1,20c-1.3,6.6-6,30.3-8.5,35c-0.3-0.7-0.5-1.2-0.5-1.4c-0.1-1.1,2-10.9,2.8-13.4
					c0.8-2.5,4.1-14.7,4.6-17.5c0.5-2.8,1.8-8.3,4.4-12.8C20.6,447.3,25,442.1,25.5,441.6"/>
				<path style="clip-path:url(#SVGID_00000003789778646727954240000001888653656091682194_);fill:#F6BC00;" d="M123.9,441.8
					c0.6,0.8,8.8,13.1,10.1,20c1.3,6.6,6,30.3,8.5,35c0.3-0.7,0.5-1.2,0.5-1.4c0.1-1.1-2-10.9-2.8-13.4c-0.8-2.5-4.1-14.7-4.6-17.5
					c-0.5-2.8-1.8-8.3-4.4-12.8C128.8,447.4,124.4,442.3,123.9,441.8"/>
				<path style="clip-path:url(#SVGID_00000003789778646727954240000001888653656091682194_);fill:#F6BC00;" d="M20.5,503.9
					c-0.3-0.1-0.7-0.3-0.9-0.4c-0.9-6.3,0.7-20.5,1.9-29.3c1.6-12,4-16.7,4.1-16.9l0.4,0.3l0.4,0.3l0,0c0,0,0,0,0,0
					c-0.1,0.2-2.4,4.9-4,16.6C20.4,489,19.8,499.7,20.5,503.9"/>
				<path style="clip-path:url(#SVGID_00000003789778646727954240000001888653656091682194_);fill:#2A035E;" d="M37.2,465.3
					c-1.1,3.1-2,6.2-2.9,9.4c-0.9,3.2-1.6,6.3-2.3,9.6c-0.4,1.6-0.6,3.2-0.9,4.8c-0.2,1.6-0.5,3.2-0.7,4.9c-0.5,3.3-0.7,6.6-0.9,9.9
					c-0.2-3.3-0.3-6.7,0-10l0.1-1.3c0-0.4,0.1-0.8,0.1-1.2l0.3-2.5c0.1-0.8,0.3-1.6,0.4-2.5c0.1-0.8-1.3-1.4-1.1-2.2
					c0.3-1.6,0.6-3.5,1-5.2l1.1-2.7c0.2-0.8-1.1-1.7-0.9-2.5C31.6,470.6,35.7,468.1,37.2,465.3"/>
				<path style="clip-path:url(#SVGID_00000003789778646727954240000001888653656091682194_);fill:#2A035E;" d="M112.3,465.3
					c1.5,2.8,2.7,5.9,3.8,9c0.3,0.8,1.7,1.6,1.9,2.4l0.7,2.4c0.4,1.6,0.8,3.2,1.1,4.9c0.2,0.8-0.8,1.6-0.7,2.5
					c0.1,0.8,0.3,1.6,0.4,2.5l0.3,2.5c0,0.4,0.1,0.8,0.1,1.2l0.1,1.3c0.3,3.3,0.3,6.7,0,10c-0.3-3.3-0.5-6.6-0.9-9.9
					c-0.2-1.6-0.5-3.3-0.7-4.9c-0.3-1.6-0.5-3.2-0.9-4.8c-0.6-3.2-1.4-6.4-2.3-9.6C114.3,471.5,113.4,468.4,112.3,465.3"/>
				<path style="clip-path:url(#SVGID_00000003789778646727954240000001888653656091682194_);fill:#FCAD1F;" d="M100.4,490.9
					c-0.5,1.5-1.7,8.3-2,9.8c-0.3,1.5-0.7,8.8-0.7,8.8s0,0,0,0l-0.8,1l-14.8,18.1c0,0-11.7,0.2-14.5,0c-0.3,0-0.5,0-0.6-0.1
					c0,0-0.1,0-0.1-0.1c-0.1-0.1-0.3-0.2-0.5-0.4c0,0-0.1-0.1-0.1-0.1c0,0-0.1-0.1-0.2-0.1c-3.2-3.1-13.9-14.4-14.1-14.9
					c-0.2-0.5-4.2-22.4-4.1-24.4c0,0,0,0,0,0c0,0.1,0.3,0.4,0.7,0.9c1.4,1.8,4.6,5.6,5.9,6.3c1.6,0.9,18.8,7.2,19.8,7.6c0,0,0,0,0,0
					s0,0,0.1,0h0c1.1-0.3,18.2-5.2,19.4-6.6c1.2-1.4,4.8-9,5.1-9.6l0,0c0,0,0,0,0,0c0,0,0.2,0.2,0.4,0.6
					C99.9,488.3,100.7,489.8,100.4,490.9"/>
				<g style="opacity:0.5;clip-path:url(#SVGID_00000003789778646727954240000001888653656091682194_);">
					<g>
						<defs>
							<rect id="SVGID_00000065792762793517755710000014530935673386882959_" x="48" y="487" width="52.5" height="41.6"/>
						</defs>
						<clipPath id="SVGID_00000007403673153443293970000008765975988605682855_">
							<use xlink:href="#SVGID_00000065792762793517755710000014530935673386882959_"  style="overflow:visible;"/>
						</clipPath>
						<path style="clip-path:url(#SVGID_00000007403673153443293970000008765975988605682855_);fill:#0A0700;" d="M100.4,490.9
							c-0.5,1.5-1.7,8.3-2,9.8c-0.3,1.5-0.7,8.8-0.7,8.8s0,0,0,0l-0.8,1l-14.8,18.1c0,0-11.7,0.2-14.5,0c-0.3,0-0.5,0-0.6-0.1
							c0,0-0.1,0-0.1-0.1c-0.1-0.1-0.3-0.2-0.5-0.4c0,0-0.1-0.1-0.1-0.1c0,0-0.1-0.1-0.2-0.1c-3.2-3.1-13.9-14.4-14.1-14.9
							c-0.2-0.5-4.2-22.4-4.1-24.4c0,0,0,0,0,0c0.1,0.3,4.7,10.3,9.9,15.3c5.3,5,15.4,4.2,15.4,4.2l-8.2,3.2c0,0,5.4,7.1,15.9,1.2
							c10.3-5.8,15.8-15.5,18-25.2c0,0,0.2,0.2,0.4,0.6C99.9,488.3,100.7,489.8,100.4,490.9"/>
					</g>
				</g>
				<path style="clip-path:url(#SVGID_00000003789778646727954240000001888653656091682194_);fill:#FCAD1F;" d="M68.9,485.2
					c0,0-8.2-4.2-14.9-0.8C54,484.4,57.3,489.2,68.9,485.2"/>
				<path style="clip-path:url(#SVGID_00000003789778646727954240000001888653656091682194_);fill:#FCAD1F;" d="M78.8,485.2
					c0,0,8.2-4.2,14.9-0.8C93.7,484.4,90.4,489.2,78.8,485.2"/>
				<g style="opacity:0.5;clip-path:url(#SVGID_00000003789778646727954240000001888653656091682194_);">
					<g>
						<defs>
							<rect id="SVGID_00000172400136043350489730000013489070707988953222_" x="18.9" y="625.3" width="13.5" height="20.3"/>
						</defs>
						<clipPath id="SVGID_00000036949461016835128420000012677077022004818318_">
							<use xlink:href="#SVGID_00000172400136043350489730000013489070707988953222_"  style="overflow:visible;"/>
						</clipPath>
					</g>
				</g>
				<g style="opacity:0.5;clip-path:url(#SVGID_00000003789778646727954240000001888653656091682194_);">
					<g>
						<defs>
							<path id="SVGID_00000035524015688164072480000011982868849703360687_" d="M145.1,640.8"/>
						</defs>
						<defs>
							<line id="SVGID_00000120545930491990749020000010226026479352908438_" x1="137.3" y1="640.8" x2="137.3" y2="644.2"/>
						</defs>
						<clipPath id="SVGID_00000038375228876135025470000015594447070774782127_">
							<use xlink:href="#SVGID_00000035524015688164072480000011982868849703360687_"  style="overflow:visible;"/>
						</clipPath>
						
							<clipPath id="SVGID_00000018204113106626143460000012379713239987731336_" style="clip-path:url(#SVGID_00000038375228876135025470000015594447070774782127_);">
							<use xlink:href="#SVGID_00000120545930491990749020000010226026479352908438_"  style="overflow:visible;"/>
						</clipPath>
					</g>
				</g>
				<g style="opacity:0.5;clip-path:url(#SVGID_00000003789778646727954240000001888653656091682194_);">
					<g>
						<defs>
							<rect id="SVGID_00000047781179047772248750000003761829681826984628_" x="78.3" y="645" width="6.7" height="2.9"/>
						</defs>
						<clipPath id="SVGID_00000073692353361696336210000011630382943440492716_">
							<use xlink:href="#SVGID_00000047781179047772248750000003761829681826984628_"  style="overflow:visible;"/>
						</clipPath>
					</g>
				</g>
				<g style="opacity:0.5;clip-path:url(#SVGID_00000003789778646727954240000001888653656091682194_);">
					<g>
						<defs>
							<path id="SVGID_00000043425269613881822410000018137776363658400433_" d="M91,648.3"/>
						</defs>
						<clipPath id="SVGID_00000174582212723332315510000014404712920506105019_">
							<use xlink:href="#SVGID_00000043425269613881822410000018137776363658400433_"  style="overflow:visible;"/>
						</clipPath>
					</g>
				</g>
				<g style="opacity:0.5;clip-path:url(#SVGID_00000003789778646727954240000001888653656091682194_);">
					<g>
						<defs>
							<rect id="SVGID_00000010283879067972000490000007046749376101882514_" x="92.7" y="633.8" width="7.8" height="2.6"/>
						</defs>
						<clipPath id="SVGID_00000132787556731899634120000008630287532368131990_">
							<use xlink:href="#SVGID_00000010283879067972000490000007046749376101882514_"  style="overflow:visible;"/>
						</clipPath>
					</g>
				</g>
				<g style="opacity:0.5;clip-path:url(#SVGID_00000003789778646727954240000001888653656091682194_);">
					<g>
						<defs>
							<rect id="SVGID_00000073687540039118904890000017899699870948899240_" x="107.6" y="634.2" width="7.8" height="2.6"/>
						</defs>
						<clipPath id="SVGID_00000018928612721540575740000001544893894041244857_">
							<use xlink:href="#SVGID_00000073687540039118904890000017899699870948899240_"  style="overflow:visible;"/>
						</clipPath>
					</g>
				</g>
				<g style="opacity:0.5;clip-path:url(#SVGID_00000003789778646727954240000001888653656091682194_);">
					<g>
						<defs>
							<rect id="SVGID_00000151508593189767840000000012744236260854213818_" x="122.5" y="634.7" width="7.8" height="2.6"/>
						</defs>
						<clipPath id="SVGID_00000016070858648002617910000009309415616936035736_">
							<use xlink:href="#SVGID_00000151508593189767840000000012744236260854213818_"  style="overflow:visible;"/>
						</clipPath>
					</g>
				</g>
				<g style="opacity:0.5;clip-path:url(#SVGID_00000003789778646727954240000001888653656091682194_);">
					<g>
						<defs>
							<rect id="SVGID_00000166660376980543833030000012378720307758856105_" x="117.6" y="619" width="6" height="3.2"/>
						</defs>
						<clipPath id="SVGID_00000088109362613370432230000007534563211979912375_">
							<use xlink:href="#SVGID_00000166660376980543833030000012378720307758856105_"  style="overflow:visible;"/>
						</clipPath>
					</g>
				</g>
				<g style="opacity:0.5;clip-path:url(#SVGID_00000003789778646727954240000001888653656091682194_);">
					<g>
						<defs>
							<rect id="SVGID_00000047762631945915990420000006383958690171891869_" x="132.7" y="622.8" width="5.7" height="4.1"/>
						</defs>
						<clipPath id="SVGID_00000008110676983640928350000001982887553475300231_">
							<use xlink:href="#SVGID_00000047762631945915990420000006383958690171891869_"  style="overflow:visible;"/>
						</clipPath>
					</g>
				</g>
				<path style="clip-path:url(#SVGID_00000003789778646727954240000001888653656091682194_);fill:#2A035E;" d="M36.9,609.9
					c1.1,0.7,2.1,1.3,3.2,2C39.1,611,38,610.4,36.9,609.9z"/>
				<path style="clip-path:url(#SVGID_00000003789778646727954240000001888653656091682194_);fill:#2A035E;" d="M27.3,603.2
					c1.5,1.3,3.1,2.5,4.7,3.6c-0.4-1.3-0.9-2.5-1.6-3.7c-0.2-0.3-0.5-0.6-0.9-0.7l-0.2-0.1c-0.1,0-0.1-0.1-0.2-0.1
					c-0.1,0-0.1-0.1-0.2-0.1c-0.1,0-0.2-0.1-0.3-0.1c-0.1,0-0.1-0.1-0.2-0.1c-0.1,0-0.2-0.1-0.3-0.1c-0.1,0-0.1-0.1-0.2-0.1
					c-0.1,0-0.2-0.1-0.3-0.1c-0.1,0-0.1,0-0.2-0.1c-0.1,0-0.2-0.1-0.3-0.1c-0.1,0-0.1,0-0.2-0.1c-0.1,0-0.2,0-0.3-0.1
					c-0.1,0-0.1,0-0.2,0c-0.1,0-0.2,0-0.4,0c-0.1,0-0.1,0-0.2,0c-0.1,0-0.3,0-0.4,0C25.9,601.9,26.6,602.5,27.3,603.2z"/>
				<g style="opacity:0.5;clip-path:url(#SVGID_00000003789778646727954240000001888653656091682194_);">
					<g>
						<defs>
							<rect id="SVGID_00000135679360144437203300000014977405556675495867_" x="23.1" y="617.4" width="6" height="3.4"/>
						</defs>
						<clipPath id="SVGID_00000144306591727662591880000012741455646699598773_">
							<use xlink:href="#SVGID_00000135679360144437203300000014977405556675495867_"  style="overflow:visible;"/>
						</clipPath>
					</g>
				</g>
				<g style="opacity:0.5;clip-path:url(#SVGID_00000003789778646727954240000001888653656091682194_);">
					<g>
						<defs>
							<rect id="SVGID_00000176042957790757943930000002012789258816107422_" x="8.1" y="620.3" width="5.8" height="3.9"/>
						</defs>
						<clipPath id="SVGID_00000055667644952959200780000015062840473714569146_">
							<use xlink:href="#SVGID_00000176042957790757943930000002012789258816107422_"  style="overflow:visible;"/>
						</clipPath>
					</g>
				</g>
				<path style="clip-path:url(#SVGID_00000003789778646727954240000001888653656091682194_);fill:#D6D6D6;" d="M-28.7,689.7"/>
				<path style="clip-path:url(#SVGID_00000003789778646727954240000001888653656091682194_);fill:#D6D6D6;" d="M29.2,681.8"/>
				<path style="clip-path:url(#SVGID_00000003789778646727954240000001888653656091682194_);fill:#D6D6D6;" d="M15.3,724.2"/>
				<path style="clip-path:url(#SVGID_00000003789778646727954240000001888653656091682194_);fill:#D6D6D6;" d="M85.7,721.8"/>
				<path style="clip-path:url(#SVGID_00000003789778646727954240000001888653656091682194_);fill:#2A035E;" d="M41.8,601.1
					c0.9-0.2,1.9-0.4,2.8-0.6c0.9-0.2,1.7-0.8,2-1.5c0.2-0.5,0.4-1,0.6-1.5c0.2-0.1,0.5-0.2,0.7-0.3c0.8-0.5,1.7-1,2.5-1.5
					c-0.3,0.6-0.5,1.2-0.8,1.9c-0.2,0.5-0.2,1.1,0.2,1.4c0.3,0.4,0.9,0.5,1.5,0.4c1.8-0.3,3.7-0.5,5.5-0.8c0.3,0,0.5-0.1,0.8-0.2
					c0.2,0.1,0.5,0.1,0.8,0c0.8-0.1,1.5-0.2,2.3-0.2c0.1,0,0.2,0,0.2,0c0.2,0.3,0.4,0.6,0.8,0.7c0.3,0.1,0.6,0.2,1,0.1
					c0.3,0,0.6-0.1,0.9-0.3c0.7-0.3,1.4-0.7,2.1-1c0.2,0,0.4,0.1,0.6,0c0.8,0,1.5-0.1,2.3-0.1c0.9,0,1.6-0.5,1.9-1.2
					c0.1-0.3,0.2-0.6,0.4-1c0.2,0,0.3-0.1,0.5-0.2c0.4-0.2,0.9-0.4,1.3-0.6c-0.1,0.2-0.2,0.5-0.3,0.7c-0.2,0.5-0.1,1.1,0.3,1.5
					c0.4,0.4,1,0.7,1.6,0.7c0.8,0,1.5,0,2.3,0c0.3,0,0.6-0.1,0.9-0.2c0.3,0.1,0.6,0.2,0.9,0.2c0.8,0,1.5,0,2.3,0.1
					c0.3,0,0.5,0,0.8-0.1c0.2,0.1,0.5,0.2,0.8,0.2c1.8,0.1,3.7,0.2,5.5,0.4c0.4,0,0.7,0,1-0.1c0.3,0.2,0.7,0.3,1.1,0.4
					c1.8,0.2,3.7,0.4,5.5,0.7c0.6,0.1,1.2-0.1,1.5-0.4c0.4,0.5,1,0.8,1.6,0.9c0.8,0.1,1.5,0.3,2.3,0.4c0.9,0.2,1.6-0.2,1.8-0.8
					c0.5-1.6,1-3.3,1.5-4.9c0.4,0.1,0.9,0.2,1.3,0.3c0.8,0.2,1.5-0.1,1.7-0.8c0.2-0.8,0.4-1.6,0.7-2.4c0.1-0.5,0-1-0.4-1.6
					c-0.4-0.5-1-0.9-1.6-1c-0.2-0.1-0.5-0.1-0.7-0.2c0-0.1,0.1-0.1,0.1-0.2c0.4-0.9,0.9-1.8,1.3-2.7c0.2-0.5,0.1-1.1-0.3-1.6
					c-0.4-0.6-1-1-1.6-1.1c-0.8-0.2-1.6-0.3-2.4-0.5c0.8-1.6,1.5-3.1,2.2-4.7c0.2-0.5,0.1-1.1-0.3-1.6c-0.4-0.6-1-1-1.6-1.1
					c-1.9-0.4-3.8-0.8-5.7-1.1c-0.1,0-0.2,0-0.2,0c-0.1,0-0.2,0-0.2-0.1c-3.6-0.6-7.3-1-10.9-1.3c0,0-0.1,0-0.1,0
					c-1.3-0.1-2.7-0.2-4-0.3c-0.5,0-0.9,0.1-1.3,0.4c-0.2,0.2-0.5,0.4-0.7,0.6c0-0.2,0-0.5-0.1-0.7c0-0.5-0.4-1-0.8-1.3
					c-0.3-0.2-0.7-0.3-1-0.3c-0.2,0-0.4,0-0.6,0.1c-1.3,0.4-2.6,0.8-3.9,1.2c-0.1,0-0.2,0.1-0.3,0.1c-0.3-0.2-0.7-0.3-1-0.3
					c-1.3,0-2.5,0.1-3.8,0.1c0-0.1,0-0.1,0-0.2c0-0.4-0.1-0.7-0.3-1.1l0,0c-0.1-0.2-0.3-0.4-0.4-0.5c0,0,0,0,0,0
					c-0.2-0.2-0.5-0.4-0.8-0.5c0,0,0,0,0,0c-0.4-0.1-0.7-0.2-1.1-0.2c-4.7,0.3-9.4,0.9-14,1.7c-0.7,0.1-1.3,0.6-1.7,1.2
					c-0.3,0.6-0.3,1.3,0.1,1.7c0.3,0.3,0.5,0.6,0.8,0.9c-2.1,3.8-4.2,7.7-6.4,11.6c-0.2,0.3-0.2,0.6-0.3,0.8c-0.1,0.4-0.1,0.7,0.1,1
					c0.2,0.3,0.3,0.6,0.5,0.8c-1.4,3.3-2.7,6.5-4.2,9.8c-0.2,0.6-0.2,1.1,0.1,1.4C40.6,601.1,41.2,601.2,41.8,601.1z"/>
				<path style="clip-path:url(#SVGID_00000003789778646727954240000001888653656091682194_);fill:#2A035E;" d="M94.3,581.2
					c0,0.1-0.1,0.1-0.1,0.2c0,0-0.1-0.1-0.1-0.1C94.1,581.2,94.2,581.2,94.3,581.2"/>
				<path style="clip-path:url(#SVGID_00000003789778646727954240000001888653656091682194_);fill:#FCAD1F;" d="M50.5,586.3
					c0.9-1.6,1.8-3.2,2.7-4.8c-0.1-0.5-0.1-1-0.2-1.6c0.5-0.3,1-0.6,1.5-0.9c0.8-1.4,1.6-2.9,2.4-4.3c1.2-0.2,2.4-0.3,3.7-0.4
					c-0.7,1.2-1.3,2.5-2,3.7c-1.5,0.6-3,1.3-4.4,2c0.1,0.9,0.2,1.8,0.3,2.6c2.7-1.2,5.3-2.4,7.9-3.4c1.3-2.4,2.6-4.7,3.8-7.1
					c0,0,0,0,0-0.1c0-0.1,0-0.1-0.1-0.2c-0.1-0.1-0.1-0.2-0.2-0.2c-0.1-0.1-0.2-0.1-0.3-0.2c-0.1,0-0.2-0.1-0.4-0.1
					c-4.7,0.3-9.4,0.9-14.1,1.7c0.5,0.5,1,1.1,1.5,1.6c-2.2,4.1-4.5,8.3-6.9,12.6C47.2,586.9,48.8,586.6,50.5,586.3z"/>
				<path style="clip-path:url(#SVGID_00000003789778646727954240000001888653656091682194_);fill:#FCAD1F;" d="M65.8,584.5
					c2-3.6,4-7.2,5.8-10.8c-1.9,0-3.9,0.1-5.8,0.2c0.4,0.5,0.8,0.9,1.2,1.4c-1.7,3.1-3.4,6.3-5.2,9.5
					C63.3,584.7,64.6,584.6,65.8,584.5z"/>
				<path style="clip-path:url(#SVGID_00000003789778646727954240000001888653656091682194_);fill:#FCAD1F;" d="M72,584.3
					c1-0.8,1.9-1.7,2.8-2.5c-0.1-1-0.3-2-0.4-3c1.1-0.9,2.3-1.8,3.4-2.6c-0.1-1.2-0.2-2.4-0.3-3.6c-1.3,0.4-2.6,0.8-3.9,1.2
					c0,1.8,0.1,3.6,0.1,5.4c-1.9,1.7-3.9,3.5-5.9,5.3C69.2,584.4,70.6,584.3,72,584.3z"/>
				<path style="clip-path:url(#SVGID_00000003789778646727954240000001888653656091682194_);fill:#FCAD1F;" d="M80.2,584.3
					c-0.1-1.8-0.2-3.6-0.2-5.4c1.9-1.6,3.8-3.2,5.6-4.8c-1.4-0.1-2.7-0.2-4.1-0.3c-2,1.7-4.1,3.4-6.2,5.2c0.2,2.1,0.5,4.3,0.7,6.4
					C77.4,585,78.8,584.7,80.2,584.3z"/>
				<path style="clip-path:url(#SVGID_00000003789778646727954240000001888653656091682194_);fill:#FCAD1F;" d="M91.6,585.3
					c0.5-0.9,1-1.9,1.5-2.8c-1.3-0.2-2.5-0.3-3.8-0.5c-0.2,0.3-0.3,0.6-0.5,0.9c-0.5-0.1-1.1-0.1-1.6-0.2c0.4-0.7,0.7-1.5,1.1-2.2
					c0.5,0.1,1,0.1,1.6,0.2c1.4-0.5,2.9-1,4.3-1.5c-1.6-0.2-3.2-0.4-4.8-0.6c0.3-0.7,0.7-1.4,1-2c0.5,0.1,1,0.1,1.5,0.2
					c-0.2,0.3-0.3,0.6-0.5,0.9c1.3,0.2,2.5,0.3,3.8,0.5c0.5-0.9,0.9-1.9,1.4-2.8c-3.7-0.6-7.4-1-11-1.3c0.4,0.5,0.9,1.1,1.3,1.6
					c-1.5,2.9-3,5.8-4.6,8.8C85.4,584.7,88.5,584.9,91.6,585.3z"/>
				<path style="clip-path:url(#SVGID_00000003789778646727954240000001888653656091682194_);fill:#FCAD1F;" d="M103.5,587.3
					c0.4-0.9,0.9-1.8,1.3-2.7c-1.3-0.3-2.5-0.5-3.8-0.8c-0.1,0.3-0.3,0.6-0.4,0.9c-0.5-0.1-1-0.2-1.6-0.3c1.3-2.6,2.5-5.2,3.7-7.7
					c-1.9-0.4-3.8-0.8-5.7-1.1c0.5,0.6,0.9,1.1,1.4,1.7c-1.3,2.8-2.7,5.6-4.2,8.4C97.3,586.1,100.4,586.6,103.5,587.3z"/>
				<path style="clip-path:url(#SVGID_00000003789778646727954240000001888653656091682194_);fill:#FCAD1F;" d="M44.8,598.8
					c0.6-1.4,1.1-2.7,1.7-4c0-0.4,0-0.9,0-1.3c0.3-0.2,0.6-0.5,0.9-0.7c0.5-1.2,1-2.4,1.5-3.7c0.7-0.1,1.4-0.3,2.1-0.4
					c-0.4,1.1-0.9,2.1-1.3,3.2c-0.9,0.6-1.8,1.1-2.6,1.7c0,0.8,0.1,1.5,0.1,2.3c1.6-1,3.2-2,4.7-2.9c0.8-2,1.7-4.1,2.5-6.1
					c0,0,0,0,0-0.1c0-0.1,0-0.1,0-0.2c0-0.1-0.1-0.1-0.1-0.2c0-0.1-0.1-0.1-0.2-0.1c-0.1,0-0.1,0-0.2,0c-2.8,0.4-5.5,0.9-8.3,1.5
					c0.3,0.5,0.5,0.9,0.8,1.4c-1.4,3.5-2.9,7-4.4,10.5C42.9,599.2,43.9,599,44.8,598.8z"/>
				<path style="clip-path:url(#SVGID_00000003789778646727954240000001888653656091682194_);fill:#FCAD1F;" d="M57,596.9
					c0.4-0.9,0.7-1.8,1.1-2.7c-0.7,0.1-1.5,0.2-2.2,0.3c-0.1,0.3-0.2,0.6-0.4,0.9c-0.3,0-0.6,0.1-0.9,0.1c0.3-0.7,0.6-1.4,0.8-2
					c0.3,0,0.6-0.1,0.9-0.1c0.9-0.7,1.8-1.4,2.7-2c-1,0.1-1.9,0.2-2.9,0.3c0.3-0.6,0.5-1.3,0.8-1.9c0.3,0,0.6-0.1,0.9-0.1
					c-0.1,0.3-0.2,0.6-0.3,0.9c0.7-0.1,1.5-0.2,2.2-0.2c0.4-0.9,0.7-1.8,1.1-2.7c-2.2,0.2-4.4,0.5-6.5,0.8c0.2,0.4,0.5,0.8,0.7,1.1
					c-1.1,2.7-2.2,5.4-3.3,8.2C53.3,597.3,55.2,597.1,57,596.9z"/>
				<path style="clip-path:url(#SVGID_00000003789778646727954240000001888653656091682194_);fill:#FCAD1F;" d="M60.8,596.5
					c0.4-1,0.8-2.1,1.2-3.1c0-0.4-0.1-0.7-0.1-1.1c0.2-0.2,0.5-0.3,0.7-0.5c0.4-0.9,0.7-1.9,1.1-2.8c0.6,0,1.2-0.1,1.7-0.1
					c-0.3,0.8-0.6,1.6-0.9,2.4c-0.7,0.4-1.4,0.7-2.1,1.1c0.1,1.6,0.2,3.2,0.4,4.8c0.8-0.4,1.6-0.8,2.4-1.2c-0.1-1-0.1-2.1-0.2-3.1
					c0.4-0.2,0.9-0.5,1.3-0.7c0.6-1.6,1.2-3.1,1.8-4.7c0,0,0,0,0-0.1c0-0.1,0-0.2-0.1-0.3c-0.1-0.1-0.2-0.2-0.3-0.2
					c-2.2,0.1-4.5,0.3-6.7,0.5c0.2,0.4,0.5,0.8,0.7,1.2c-1,2.7-2.1,5.3-3.2,8C59.3,596.6,60,596.5,60.8,596.5z"/>
				<path style="clip-path:url(#SVGID_00000003789778646727954240000001888653656091682194_);fill:#FCAD1F;" d="M68.7,595.9
					c0.4-1,0.8-2,1.2-3c0-0.4-0.1-0.7-0.1-1.1c0.2-0.2,0.5-0.3,0.7-0.5c0.3-0.9,0.7-1.8,1-2.7c0.6,0,1.2,0,1.7,0
					c-0.3,0.8-0.6,1.6-0.9,2.4c-0.7,0.3-1.4,0.7-2.1,1c0.1,0.6,0.1,1.2,0.2,1.8c1.2-0.6,2.5-1.2,3.7-1.8c0.6-1.5,1.1-3.1,1.7-4.6
					c0,0,0,0,0-0.1c0-0.1,0-0.2-0.1-0.3c-0.1-0.1-0.2-0.2-0.3-0.2c-2.2,0-4.5,0-6.7,0.1c0.2,0.4,0.5,0.8,0.7,1.2c-1,2.6-2,5.2-3,7.9
					C67.1,596,67.9,596,68.7,595.9z"/>
				<path style="clip-path:url(#SVGID_00000003789778646727954240000001888653656091682194_);fill:#FCAD1F;" d="M79.7,592.3
					c-0.4,1.2-0.9,2.4-1.3,3.6c0.8,0,1.5,0,2.3,0.1c1.1-2.9,2.1-5.9,3.1-8.8c-1.1-0.1-2.3-0.1-3.4-0.2c0.3,0.4,0.5,0.9,0.8,1.3
					c-0.3,0.8-0.5,1.6-0.8,2.3c-0.8,0-1.7-0.1-2.5-0.1c0.4,0.6,0.9,1.2,1.3,1.8C79.3,592.3,79.5,592.3,79.7,592.3z"/>
				<path style="clip-path:url(#SVGID_00000003789778646727954240000001888653656091682194_);fill:#FCAD1F;" d="M76.6,595.8
					c0.5-1.4,1-2.8,1.5-4.2c-0.4-0.5-0.8-1-1.2-1.5c0.6,0,1.1,0,1.7,0c0.4-1.1,0.8-2.2,1.2-3.2c-1.1,0-2.3-0.1-3.4-0.1
					c0.3,0.4,0.5,0.8,0.8,1.3c-0.9,2.6-1.9,5.1-2.8,7.7C75,595.8,75.8,595.8,76.6,595.8z"/>
				<path style="clip-path:url(#SVGID_00000003789778646727954240000001888653656091682194_);fill:#FCAD1F;" d="M87.7,596.4
					c0.3-0.8,0.6-1.7,0.9-2.5c-0.8-0.1-1.5-0.1-2.3-0.2c-0.1,0.3-0.2,0.5-0.3,0.8c-0.3,0-0.6,0-0.9-0.1c0.2-0.6,0.4-1.3,0.6-1.9
					c0.3,0,0.6,0,0.9,0.1c0.8-0.5,1.7-1,2.5-1.5c-1-0.1-1.9-0.2-2.9-0.3c0.2-0.6,0.4-1.2,0.6-1.8c0.3,0,0.6,0.1,0.9,0.1
					c-0.1,0.3-0.2,0.5-0.3,0.8c0.7,0.1,1.5,0.1,2.2,0.2c0.3-0.8,0.5-1.6,0.8-2.5c-2.2-0.2-4.4-0.4-6.5-0.6c0.3,0.4,0.5,0.9,0.8,1.3
					c-0.9,2.5-1.7,5-2.6,7.5C84,596.1,85.9,596.3,87.7,596.4z"/>
				<path style="clip-path:url(#SVGID_00000003789778646727954240000001888653656091682194_);fill:#FCAD1F;" d="M89.9,596.6
					c1.8,0.2,3.6,0.4,5.5,0.7c0.2-0.7,0.5-1.5,0.7-2.2c-0.6-0.5-1.2-1-1.9-1.5c-0.2,0.6-0.4,1.2-0.6,1.8c-0.5-0.1-1.1-0.1-1.6-0.2
					c0.6-1.8,1.1-3.5,1.7-5.3c0.5,0.1,1,0.1,1.6,0.2c-0.1,0.3-0.2,0.6-0.3,1c0.6,0.5,1.2,1,1.8,1.5c0.3-1.1,0.7-2.1,1-3.2
					c0,0,0,0,0-0.1c0-0.1-0.1-0.2-0.2-0.4c-0.1-0.1-0.2-0.2-0.3-0.2c-1.8-0.3-3.5-0.5-5.3-0.8c-0.9,2.7-1.8,5.4-2.7,8c0,0,0,0,0,0.1
					c0,0.1,0.1,0.2,0.2,0.4C89.6,596.6,89.7,596.6,89.9,596.6z"/>
				<path style="clip-path:url(#SVGID_00000003789778646727954240000001888653656091682194_);fill:#FCAD1F;" d="M100.5,591
					c-0.7,2.3-1.4,4.5-2.1,6.8c0.8,0.1,1.5,0.3,2.3,0.4c0.7-2.3,1.4-4.5,2-6.8c0.2,0,0.4,0.1,0.6,0.1c-0.1,0.3-0.2,0.5-0.2,0.8
					c0.7,0.1,1.5,0.3,2.2,0.5c0.2-0.8,0.5-1.6,0.7-2.4c-2.5-0.6-5.1-1.1-7.6-1.5c0.4,0.6,0.8,1.3,1.2,1.9
					C99.9,590.9,100.2,590.9,100.5,591z"/>
				<path style="clip-path:url(#SVGID_00000003789778646727954240000001888653656091682194_);fill:#D6D6D6;" d="M52.1,583.3
					c-1.6,0.3-3.2,0.5-4.8,0.8c-0.6,1-1.1,2-1.7,3.1c1.6-0.3,3.2-0.6,4.8-0.9C51,585.3,51.6,584.3,52.1,583.3z"/>
				<path style="clip-path:url(#SVGID_00000003789778646727954240000001888653656091682194_);fill:#D6D6D6;" d="M67.4,581.7
					c-1.3,0.1-2.6,0.1-3.8,0.2c-0.5,1-1.1,1.9-1.6,2.9c1.3-0.1,2.6-0.2,3.9-0.3C66.4,583.6,66.9,582.6,67.4,581.7z"/>
				<path style="clip-path:url(#SVGID_00000003789778646727954240000001888653656091682194_);fill:#D6D6D6;" d="M74.9,581.8l0-0.3
					c-1.3,0-2.6,0-3.8,0c-1.1,0.9-2.1,1.9-3.2,2.9c1.4-0.1,2.8-0.1,4.3-0.1C73,583.5,73.9,582.6,74.9,581.8z"/>
				<path style="clip-path:url(#SVGID_00000003789778646727954240000001888653656091682194_);fill:#D6D6D6;" d="M80.2,584.3
					c0-0.9-0.1-1.8-0.1-2.7c-1.5-0.1-3-0.1-4.4-0.1c0.2,1.3,0.3,2.6,0.5,3.9C77.4,585,78.8,584.7,80.2,584.3z"/>
				<path style="clip-path:url(#SVGID_00000003789778646727954240000001888653656091682194_);fill:#D6D6D6;" d="M92.9,582.7
					c-1.3-0.2-2.6-0.3-3.8-0.5c-0.1,0.2-0.2,0.4-0.3,0.7c-0.5-0.1-1.1-0.1-1.6-0.2c0.1-0.2,0.2-0.5,0.3-0.7
					c-1.3-0.1-2.6-0.2-3.8-0.3c-0.5,0.9-0.9,1.8-1.4,2.7c3.1,0.2,6.2,0.4,9.3,0.8C92,584.5,92.5,583.6,92.9,582.7z"/>
				<path style="clip-path:url(#SVGID_00000003789778646727954240000001888653656091682194_);fill:#D6D6D6;" d="M104.7,584.8
					c-1.3-0.3-2.5-0.5-3.8-0.8c-0.1,0.2-0.2,0.4-0.3,0.6c-0.5-0.1-1-0.2-1.6-0.3c0.1-0.2,0.2-0.4,0.3-0.6c-1.3-0.2-2.5-0.4-3.8-0.6
					c-0.4,0.8-0.9,1.7-1.3,2.5c3.1,0.4,6.2,1,9.3,1.6C103.9,586.5,104.3,585.6,104.7,584.8z"/>
				<path style="clip-path:url(#SVGID_00000003789778646727954240000001888653656091682194_);fill:#D6D6D6;" d="M46.1,595.8
					c-0.9,0.2-1.9,0.4-2.8,0.6c-0.4,1-0.9,2-1.3,3c0.9-0.2,1.9-0.4,2.8-0.6C45.2,597.8,45.6,596.8,46.1,595.8z"/>
				<path style="clip-path:url(#SVGID_00000003789778646727954240000001888653656091682194_);fill:#D6D6D6;" d="M58.1,594.2
					c-0.7,0.1-1.5,0.2-2.2,0.3c-0.1,0.3-0.2,0.6-0.4,0.9c-0.3,0-0.6,0.1-0.9,0.1c0.1-0.4,0.3-0.7,0.4-1.1c-0.7,0.1-1.5,0.2-2.2,0.3
					c-0.4,1-0.8,2-1.2,2.9c1.8-0.3,3.6-0.5,5.5-0.8C57.3,596,57.7,595.1,58.1,594.2z"/>
				<path style="clip-path:url(#SVGID_00000003789778646727954240000001888653656091682194_);fill:#D6D6D6;" d="M69.7,593.1
					c-0.8,0-1.5,0.1-2.3,0.1c-0.4,0.9-0.7,1.9-1.1,2.8c0.8,0,1.5-0.1,2.3-0.1C69,595,69.4,594.1,69.7,593.1z"/>
				<path style="clip-path:url(#SVGID_00000003789778646727954240000001888653656091682194_);fill:#D6D6D6;" d="M77.6,593.1
					c-0.8,0-1.5,0-2.3,0c-0.3,0.9-0.7,1.8-1,2.8c0.8,0,1.5,0,2.3,0C76.9,594.9,77.2,594,77.6,593.1z"/>
				<path style="clip-path:url(#SVGID_00000003789778646727954240000001888653656091682194_);fill:#D6D6D6;" d="M88.6,593.9
					c-0.8-0.1-1.5-0.1-2.3-0.2c-0.1,0.3-0.2,0.5-0.3,0.8c-0.3,0-0.6,0-0.9-0.1c0.1-0.3,0.2-0.7,0.3-1c-0.8-0.1-1.5-0.1-2.3-0.2
					c-0.3,0.9-0.6,1.8-1,2.7c1.8,0.1,3.7,0.2,5.5,0.4C88,595.6,88.3,594.8,88.6,593.9z"/>
				<path style="clip-path:url(#SVGID_00000003789778646727954240000001888653656091682194_);fill:#D6D6D6;" d="M89.9,596.6
					c1.8,0.2,3.6,0.4,5.5,0.7c0.2-0.7,0.5-1.5,0.7-2.2c-0.2-0.2-0.4-0.3-0.6-0.5c-0.5-0.1-1-0.1-1.5-0.2c-0.1,0.3-0.2,0.7-0.3,1
					c-0.5-0.1-1.1-0.1-1.6-0.2c0.1-0.3,0.2-0.7,0.3-1c-0.8-0.1-1.5-0.2-2.3-0.3c-0.2,0.7-0.5,1.4-0.7,2.1c0,0,0,0,0,0.1
					c0,0.1,0.1,0.2,0.2,0.4C89.6,596.6,89.7,596.6,89.9,596.6z"/>
			</g>
		</g>
	</g>
</g>
<g id="Left_Stick_00000173122579829904390550000017283677541540293019_">
	<g id="g202_00000101824270847788214840000001772035761409520291_">
		<path id="path200_00000043430731117826299890000010222569125031210415_" inkscape:connector-curvature="0" class="st30" d="
			M473,465.5c-37.3,0-67.7-30.4-67.7-67.7s30.4-67.7,67.7-67.7c37.3,0,67.7,30.4,67.7,67.7S510.4,465.5,473,465.5z"/>
	</g>
	<path id="path204_00000181087750524027264800000016891871133219733674_" inkscape:connector-curvature="0" class="st31" d="
		M529.2,393.9c0,31-25.1,56.1-56.1,56.1c-31,0-56.1-25.1-56.1-56.1c0-31,25.1-56.1,56.1-56.1C504,337.8,529.2,362.9,529.2,393.9z"/>
</g>
</svg>
