<?xml version="1.0" encoding="utf-8"?>
<!-- Generator: Adobe Illustrator 25.4.1, SVG Export Plug-In . SVG Version: 6.00 Build 0)  -->
<svg version="1.1" id="Layer_1" xmlns="http://www.w3.org/2000/svg" xmlns:xlink="http://www.w3.org/1999/xlink" x="0px" y="0px"
	 viewBox="0 0 168.8 83.4" style="enable-background:new 0 0 168.8 83.4;" xml:space="preserve">
<style type="text/css">
	.st0{fill:#FFFFFF;}
	.st1{fill:#C9C9C9;}
	.st2{opacity:6.000000e-02;}
	.st3{fill:#D6D6D6;}
	.st4{fill:#E5E5E5;}
	.st5{fill:#BFBFBF;}
	.st6{fill:#D9D9D9;}
	.st7{fill:#DEDEDE;}
</style>
<g>
	<g>
		<path class="st0" d="M168.8,41.7c0,23-18.7,41.7-41.7,41.7S85.4,64.7,85.4,41.7C85.4,18.7,104,0,127.1,0
			C150.1,0,168.8,18.7,168.8,41.7z"/>
		<path class="st1" d="M127.1,0C127.1,0,127,0,127.1,0C127,0,127,0,127.1,0C127,0,127,0,127.1,0C127,0,127,0,127.1,0
			C127,0,127,0,127.1,0C127,0,127,0,127.1,0L127.1,0L127.1,0L127.1,0L127.1,0L127.1,0L127.1,0L127.1,0L127.1,0L127.1,0L127.1,0
			L127.1,0L127.1,0L127.1,0L127.1,0L127.1,0L127.1,0L127.1,0L127.1,0L127.1,0L127.1,0L127.1,0L127.1,0L127.1,0L127.1,0L127.1,0
			L127.1,0L127.1,0L127.1,0L127.1,0L127.1,0L127.1,0L127.1,0L127.1,0L127.1,0L127.1,0L127.1,0L127.1,0L127.1,0L127.1,0L127.1,0
			L127.1,0L127.1,0L127.1,0L127.1,0L127.1,0c-0.2,0-0.2,0-0.2,0l0,0l0,0l0,0l0,0l0,0l0,0l0,0l0,0l0,0l0,0l0,0l0,0l0,0c0,0,0,0-0.1,0
			l0,0c-0.2,0-0.5,0-0.7,0l0.9,20c0.3,0,0.7,0,1.1,0L127.1,0L127.1,0L127.1,0z M123.1,0.2c-0.1,0-0.1,0-0.2,0l0,0l0,0l0,0l0,0l0,0
			l0,0l0,0l0,0l0,0l0,0c-0.6,0.1-1.1,0.1-1.7,0.2l2.8,19.8c0.3,0,0.7-0.1,1-0.1L123.1,0.2L123.1,0.2z M119.1,0.8L119.1,0.8
			C119,0.8,119,0.8,119.1,0.8C119,0.8,119,0.8,119.1,0.8L119.1,0.8L119.1,0.8L119.1,0.8L119.1,0.8L119.1,0.8L119.1,0.8L119.1,0.8
			L119.1,0.8L119.1,0.8L119.1,0.8L119.1,0.8L119.1,0.8L119.1,0.8L119.1,0.8L119.1,0.8L119.1,0.8L119.1,0.8L119.1,0.8L119.1,0.8
			L119.1,0.8L119.1,0.8L119.1,0.8L119.1,0.8L119.1,0.8L119.1,0.8L119.1,0.8c-0.6,0.1-1.1,0.2-1.5,0.3l4.7,19.4
			c0.3-0.1,0.7-0.2,1-0.2L119.1,0.8L119.1,0.8z M115.2,1.7c-0.3,0.1-0.5,0.2-0.8,0.2l0,0c0,0,0,0-0.1,0l0,0c0,0,0,0-0.1,0l0,0
			c0,0,0,0-0.1,0c-0.3,0.1-0.6,0.2-0.9,0.3l6.6,18.9c0.3-0.1,0.7-0.2,1-0.3L115.2,1.7L115.2,1.7z M111.5,3c-0.6,0.2-1.2,0.5-1.8,0.8
			L118,22c0.3-0.1,0.6-0.3,0.9-0.4L111.5,3L111.5,3z M107.8,4.7c-0.6,0.3-1.2,0.6-1.8,1L116.1,23c0.3-0.2,0.6-0.3,0.9-0.5L107.8,4.7
			L107.8,4.7z M104.4,6.7c-0.6,0.4-1.1,0.7-1.7,1.1L114.4,24c0.3-0.2,0.6-0.4,0.9-0.6L104.4,6.7L104.4,6.7z M101.1,9.1
			c-0.5,0.4-1,0.8-1.5,1.3l13.2,15c0.3-0.2,0.5-0.5,0.8-0.7L101.1,9.1L101.1,9.1z M98.1,11.7c-0.3,0.3-0.6,0.6-0.8,0.8l0,0l0,0l0,0
			l0,0l0,0l0,0l0,0l0,0l0,0l0,0l0,0l0,0c-0.1,0.2-0.3,0.3-0.4,0.5l14.6,13.7c0.2-0.3,0.5-0.5,0.7-0.7L98.1,11.7L98.1,11.7z
			 M95.4,14.6L95.4,14.6L95.4,14.6L95.4,14.6C95.4,14.6,95.3,14.6,95.4,14.6C95.3,14.7,95.3,14.7,95.4,14.6
			C95.3,14.7,95.3,14.7,95.4,14.6C95.3,14.7,95.3,14.7,95.4,14.6C95.3,14.7,95.3,14.7,95.4,14.6c-0.1,0.1-0.1,0.1-0.1,0.1l0,0l0,0
			l0,0l0,0l0,0l0,0c-0.4,0.4-0.7,0.9-1.1,1.4l0,0L110,28.4c0.2-0.3,0.4-0.5,0.7-0.8L95.4,14.6L95.4,14.6z M92.9,17.8
			c-0.1,0.1-0.1,0.2-0.2,0.2l0,0l0,0l0,0l0,0c-0.3,0.5-0.6,0.9-0.9,1.4l16.9,10.7c0.2-0.3,0.4-0.6,0.6-0.9L92.9,17.8L92.9,17.8z
			 M90.8,21.1c-0.2,0.3-0.3,0.5-0.5,0.8l0,0l0,0c-0.2,0.3-0.3,0.6-0.5,0.9l17.8,9c0.2-0.3,0.3-0.6,0.5-0.9L90.8,21.1L90.8,21.1z
			 M89,24.7c-0.1,0.2-0.1,0.3-0.2,0.5l0,0c0,0,0,0,0,0.1l0,0c0,0,0,0,0,0.1l0,0c-0.2,0.4-0.4,0.8-0.5,1.3l18.6,7.3
			c0.1-0.3,0.3-0.6,0.4-1L89,24.7L89,24.7z M87.5,28.4c-0.1,0.3-0.2,0.5-0.3,0.8l0,0l0,0l0,0l0,0l0,0l0,0l0,0l0,0l0,0l0,0l0,0l0,0
			l0,0l0,0l0,0l0,0l0,0l0,0l0,0l0,0l0,0l0,0l0,0l0,0l0,0l0,0l0,0l0,0l0,0l0,0l0,0l0,0l0,0l0,0l0,0l0,0l0,0c-0.1,0.8-0.2,1-0.2,1.1
			l19.2,5.4c0.1-0.3,0.2-0.7,0.3-1L87.5,28.4L87.5,28.4z M86.5,32.3c-0.1,0.5-0.2,1.1-0.3,1.6c0,0.1,0,0.2-0.1,0.4l19.7,3.6
			c0.1-0.3,0.1-0.7,0.2-1L86.5,32.3L86.5,32.3z M85.7,36.2c-0.1,0.4-0.1,0.9-0.1,1.3l0,0l0,0l0,0l0,0l0,0l0,0l0,0l0,0
			c0,0.2,0,0.4-0.1,0.6l19.9,1.7c0-0.3,0.1-0.7,0.1-1L85.7,36.2L85.7,36.2z M85.4,40.2c0,0.3,0,0.6,0,1l0,0l0,0l0,0c0,0,0,0,0,0.1
			l0,0l0,0l0,0l0,0l0,0l0,0l0,0l0,0l0,0l0,0l0,0l0,0l0,0l0,0l0,0l0,0l0,0l0,0l0,0l0,0l0,0l0,0l0,0l0,0l0,0l0,0c0,0.1,0,0.3,0,0.4
			l20-0.2v-0.3c0-0.3,0-0.5,0-0.8L85.4,40.2L85.4,40.2z M105.4,43l-20,1.2c0,0.6,0.1,1.1,0.1,1.7l0,0l0,0l0,0l0,0l0,0l0,0l0,0l0,0
			c0,0.1,0,0.1,0,0.2l19.9-2.1C105.5,43.7,105.4,43.4,105.4,43L105.4,43z M105.6,45.1l-19.8,3.1l0,0l0,0l0,0l0,0l0,0l0,0l0,0
			c0.1,0.5,0.2,1,0.3,1.6l0,0l0,0l0,0l0,0l0,0l0,0l0,0l0,0c0,0.1,0,0.1,0,0.2l19.6-4C105.8,45.8,105.7,45.4,105.6,45.1L105.6,45.1z
			 M106.1,47.1l-19.4,5c0.2,0.6,0.3,1.3,0.5,1.9l19.1-5.9C106.2,47.8,106.1,47.5,106.1,47.1L106.1,47.1z M106.7,49.1l-18.8,6.8
			c0.2,0.6,0.5,1.2,0.7,1.9l18.5-7.7C106.9,49.7,106.8,49.4,106.7,49.1L106.7,49.1z M107.5,51l-18.1,8.6c0,0.1,0.1,0.1,0.1,0.2l0,0
			l0,0l0,0l0,0c0.2,0.4,0.4,0.7,0.6,1.1l0,0l0,0l0,0l0,0l0,0l0,0l0,0l0,0c0.1,0.1,0.1,0.2,0.2,0.3l17.6-9.5
			C107.8,51.6,107.6,51.3,107.5,51L107.5,51z M108.5,52.8L91.3,63.1c0.1,0.2,0.2,0.3,0.3,0.5l0,0l0,0l0,0l0,0l0,0l0,0
			c0.2,0.4,0.5,0.8,0.7,1.1l16.7-11C108.8,53.4,108.6,53.1,108.5,52.8L108.5,52.8z M109.6,54.6L93.5,66.4c0.1,0.1,0.1,0.2,0.2,0.3
			l0,0l0,0l0,0l0,0l0,0l0,0l0,0l0,0l0,0l0,0l0,0l0,0l0,0l0,0l0,0l0,0l0,0l0,0l0,0l0,0l0,0l0,0l0,0l0,0l0,0l0,0l0,0l0,0l0,0l0,0l0,0
			l0,0c0.2,0.3,0.5,0.6,0.7,0.9L109.9,55C110,55.1,109.8,54.8,109.6,54.6L109.6,54.6z M110.9,56.2L96.1,69.5c0.4,0.5,0.9,1,1.4,1.5
			l14.2-14.1C111.4,56.7,111.2,56.4,110.9,56.2L110.9,56.2z M112.4,57.7L98.9,72.4c0.2,0.2,0.5,0.5,0.8,0.7l0,0l0,0l0,0l0,0l0,0l0,0
			l0,0l0,0c0.2,0.2,0.4,0.4,0.7,0.6l12.8-15.4C112.9,58.1,112.7,57.9,112.4,57.7L112.4,57.7z M114,59l-12.1,16
			c0.3,0.2,0.6,0.5,0.9,0.7c0.2,0.2,0.5,0.3,0.7,0.5l11.3-16.5C114.6,59.4,114.3,59.2,114,59L114,59z M115.7,60.2l-10.5,17
			c0,0,0.1,0,0.1,0.1l0,0l0,0l0,0l0,0l0,0l0,0c0.5,0.3,1,0.6,1.5,0.9l0,0l0,0l0,0l0,0l9.7-17.5C116.3,60.5,116,60.4,115.7,60.2
			L115.7,60.2z M117.5,61.2l-8.8,18c0.1,0.1,0.2,0.1,0.3,0.2l0,0l0,0l0,0l0,0l0,0l0,0l0,0l0,0l0,0l0,0l0,0l0,0l0,0l0,0l0,0l0,0
			c0.4,0.2,0.8,0.4,1.3,0.6l7.9-18.4C118.2,61.5,117.8,61.3,117.5,61.2L117.5,61.2z M119.4,62l-7,18.7c0.6,0.2,1.3,0.5,1.9,0.7
			l6.1-19C120.1,62.2,119.8,62.1,119.4,62L119.4,62z M121.4,62.6L116.2,82c0.1,0,0.2,0,0.2,0.1l0,0l0,0l0,0l0,0l0,0l0,0l0,0l0,0l0,0
			l0,0l0,0l0,0l0,0l0,0c0.5,0.1,1,0.2,1.5,0.4l4.3-19.5C122.1,62.8,121.7,62.7,121.4,62.6L121.4,62.6z M123.4,63.1l-3.3,19.7
			c0.5,0.1,1,0.2,1.5,0.2c0.2,0,0.3,0,0.5,0.1l2.4-19.9C124.1,63.2,123.8,63.1,123.4,63.1L123.4,63.1z M125.5,63.3l-1.4,20
			c0.1,0,0.3,0,0.4,0l0,0l0,0l0,0l0,0l0,0l0,0c0.3,0,0.6,0,1,0l0,0l0,0l0,0l0,0l0,0l0,0l0,0l0,0c0.1,0,0.3,0,0.4,0l0.5-20
			C126.2,63.4,125.8,63.4,125.5,63.3L125.5,63.3z M128.7,63.3c-0.3,0-0.7,0-1.1,0l0.5,20c0.2,0,0.4,0,0.6,0c0,0,0,0,0.1,0l0,0l0,0
			l0,0l0,0l0,0c0.4,0,0.8,0,1.2-0.1l0,0c0,0,0,0,0.1,0l0,0l0,0l0,0l0,0l0,0L128.7,63.3L128.7,63.3z M130.7,63.1
			c-0.3,0.1-0.7,0.1-1,0.1l2.4,19.9c0.6-0.1,1.2-0.2,1.8-0.3l0,0l0,0l0,0l0,0l0,0l0,0l0,0l0,0l0,0l0,0L130.7,63.1L130.7,63.1z
			 M132.8,62.6c-0.3,0.1-0.7,0.2-1,0.2l4.3,19.5c0.1,0,0.1,0,0.2,0l0,0l0,0l0,0l0,0l0,0l0,0l0,0l0,0l0,0l0,0l0,0l0,0l0,0l0,0
			c0.3-0.1,0.5-0.1,0.8-0.2l0,0l0,0l0,0l0,0l0,0l0,0l0,0l0,0l0,0l0,0l0,0l0,0l0,0l0,0l0,0l0,0l0,0l0,0l0,0l0,0l0,0l0,0l0,0l0,0l0,0
			c0.1,0,0.3-0.1,0.4-0.1L132.8,62.6L132.8,62.6z M134.7,62c-0.3,0.1-0.6,0.2-1,0.3l6.1,19c0.3-0.1,0.6-0.2,0.9-0.3l0,0l0,0l0,0l0,0
			l0,0l0,0l0,0l0,0l0,0l0,0l0,0l0,0l0,0l0,0c0.3-0.1,0.5-0.2,0.8-0.3L134.7,62L134.7,62z M136.6,61.2c-0.3,0.2-0.6,0.3-0.9,0.4
			l7.9,18.4c0.4-0.2,0.7-0.3,1-0.5l0,0l0,0l0,0l0,0l0,0l0,0l0,0l0,0l0,0l0,0l0,0l0,0c0.2-0.1,0.4-0.2,0.6-0.3L136.6,61.2L136.6,61.2
			z M138.4,60.2c-0.3,0.2-0.6,0.4-0.9,0.5l9.7,17.5c0.1,0,0.1-0.1,0.2-0.1l0,0l0,0l0,0l0,0l0,0l0,0l0,0l0,0l0,0l0,0l0,0l0,0l0,0l0,0
			c0.5-0.3,0.9-0.5,1.4-0.8L138.4,60.2L138.4,60.2z M140.2,59c-0.3,0.2-0.6,0.4-0.8,0.6l11.3,16.5c0.3-0.2,0.5-0.3,0.8-0.5l0,0l0,0
			l0,0l0,0l0,0l0,0l0,0l0,0l0,0l0,0l0,0l0,0l0,0l0,0l0,0l0,0l0,0l0,0l0,0l0,0l0,0l0,0c0.2-0.1,0.4-0.3,0.6-0.4L140.2,59L140.2,59z
			 M141.8,57.7c-0.3,0.2-0.5,0.5-0.8,0.7l12.8,15.3l0,0l0,0l0,0l0,0l0,0l0,0l0,0l0,0l0,0l0,0l0,0l0,0l0,0l0,0l0,0l0,0l0,0l0,0l0,0
			l0,0l0,0l0,0l0,0l0,0l0,0l0,0l0,0l0,0l0,0l0,0l0,0l0,0l0,0c0.3-0.3,0.7-0.6,1-0.9l0,0l0,0l0,0l0,0l0,0l0,0l0,0l0,0l0,0l0,0l0,0
			l0,0l0,0L141.8,57.7L141.8,57.7z M143.2,56.2c-0.2,0.3-0.5,0.5-0.7,0.8l14.2,14l0,0l0,0l0,0c0.3-0.3,0.6-0.6,0.9-1l0,0l0,0l0,0
			l0,0l0,0l0,0l0,0l0,0l0,0l0,0c0.1-0.1,0.2-0.2,0.3-0.4L143.2,56.2L143.2,56.2z M144.6,54.6c-0.2,0.3-0.4,0.6-0.6,0.8L159.4,68l0,0
			l0,0l0,0l0,0l0,0l0,0l0,0l0,0l0,0l0,0l0,0l0,0l0,0l0,0l0,0l0,0c0.2-0.3,0.4-0.5,0.6-0.8l0,0l0,0l0,0l0,0l0,0l0,0l0,0l0,0l0,0l0,0
			l0,0l0,0c0.1-0.2,0.2-0.3,0.4-0.5L144.6,54.6L144.6,54.6z M145.7,52.8c-0.2,0.3-0.4,0.6-0.6,0.9l16.6,11.1c0-0.1,0.1-0.1,0.1-0.2
			l0,0l0,0c0.3-0.5,0.6-0.9,0.9-1.4l0,0l0,0l0,0L145.7,52.8L145.7,52.8z M146.7,51c-0.1,0.3-0.3,0.6-0.5,0.9l17.6,9.5
			c0.1-0.2,0.2-0.3,0.3-0.5c0.1-0.3,0.3-0.6,0.4-0.8l0,0l0,0l0,0l0,0l0,0l0,0l0,0l0,0c0.1-0.1,0.1-0.2,0.2-0.3L146.7,51L146.7,51z
			 M147.5,49.1c-0.1,0.3-0.2,0.6-0.4,1l18.5,7.7c0.1-0.2,0.2-0.5,0.3-0.7l0,0l0,0l0,0l0,0l0,0l0,0l0,0l0,0c0.1-0.4,0.3-0.7,0.4-1.1
			L147.5,49.1L147.5,49.1z M148.1,47.1c-0.1,0.3-0.2,0.7-0.3,1l19.1,5.9c0-0.1,0.1-0.3,0.1-0.4l0,0l0,0l0,0l0,0l0,0l0,0l0,0l0,0l0,0
			l0,0l0,0l0,0l0,0l0,0l0,0l0,0l0,0l0,0l0,0l0,0l0,0c0.1-0.4,0.2-0.8,0.3-1.2L148.1,47.1L148.1,47.1z M148.5,45.1
			c-0.1,0.3-0.1,0.7-0.2,1l19.6,4c0.1-0.6,0.2-1.1,0.3-1.7c0-0.1,0-0.2,0-0.2L148.5,45.1L148.5,45.1z M148.7,43c0,0.3,0,0.7-0.1,1
			l19.9,2.1c0-0.2,0-0.5,0.1-0.7l0,0l0,0l0,0l0,0l0,0l0,0c0-0.4,0.1-0.8,0.1-1.1c0,0,0,0,0-0.1L148.7,43L148.7,43z M168.7,40.2
			l-20,0.7c0,0.3,0,0.5,0,0.8V42l20,0.2c0-0.1,0-0.3,0-0.4l0,0l0,0l0,0l0,0l0,0l0,0l0,0l0,0l0,0l0,0l0,0l0,0l0,0l0,0l0,0l0,0l0,0
			l0,0l0,0l0,0l0,0l0,0l0,0l0,0v-0.1l0,0l0,0l0,0c0-0.1,0-0.3,0-0.4l0,0v-0.1l0,0l0,0l0,0l0,0l0,0l0,0l0,0l0,0
			C168.7,40.4,168.7,40.3,168.7,40.2L168.7,40.2z M168.4,36.2l-19.8,2.6c0,0.3,0.1,0.7,0.1,1l19.9-1.7c0-0.2,0-0.3,0-0.5l0,0l0,0
			l0,0l0,0l0,0l0,0l0,0l0,0l0,0l0,0C168.5,37.1,168.5,36.7,168.4,36.2L168.4,36.2z M167.7,32.3l-19.5,4.5c0.1,0.3,0.1,0.7,0.2,1
			l19.7-3.6c-0.1-0.3-0.1-0.6-0.2-1l0,0l0,0l0,0l0,0l0,0l0,0l0,0l0,0l0,0l0,0l0,0l0,0l0,0l0,0l0,0l0,0l0,0l0,0l0,0l0,0l0,0l0,0l0,0
			l0,0c0-0.1,0-0.2-0.1-0.3l0,0l0,0l0,0l0,0l0,0l0,0C167.7,32.4,167.7,32.3,167.7,32.3L167.7,32.3z M166.6,28.4l-19,6.4
			c0.1,0.3,0.2,0.7,0.3,1l19.2-5.4l0,0l0,0l0,0l0,0l0,0l0,0l0,0l0,0c-0.1-0.5-0.3-1-0.4-1.5l0,0l0,0l0,0l0,0
			C166.7,28.6,166.6,28.5,166.6,28.4L166.6,28.4z M165.2,24.7l-18.3,8.2c0.1,0.3,0.3,0.6,0.4,1l18.6-7.3
			C165.7,25.9,165.4,25.3,165.2,24.7L165.2,24.7z M163.4,21.1L146,31c0.2,0.3,0.3,0.6,0.5,0.9l17.8-9c-0.3-0.5-0.5-1-0.8-1.5l0,0
			l0,0l0,0l0,0l0,0l0,0l0,0l0,0l0,0C163.4,21.2,163.4,21.2,163.4,21.1C163.4,21.2,163.4,21.2,163.4,21.1
			C163.4,21.2,163.4,21.2,163.4,21.1C163.4,21.2,163.4,21.2,163.4,21.1C163.4,21.2,163.4,21.2,163.4,21.1
			C163.4,21.2,163.4,21.1,163.4,21.1L163.4,21.1L163.4,21.1L163.4,21.1z M161.2,17.7l-16.4,11.5c0.2,0.3,0.4,0.6,0.6,0.9l16.9-10.7
			c0-0.1-0.1-0.1-0.1-0.2l0,0l0,0l0,0l0,0c-0.2-0.3-0.4-0.7-0.7-1l0,0l0,0l0,0l0,0C161.4,18,161.3,17.9,161.2,17.7L161.2,17.7z
			 M158.8,14.6l-15.2,13c0.2,0.3,0.4,0.5,0.7,0.8L160,16.1l-0.1-0.1l0,0l0,0l0,0l0,0l0,0l0,0l0,0l0,0l0,0l0,0l0,0l0,0l0,0l0,0l0,0
			l0,0l0,0l0,0l0,0l0,0l0,0l0,0l0,0l0,0l0,0l0,0l0,0l0,0l0,0l0,0l0,0l0,0l0,0l0,0l0,0l0,0l0,0l0,0l0,0l0,0l0,0l0,0l0,0l0,0l0,0l0,0
			l0,0l0,0l0,0l0,0l0,0l0,0l0,0l0,0l0,0l0,0l0,0l0,0l0,0l0,0l0,0l0,0l0,0l0,0l0,0l0,0l0,0l0,0l0,0l0,0l0,0l0,0l0,0l0,0l0,0l0,0l0,0
			l0,0l0,0l0,0l0,0l0,0l0,0l0,0l0,0l0,0l0,0l0,0l0,0l0,0l0,0l0,0l0,0l0,0l0,0l0,0l0,0l0,0l0,0l0,0l0,0l0,0l0,0l0,0
			C158.8,14.7,158.8,14.6,158.8,14.6L158.8,14.6z M156,11.7l-13.9,14.4c0.2,0.2,0.5,0.5,0.7,0.7l14.6-13.7l0,0
			C157,12.6,156.5,12.1,156,11.7L156,11.7z M153,9l-12.4,15.7c0.3,0.2,0.5,0.4,0.8,0.7l13.2-15c-0.1-0.1-0.2-0.1-0.2-0.2l0,0l0,0
			l0,0l0,0C153.9,9.7,153.4,9.4,153,9L153,9z M149.8,6.7l-10.9,16.8c0.3,0.2,0.6,0.4,0.9,0.6l11.7-16.2c-0.2-0.1-0.3-0.2-0.5-0.3
			l0,0l0,0l0,0l0,0l0,0l0,0c-0.2-0.1-0.3-0.2-0.5-0.4l0,0l0,0l0,0l0,0l0,0l0,0C150.1,6.9,149.9,6.8,149.8,6.7L149.8,6.7z M146.3,4.7
			l-9.2,17.7c0.3,0.2,0.6,0.3,0.9,0.5l10.1-17.3c-0.1-0.1-0.3-0.2-0.4-0.2l0,0c0,0,0,0-0.1,0l0,0c0,0,0,0-0.1,0l0,0
			C147.1,5.1,146.7,4.9,146.3,4.7L146.3,4.7z M142.7,3l-7.5,18.5c0.3,0.1,0.6,0.3,0.9,0.4l8.4-18.2l0,0l0,0l0,0l0,0l0,0l0,0l0,0l0,0
			l0,0l0,0l0,0l0,0l0,0l0,0l0,0l0,0l0,0l0,0l0,0l0,0l0,0l0,0C143.7,3.4,143.2,3.2,142.7,3L142.7,3z M138.9,1.7l-5.7,19.2
			c0.3,0.1,0.7,0.2,1,0.3l6.6-18.9c-0.4-0.2-0.9-0.3-1.3-0.4l0,0l0,0l0,0l0,0l0,0l0,0l0,0l0,0l0,0l0,0C139.2,1.8,139,1.7,138.9,1.7
			L138.9,1.7z M135,0.8l-3.8,19.6c0.3,0.1,0.7,0.1,1,0.2L137,1.2l0,0l0,0l0,0l0,0l0,0l0,0l0,0l0,0l0,0l0,0l0,0l0,0l0,0l0,0l0,0l0,0
			c-0.3-0.1-0.5-0.1-0.8-0.2l0,0c0,0,0,0-0.1,0l0,0l0,0l0,0l0,0l0,0l0,0l0,0l0,0l0,0l0,0l0,0l0,0C135.5,0.8,135.2,0.8,135,0.8
			L135,0.8z M131.1,0.2l-1.9,19.9c0.3,0,0.7,0.1,1,0.1L133,0.4c-0.2,0-0.3,0-0.5-0.1l0,0l0,0l0,0l0,0l0,0l0,0l0,0l0,0l0,0l0,0l0,0
			l0,0l0,0l0,0c-0.3,0-0.6-0.1-0.9-0.1l0,0l0,0l0,0l0,0l0,0l0,0l0,0l0,0C131.2,0.2,131.1,0.2,131.1,0.2L131.1,0.2z M127.1,0v20
			c0.4,0,0.7,0,1.1,0l0.9-20c-0.4,0-0.8,0-1.2,0l0,0l0,0l0,0l0,0l0,0l0,0l0,0l0,0l0,0l0,0l0,0l0,0l0,0l0,0l0,0l0,0l0,0l0,0l0,0l0,0
			l0,0l0,0l0,0l0,0l0,0l0,0l0,0l0,0l0,0l0,0l0,0l0,0l0,0l0,0l0,0l0,0l0,0l0,0l0,0l0,0l0,0C127.2,0,127.2,0,127.1,0
			C127.2,0,127.2,0,127.1,0L127.1,0L127.1,0L127.1,0L127.1,0L127.1,0z"/>
	</g>
	<g>
		<path class="st0" d="M127.1,2c21.9,0,39.7,17.8,39.7,39.7S149,81.4,127.1,81.4S87.4,63.6,87.4,41.7C87.4,19.8,105.2,2,127.1,2
			 M127.1,0c-23,0-41.7,18.7-41.7,41.7s18.7,41.7,41.7,41.7s41.7-18.7,41.7-41.7C168.8,18.7,150.1,0,127.1,0L127.1,0z"/>
	</g>
	<g class="st2">
		<path class="st0" d="M163.1,41.7c0,19.9-16.1,36-36,36s-36-16.1-36-36s16.1-36,36-36C147,5.7,163.1,21.8,163.1,41.7z"/>
	</g>
	<g>
		<path class="st0" d="M127.1,69.8C111.6,69.8,99,57.2,99,41.7s12.6-28.1,28.1-28.1s28.1,12.6,28.1,28.1S142.6,69.8,127.1,69.8z"/>
		<path class="st3" d="M127.1,16.6c13.9,0,25.1,11.3,25.1,25.1c0,13.9-11.3,25.1-25.1,25.1c-13.9,0-25.1-11.3-25.1-25.1
			C101.9,27.9,113.2,16.6,127.1,16.6 M127.1,10.6C109.9,10.6,96,24.5,96,41.7s13.9,31.1,31.1,31.1s31.1-13.9,31.1-31.1
			S144.3,10.6,127.1,10.6L127.1,10.6z"/>
	</g>
</g>
<g id="LS_pressed">
	<g>
		<path class="st4" d="M83.4,41.7c0,23-18.7,41.7-41.7,41.7S0,64.7,0,41.7S18.7,0,41.7,0S83.4,18.7,83.4,41.7z"/>
		<path class="st5" d="M41.7,0L41.7,0C41.6,0,41.6,0,41.7,0C41.6,0,41.6,0,41.7,0C41.6,0,41.6,0,41.7,0C41.6,0,41.6,0,41.7,0
			C41.6,0,41.6,0,41.7,0L41.7,0L41.7,0L41.7,0L41.7,0L41.7,0L41.7,0L41.7,0L41.7,0L41.7,0L41.7,0L41.7,0L41.7,0L41.7,0L41.7,0
			L41.7,0L41.7,0L41.7,0L41.7,0L41.7,0L41.7,0L41.7,0L41.7,0L41.7,0L41.7,0L41.7,0L41.7,0L41.7,0L41.7,0L41.7,0L41.7,0L41.7,0
			L41.7,0L41.7,0L41.7,0L41.7,0L41.7,0L41.7,0L41.7,0L41.7,0L41.7,0L41.7,0L41.7,0L41.7,0L41.7,0L41.7,0h-0.2l0,0l0,0l0,0l0,0l0,0
			l0,0l0,0l0,0l0,0l0,0l0,0l0,0l0,0c0,0,0,0-0.1,0l0,0c-0.2,0-0.5,0-0.7,0l0.9,20c0.4,0,0.7,0,1.1,0V0H41.7L41.7,0z M37.7,0.2
			c-0.1,0-0.1,0-0.2,0l0,0l0,0l0,0l0,0l0,0l0,0l0,0l0,0l0,0l0,0c-0.6,0.1-1.1,0.1-1.7,0.2l2.8,19.8c0.3,0,0.7-0.1,1-0.1L37.7,0.2
			L37.7,0.2z M33.7,0.8L33.7,0.8C33.6,0.8,33.6,0.8,33.7,0.8C33.6,0.8,33.6,0.8,33.7,0.8L33.7,0.8L33.7,0.8L33.7,0.8L33.7,0.8
			L33.7,0.8L33.7,0.8L33.7,0.8L33.7,0.8L33.7,0.8L33.7,0.8L33.7,0.8L33.7,0.8L33.7,0.8L33.7,0.8L33.7,0.8L33.7,0.8L33.7,0.8
			L33.7,0.8L33.7,0.8L33.7,0.8L33.7,0.8L33.7,0.8L33.7,0.8L33.7,0.8L33.7,0.8L33.7,0.8c-0.6,0.1-1.1,0.2-1.5,0.3l4.7,19.4
			c0.3-0.1,0.7-0.2,1-0.2L33.7,0.8L33.7,0.8z M29.8,1.7C29.6,1.8,29.3,1.9,29,2l0,0c0,0,0,0-0.1,0l0,0c0,0,0,0-0.1,0l0,0l0,0
			c-0.3,0.1-0.6,0.2-0.9,0.3l6.6,18.9c0.3-0.1,0.7-0.2,1-0.3L29.8,1.7L29.8,1.7z M26.1,3c-0.6,0.2-1.2,0.5-1.8,0.8L32.6,22
			c0.3-0.1,0.6-0.3,1-0.4L26.1,3L26.1,3z M22.4,4.7c-0.6,0.3-1.2,0.6-1.8,1L30.7,23c0.3-0.2,0.6-0.3,0.9-0.5L22.4,4.7L22.4,4.7z
			 M19,6.7c-0.6,0.4-1.1,0.7-1.6,1.1L29,24.1c0.3-0.2,0.6-0.4,0.9-0.6L19,6.7L19,6.7z M15.7,9.1c-0.5,0.4-1,0.8-1.5,1.3l13.2,15
			c0.3-0.2,0.5-0.5,0.8-0.7L15.7,9.1L15.7,9.1z M12.7,11.7c-0.3,0.3-0.6,0.6-0.8,0.8l0,0l0,0l0,0l0,0l0,0l0,0l0,0l0,0l0,0l0,0l0,0
			l0,0c-0.1,0.2-0.3,0.3-0.4,0.5l14.6,13.7c0.2-0.3,0.5-0.5,0.7-0.7L12.7,11.7L12.7,11.7z M10,14.6L10,14.6L10,14.6L10,14.6L10,14.6
			C10,14.7,10,14.7,10,14.6C9.9,14.7,9.9,14.7,10,14.6C9.9,14.7,9.9,14.7,10,14.6C9.9,14.7,9.9,14.7,10,14.6
			c-0.1,0.1-0.1,0.1-0.1,0.1l0,0l0,0l0,0l0,0l0,0l0,0c-0.4,0.4-0.7,0.9-1.1,1.4l0,0l15.8,12.3c0.2-0.3,0.4-0.5,0.7-0.8L10,14.6
			L10,14.6z M7.5,17.8C7.4,17.9,7.4,18,7.3,18l0,0l0,0l0,0l0,0c-0.3,0.5-0.6,1-0.9,1.4l16.9,10.7c0.2-0.3,0.4-0.6,0.6-0.9L7.5,17.8
			L7.5,17.8z M5.4,21.1C5.3,21.4,5.1,21.7,5,22l0,0l0,0c-0.2,0.3-0.3,0.6-0.5,0.9l17.8,9c0.2-0.3,0.3-0.6,0.5-0.9L5.4,21.1L5.4,21.1
			z M3.6,24.7c-0.1,0.2-0.1,0.3-0.2,0.5l0,0c0,0,0,0,0,0.1l0,0c0,0,0,0,0,0.1l0,0c-0.2,0.4-0.4,0.8-0.5,1.3L21.5,34
			c0.1-0.3,0.3-0.6,0.4-1L3.6,24.7L3.6,24.7z M2.2,28.4C2.1,28.7,2,29,1.9,29.2l0,0l0,0l0,0l0,0l0,0l0,0l0,0l0,0l0,0l0,0l0,0l0,0
			l0,0l0,0l0,0l0,0l0,0l0,0l0,0l0,0l0,0l0,0l0,0l0,0l0,0l0,0l0,0l0,0l0,0l0,0l0,0l0,0l0,0l0,0l0,0l0,0l0,0c-0.1,0.2-0.1,0.4-0.2,0.6
			l19.2,5.4c0.1-0.3,0.2-0.7,0.3-1L2.2,28.4L2.2,28.4z M1.1,32.3c-0.1,0.5-0.2,1.1-0.3,1.6c0,0.1,0,0.2-0.1,0.4l19.7,3.6
			c0.1-0.3,0.1-0.7,0.2-1L1.1,32.3L1.1,32.3z M0.4,36.2c-0.1,0.4-0.1,0.9-0.1,1.3l0,0l0,0l0,0l0,0l0,0l0,0l0,0l0,0
			c0,0.2,0,0.4-0.1,0.6l19.9,1.7c0-0.3,0.1-0.7,0.1-1L0.4,36.2L0.4,36.2z M0,40.2c0,0.3,0,0.6,0,1l0,0l0,0l0,0c0,0,0,0,0,0.1l0,0
			l0,0l0,0l0,0l0,0l0,0l0,0l0,0l0,0l0,0l0,0l0,0l0,0l0,0l0,0l0,0l0,0l0,0l0,0l0,0l0,0l0,0l0,0l0,0l0,0l0,0c0,0.1,0,0.3,0,0.4L20,42
			v-0.3c0-0.3,0-0.5,0-0.8L0,40.2L0,40.2z M20,43L0,44.2c0,0.6,0.1,1.1,0.1,1.7l0,0l0,0l0,0l0,0l0,0l0,0l0,0l0,0c0,0.1,0,0.1,0,0.2
			L20,44C20.1,43.7,20.1,43.4,20,43L20,43z M20.3,45.1L0.5,48.2l0,0l0,0l0,0l0,0l0,0l0,0l0,0c0.1,0.5,0.2,1,0.3,1.6l0,0l0,0l0,0l0,0
			l0,0l0,0l0,0l0,0c0,0.1,0,0.1,0,0.2l19.6-4C20.4,45.8,20.3,45.4,20.3,45.1L20.3,45.1z M20.7,47.1l-19.4,5c0.2,0.6,0.3,1.3,0.5,1.9
			L21,48.1C20.9,47.8,20.8,47.5,20.7,47.1L20.7,47.1z M21.3,49.1L2.5,55.9c0.2,0.6,0.5,1.2,0.7,1.9l18.5-7.7
			C21.5,49.7,21.4,49.4,21.3,49.1L21.3,49.1z M22.1,51L4,59.6c0,0.1,0.1,0.1,0.1,0.2l0,0l0,0l0,0l0,0c0.2,0.4,0.4,0.7,0.6,1.1l0,0
			l0,0l0,0l0,0l0,0l0,0l0,0l0,0c0.1,0.1,0.1,0.2,0.2,0.3l17.6-9.5C22.4,51.6,22.2,51.3,22.1,51L22.1,51z M23.1,52.8L5.9,63.1
			c0.1,0.2,0.2,0.3,0.3,0.5l0,0l0,0l0,0l0,0l0,0l0,0c0.2,0.4,0.5,0.8,0.7,1.1l16.6-11.1C23.4,53.4,23.2,53.1,23.1,52.8L23.1,52.8z
			 M24.2,54.6L8.1,66.4c0.1,0.1,0.1,0.2,0.2,0.3l0,0l0,0l0,0l0,0l0,0l0,0l0,0l0,0l0,0l0,0l0,0l0,0l0,0l0,0l0,0l0,0l0,0l0,0l0,0l0,0
			l0,0l0,0l0,0l0,0l0,0l0,0l0,0l0,0l0,0l0,0l0,0l0,0C8.5,67,8.8,67.3,9,67.6L24.5,55C24.6,55.1,24.4,54.8,24.2,54.6L24.2,54.6z
			 M25.5,56.2L10.7,69.5c0.4,0.5,0.9,1,1.4,1.5l14.2-14.1C26,56.7,25.8,56.4,25.5,56.2L25.5,56.2z M27,57.7L13.5,72.4
			c0.2,0.2,0.5,0.5,0.8,0.7l0,0l0,0l0,0l0,0l0,0l0,0l0,0l0,0c0.2,0.2,0.4,0.4,0.7,0.6l12.8-15.3C27.5,58.1,27.3,57.9,27,57.7
			L27,57.7z M28.6,59L16.5,75c0.3,0.2,0.6,0.5,0.9,0.7c0.2,0.2,0.5,0.3,0.7,0.5l11.3-16.5C29.2,59.4,28.9,59.2,28.6,59L28.6,59z
			 M30.3,60.2l-10.5,17c0,0,0.1,0,0.1,0.1l0,0l0,0l0,0l0,0l0,0l0,0c0.5,0.3,1,0.6,1.5,0.9l0,0l0,0l0,0l0,0l9.7-17.5
			C30.9,60.5,30.6,60.4,30.3,60.2L30.3,60.2z M32.2,61.2l-8.8,18c0.1,0.1,0.2,0.1,0.3,0.2l0,0l0,0l0,0l0,0l0,0l0,0l0,0l0,0l0,0l0,0
			l0,0l0,0l0,0l0,0l0,0l0,0c0.4,0.2,0.8,0.4,1.3,0.6l7.9-18.4C32.8,61.5,32.5,61.3,32.2,61.2L32.2,61.2z M34.1,62l-7,18.7
			c0.6,0.2,1.3,0.5,1.9,0.7l6.1-19C34.7,62.2,34.4,62.1,34.1,62L34.1,62z M36,62.6L30.8,82c0.1,0,0.2,0,0.2,0.1l0,0l0,0l0,0l0,0l0,0
			l0,0l0,0l0,0l0,0l0,0l0,0l0,0l0,0l0,0c0.5,0.1,1,0.2,1.5,0.4L37,62.9C36.7,62.8,36.4,62.7,36,62.6L36,62.6z M38,63.1l-3.3,19.7
			c0.5,0.1,1,0.2,1.5,0.2c0.2,0,0.3,0,0.5,0.1l2.4-19.9C38.7,63.2,38.4,63.1,38,63.1L38,63.1z M40.1,63.3l-1.4,20c0.1,0,0.3,0,0.4,0
			l0,0l0,0l0,0l0,0l0,0l0,0c0.3,0,0.6,0,1,0l0,0l0,0l0,0l0,0l0,0l0,0l0,0l0,0c0.1,0,0.3,0,0.4,0l0.5-20
			C40.8,63.4,40.5,63.4,40.1,63.3L40.1,63.3z M43.3,63.3c-0.3,0-0.7,0-1.1,0l0.5,20c0.2,0,0.4,0,0.6,0c0,0,0,0,0.1,0l0,0l0,0l0,0
			l0,0l0,0c0.4,0,0.8,0,1.2-0.1l0,0c0,0,0,0,0.1,0l0,0l0,0l0,0l0,0l0,0L43.3,63.3L43.3,63.3z M45.3,63.1c-0.3,0.1-0.7,0.1-1,0.1
			l2.4,19.9c0.6-0.1,1.2-0.2,1.8-0.3l0,0l0,0l0,0l0,0l0,0l0,0l0,0l0,0l0,0l0,0L45.3,63.1L45.3,63.1z M47.4,62.6
			c-0.3,0.1-0.7,0.2-1,0.2l4.3,19.5c0.1,0,0.1,0,0.2,0l0,0l0,0l0,0l0,0l0,0l0,0l0,0l0,0l0,0l0,0l0,0l0,0l0,0l0,0
			c0.3-0.1,0.5-0.1,0.8-0.2l0,0l0,0l0,0l0,0l0,0l0,0l0,0l0,0l0,0l0,0l0,0l0,0l0,0l0,0l0,0l0,0l0,0l0,0l0,0l0,0l0,0l0,0l0,0l0,0l0,0
			c0.1,0,0.3-0.1,0.4-0.1L47.4,62.6L47.4,62.6z M49.3,62c-0.3,0.1-0.6,0.2-1,0.3l6.1,19c0.3-0.1,0.6-0.2,0.9-0.3l0,0l0,0l0,0l0,0
			l0,0l0,0l0,0l0,0l0,0l0,0l0,0l0,0l0,0l0,0c0.3-0.1,0.5-0.2,0.8-0.3L49.3,62L49.3,62z M51.2,61.2c-0.3,0.2-0.6,0.3-0.9,0.4L58.2,80
			c0.4-0.2,0.7-0.3,1-0.5l0,0l0,0l0,0l0,0l0,0l0,0l0,0l0,0l0,0l0,0l0,0l0,0c0.2-0.1,0.4-0.2,0.6-0.3L51.2,61.2L51.2,61.2z
			 M53.1,60.2c-0.3,0.2-0.6,0.4-0.9,0.5l9.7,17.5c0.1,0,0.1-0.1,0.2-0.1l0,0l0,0l0,0l0,0l0,0l0,0l0,0l0,0l0,0l0,0l0,0l0,0l0,0l0,0
			c0.5-0.3,0.9-0.5,1.4-0.8L53.1,60.2L53.1,60.2z M54.8,59c-0.3,0.2-0.6,0.4-0.8,0.6l11.3,16.5c0.3-0.2,0.5-0.3,0.8-0.5l0,0l0,0l0,0
			l0,0l0,0l0,0l0,0l0,0l0,0l0,0l0,0l0,0l0,0l0,0l0,0l0,0l0,0l0,0l0,0l0,0l0,0l0,0c0.2-0.1,0.4-0.3,0.6-0.4L54.8,59L54.8,59z
			 M56.4,57.7c-0.3,0.2-0.5,0.5-0.8,0.7l12.8,15.3l0,0l0,0l0,0l0,0l0,0l0,0l0,0l0,0l0,0l0,0l0,0l0,0l0,0l0,0l0,0l0,0l0,0l0,0l0,0
			l0,0l0,0l0,0l0,0l0,0l0,0l0,0l0,0l0,0l0,0l0,0l0,0l0,0l0,0c0.3-0.3,0.7-0.6,1-0.9l0,0l0,0l0,0l0,0l0,0l0,0l0,0l0,0l0,0l0,0l0,0
			l0,0l0,0L56.4,57.7L56.4,57.7z M57.8,56.2c-0.2,0.3-0.5,0.5-0.7,0.8l14.3,14l0,0l0,0l0,0c0.3-0.3,0.6-0.6,0.9-1l0,0l0,0l0,0l0,0
			l0,0l0,0l0,0l0,0l0,0l0,0c0.1-0.1,0.2-0.2,0.3-0.4L57.8,56.2L57.8,56.2z M59.2,54.6c-0.2,0.3-0.4,0.6-0.6,0.8L74,68l0,0l0,0l0,0
			l0,0l0,0l0,0l0,0l0,0l0,0l0,0l0,0l0,0l0,0l0,0l0,0l0,0c0.2-0.3,0.4-0.5,0.6-0.8l0,0l0,0l0,0l0,0l0,0l0,0l0,0l0,0l0,0l0,0l0,0l0,0
			c0.1-0.2,0.2-0.3,0.4-0.5L59.2,54.6L59.2,54.6z M60.3,52.8c-0.2,0.3-0.4,0.6-0.6,0.9l16.6,11.1c0-0.1,0.1-0.1,0.1-0.2l0,0l0,0
			c0.3-0.5,0.6-0.9,0.9-1.4l0,0l0,0l0,0L60.3,52.8L60.3,52.8z M61.3,51c-0.1,0.3-0.3,0.6-0.5,0.9l17.6,9.5c0.1-0.2,0.2-0.3,0.3-0.5
			c0.1-0.3,0.3-0.6,0.4-0.8l0,0l0,0l0,0l0,0l0,0l0,0l0,0l0,0c0.1-0.1,0.1-0.2,0.2-0.3L61.3,51L61.3,51z M62.1,49.1
			c-0.1,0.3-0.2,0.6-0.4,1l18.5,7.7c0.1-0.2,0.2-0.5,0.3-0.7l0,0l0,0l0,0l0,0l0,0l0,0l0,0l0,0c0.1-0.4,0.3-0.7,0.4-1.1L62.1,49.1
			L62.1,49.1z M62.7,47.1c-0.1,0.3-0.2,0.7-0.3,1L81.5,54c0-0.1,0.1-0.3,0.1-0.4l0,0l0,0l0,0l0,0l0,0l0,0l0,0l0,0l0,0l0,0l0,0l0,0
			l0,0l0,0l0,0l0,0l0,0l0,0l0,0l0,0l0,0c0.1-0.4,0.2-0.8,0.3-1.2L62.7,47.1L62.7,47.1z M63.1,45.1c-0.1,0.3-0.1,0.7-0.2,1l19.6,4
			c0.1-0.6,0.2-1.1,0.3-1.7c0-0.1,0-0.2,0-0.2L63.1,45.1L63.1,45.1z M63.3,43c0,0.3,0,0.7-0.1,1l19.9,2.1c0-0.2,0-0.5,0.1-0.7l0,0
			l0,0l0,0l0,0l0,0l0,0c0-0.4,0.1-0.8,0.1-1.1c0,0,0,0,0-0.1L63.3,43L63.3,43z M83.4,40.2l-20,0.7c0,0.3,0,0.5,0,0.8V42l20,0.2
			c0-0.1,0-0.3,0-0.4l0,0l0,0l0,0l0,0l0,0l0,0l0,0l0,0l0,0l0,0l0,0l0,0l0,0l0,0l0,0l0,0l0,0l0,0l0,0l0,0l0,0l0,0l0,0l0,0v-0.1l0,0
			l0,0l0,0c0-0.1,0-0.3,0-0.4l0,0v-0.1l0,0l0,0l0,0l0,0l0,0l0,0l0,0l0,0C83.4,40.4,83.4,40.3,83.4,40.2L83.4,40.2z M83,36.2
			l-19.8,2.6c0,0.3,0.1,0.7,0.1,1l19.9-1.7c0-0.2,0-0.3,0-0.5l0,0l0,0l0,0l0,0l0,0l0,0l0,0l0,0l0,0l0,0C83.1,37.1,83.1,36.7,83,36.2
			L83,36.2z M82.3,32.3l-19.5,4.5c0.1,0.3,0.1,0.7,0.2,1l19.7-3.6c-0.1-0.3-0.1-0.6-0.2-1l0,0l0,0l0,0l0,0l0,0l0,0l0,0l0,0l0,0l0,0
			l0,0l0,0l0,0l0,0l0,0l0,0l0,0l0,0l0,0l0,0l0,0l0,0l0,0l0,0c0-0.1,0-0.2-0.1-0.3l0,0l0,0l0,0l0,0l0,0l0,0
			C82.4,32.4,82.3,32.3,82.3,32.3L82.3,32.3z M81.2,28.4l-19,6.4c0.1,0.3,0.2,0.7,0.3,1l19.2-5.4l0,0l0,0l0,0l0,0l0,0l0,0l0,0l0,0
			c-0.1-0.5-0.3-1-0.4-1.5l0,0l0,0l0,0l0,0C81.3,28.6,81.3,28.5,81.2,28.4L81.2,28.4z M79.8,24.7l-18.3,8.2c0.1,0.3,0.3,0.6,0.4,1
			l18.6-7.3C80.3,25.9,80,25.3,79.8,24.7L79.8,24.7z M78,21.1L60.6,31c0.2,0.3,0.3,0.6,0.5,0.9l17.8-9c-0.3-0.5-0.5-1-0.8-1.5l0,0
			l0,0l0,0l0,0l0,0l0,0l0,0l0,0l0,0C78,21.2,78,21.2,78,21.1C78,21.2,78,21.2,78,21.1C78,21.2,78,21.2,78,21.1
			C78,21.2,78,21.2,78,21.1C78,21.2,78,21.2,78,21.1C78,21.2,78,21.1,78,21.1L78,21.1L78,21.1L78,21.1z M75.8,17.7L59.5,29.2
			c0.2,0.3,0.4,0.6,0.6,0.9L77,19.4c0-0.1-0.1-0.1-0.1-0.2l0,0l0,0l0,0l0,0c-0.2-0.3-0.4-0.7-0.7-1l0,0l0,0l0,0l0,0
			C76,18,75.9,17.9,75.8,17.7L75.8,17.7z M73.4,14.6l-15.2,13c0.2,0.3,0.4,0.5,0.7,0.8l15.8-12.3L74.6,16l0,0l0,0l0,0l0,0l0,0l0,0
			l0,0l0,0l0,0l0,0l0,0l0,0l0,0l0,0l0,0l0,0l0,0l0,0l0,0l0,0l0,0l0,0l0,0l0,0l0,0l0,0l0,0l0,0l0,0l0,0l0,0l0,0l0,0l0,0l0,0l0,0l0,0
			l0,0l0,0l0,0l0,0l0,0l0,0l0,0l0,0l0,0l0,0l0,0l0,0l0,0l0,0l0,0l0,0l0,0l0,0l0,0l0,0l0,0l0,0l0,0l0,0l0,0l0,0l0,0l0,0l0,0l0,0l0,0
			l0,0l0,0l0,0l0,0l0,0l0,0l0,0l0,0l0,0l0,0l0,0l0,0l0,0l0,0l0,0l0,0l0,0l0,0l0,0l0,0l0,0l0,0l0,0l0,0l0,0l0,0l0,0l0,0l0,0l0,0l0,0
			l0,0l0,0l0,0l0,0l0,0C73.5,14.7,73.4,14.6,73.4,14.6L73.4,14.6z M70.6,11.7L56.7,26.1c0.2,0.2,0.5,0.5,0.7,0.7L72,13.1l0,0
			C71.6,12.6,71.1,12.1,70.6,11.7L70.6,11.7z M67.6,9L55.2,24.7c0.3,0.2,0.5,0.4,0.8,0.7l13.2-15c-0.1-0.1-0.2-0.1-0.2-0.2l0,0l0,0
			l0,0l0,0C68.5,9.7,68.1,9.4,67.6,9L67.6,9z M64.4,6.7L53.5,23.5c0.3,0.2,0.6,0.4,0.9,0.6L66,7.8c-0.2-0.1-0.3-0.2-0.5-0.3l0,0l0,0
			l0,0l0,0l0,0l0,0c-0.2-0.1-0.3-0.2-0.5-0.4l0,0l0,0l0,0l0,0l0,0l0,0C64.7,6.9,64.6,6.8,64.4,6.7L64.4,6.7z M60.9,4.7l-9.2,17.7
			c0.3,0.2,0.6,0.3,0.9,0.5L62.7,5.7c-0.1-0.1-0.3-0.2-0.4-0.2l0,0c0,0,0,0-0.1,0l0,0c0,0,0,0-0.1,0l0,0C61.7,5.1,61.3,4.9,60.9,4.7
			L60.9,4.7z M57.3,3l-7.5,18.5c0.3,0.1,0.6,0.3,1,0.4l8.4-18.2l0,0l0,0l0,0l0,0l0,0l0,0l0,0l0,0l0,0l0,0l0,0l0,0l0,0l0,0l0,0l0,0
			l0,0l0,0l0,0l0,0l0,0l0,0C58.3,3.4,57.8,3.2,57.3,3L57.3,3z M53.5,1.7l-5.7,19.2c0.3,0.1,0.7,0.2,1,0.3l6.6-18.9
			C55,2.2,54.5,2,54.1,1.9l0,0l0,0l0,0l0,0l0,0l0,0l0,0l0,0l0,0l0,0C53.8,1.8,53.7,1.7,53.5,1.7L53.5,1.7z M49.6,0.8l-3.8,19.6
			c0.3,0.1,0.7,0.1,1,0.2l4.7-19.4l0,0l0,0l0,0l0,0l0,0l0,0l0,0l0,0l0,0l0,0l0,0l0,0l0,0l0,0l0,0l0,0C51.2,1.1,51,1.1,50.7,1l0,0
			c0,0,0,0-0.1,0l0,0l0,0l0,0l0,0l0,0l0,0l0,0l0,0l0,0l0,0l0,0l0,0C50.1,0.8,49.9,0.8,49.6,0.8L49.6,0.8z M45.7,0.2l-1.9,19.9
			c0.3,0,0.7,0.1,1,0.1l2.8-19.8c-0.2,0-0.3,0-0.5-0.1l0,0l0,0l0,0l0,0l0,0l0,0l0,0l0,0l0,0l0,0l0,0l0,0l0,0l0,0
			c-0.3,0-0.6-0.1-0.9-0.1l0,0l0,0l0,0l0,0l0,0l0,0l0,0l0,0C45.9,0.2,45.8,0.2,45.7,0.2L45.7,0.2z M41.7,0v20c0.4,0,0.7,0,1.1,0
			l0.9-20c-0.4,0-0.8,0-1.2,0l0,0l0,0l0,0l0,0l0,0l0,0l0,0l0,0l0,0l0,0l0,0l0,0l0,0l0,0l0,0l0,0l0,0l0,0l0,0l0,0l0,0l0,0l0,0l0,0
			l0,0l0,0l0,0l0,0l0,0l0,0l0,0l0,0l0,0l0,0l0,0l0,0l0,0l0,0l0,0l0,0l0,0C41.8,0,41.8,0,41.7,0C41.8,0,41.8,0,41.7,0
			C41.8,0,41.8,0,41.7,0L41.7,0L41.7,0L41.7,0L41.7,0z"/>
	</g>
	<g>
		<path class="st6" d="M41.7,2c21.9,0,39.7,17.8,39.7,39.7S63.6,81.4,41.7,81.4S2,63.6,2,41.7S19.8,2,41.7,2 M41.7,0
			C18.7,0,0,18.7,0,41.7s18.7,41.7,41.7,41.7s41.7-18.7,41.7-41.7S64.7,0,41.7,0L41.7,0z"/>
	</g>
	<g class="st2">
		<path d="M77.7,41.7c0,19.9-16.1,36-36,36s-36-16.1-36-36s16.1-36,36-36C61.6,5.7,77.7,21.8,77.7,41.7z"/>
	</g>
	<g>
		<path class="st7" d="M41.7,69.8c-15.5,0-28.1-12.6-28.1-28.1s12.6-28.1,28.1-28.1s28.1,12.6,28.1,28.1S57.2,69.8,41.7,69.8z"/>
		<path class="st4" d="M41.7,16.6c13.9,0,25.1,11.3,25.1,25.1c0,13.9-11.3,25.1-25.1,25.1c-13.9,0-25.1-11.3-25.1-25.1
			C16.6,27.9,27.8,16.6,41.7,16.6 M41.7,10.6c-17.2,0-31.1,13.9-31.1,31.1s13.9,31.1,31.1,31.1s31.1-13.9,31.1-31.1
			S58.9,10.6,41.7,10.6L41.7,10.6z"/>
	</g>
</g>
</svg>
