<?xml version="1.0" encoding="utf-8"?>
<!-- Generator: Adobe Illustrator 25.4.1, SVG Export Plug-In . SVG Version: 6.00 Build 0)  -->
<svg version="1.1"
	 id="Layer_1" xmlns:cc="http://creativecommons.org/ns#" xmlns:dc="http://purl.org/dc/elements/1.1/" xmlns:inkscape="http://www.inkscape.org/namespaces/inkscape" xmlns:rdf="http://www.w3.org/1999/02/22-rdf-syntax-ns#" xmlns:sodipodi="http://sodipodi.sourceforge.net/DTD/sodipodi-0.dtd" xmlns:svg="http://www.w3.org/2000/svg"
	 xmlns="http://www.w3.org/2000/svg" xmlns:xlink="http://www.w3.org/1999/xlink" x="0px" y="0px" viewBox="0 0 168.8 83.4"
	 style="enable-background:new 0 0 168.8 83.4;" xml:space="preserve">
<style type="text/css">
	.st0{fill:#753DE2;}
	.st1{fill:#2A035E;}
	.st2{fill:#6537D3;}
	.st3{fill:#D3E0EF;}
	.st4{fill:#A0B6CF;}
	.st5{fill:#C2D1E2;}
</style>
<sodipodi:namedview  bordercolor="#666666" borderopacity="1" gridtolerance="10" guidetolerance="10" id="namedview76" inkscape:current-layer="Layer_1" inkscape:cx="57.007277" inkscape:cy="54.254193" inkscape:pageopacity="0" inkscape:pageshadow="2" inkscape:window-height="1387" inkscape:window-maximized="1" inkscape:window-width="2560" inkscape:window-x="-8" inkscape:window-y="-8" inkscape:zoom="26.924216" objecttolerance="10" pagecolor="#ffffff" showgrid="false">
	</sodipodi:namedview>
<g id="g950" transform="matrix(0.99537093,0,0,0.9953948,0,0.38400037)">
	<path id="path24" inkscape:connector-curvature="0" class="st0" d="M83.4,41.7c0,23-18.7,41.7-41.7,41.7C18.7,83.4,0,64.7,0,41.7
		C0,18.7,18.7,0,41.7,0C64.7,0,83.4,18.7,83.4,41.7z"/>
	<path id="path34" inkscape:connector-curvature="0" class="st0" d="M77.7,41.7c0,19.9-16.1,36-36,36c-19.9,0-36-16.1-36-36
		c0-19.9,16.1-36,36-36C61.6,5.7,77.7,21.8,77.7,41.7z"/>
	<path id="path26" inkscape:connector-curvature="0" class="st1" d="M42.6,1.1C42.6,1.1,42.6,1.1,42.6,1.1
		C42.6,1.1,42.6,1.1,42.6,1.1C42.6,1.1,42.6,1.1,42.6,1.1C42.6,1.1,42.5,1.1,42.6,1.1c-0.1,0-0.1,0-0.1,0c0,0,0,0,0,0c0,0,0,0,0,0
		c0,0,0,0,0,0c0,0,0,0,0,0c0,0,0,0,0,0c0,0,0,0,0,0c0,0,0,0,0,0c0,0,0,0,0,0c0,0,0,0,0,0c0,0,0,0,0,0c0,0,0,0,0,0c0,0,0,0,0,0
		s0,0,0,0s0,0,0,0c0,0,0,0,0,0s0,0,0,0c0,0,0,0,0,0s0,0,0,0c0,0,0,0,0,0c0,0,0,0,0,0c0,0,0,0,0,0c0,0,0,0,0,0c0,0,0,0,0,0
		c0,0,0,0,0,0c0,0,0,0,0,0c0,0,0,0,0,0c0,0,0,0,0,0c0,0,0,0,0,0c0,0,0,0,0,0c0,0,0,0,0,0c0,0,0,0,0,0c0,0,0,0,0,0c0,0,0,0,0,0
		c0,0,0,0,0,0c0,0,0,0,0,0c0,0,0,0,0,0c0,0,0,0,0,0c0,0,0,0,0,0c0,0,0,0,0,0c0,0,0,0,0,0c0,0,0,0,0,0c0,0,0,0,0,0c0,0,0,0,0,0
		c0,0,0,0,0,0c0,0,0,0,0,0c0,0,0,0,0,0c-0.1,0-0.1,0-0.2,0c0,0,0,0,0,0c0,0,0,0,0,0c0,0,0,0,0,0c0,0,0,0,0,0c0,0,0,0,0,0
		c0,0,0,0,0,0c0,0,0,0,0,0c0,0,0,0,0,0c0,0,0,0,0,0c0,0,0,0,0,0l0,0c0,0,0,0,0,0l0,0c0,0,0,0-0.1,0l0,0c-0.3,0-0.5,0-0.8,0l0.2,20
		c0.4,0,0.7,0,1.1,0L42.6,1.1z M37.7,0.2c-0.1,0-0.1,0-0.2,0l0,0c0,0,0,0,0,0c0,0,0,0,0,0c0,0,0,0,0,0c0,0,0,0,0,0c0,0,0,0,0,0
		c0,0,0,0,0,0c0,0,0,0,0,0c0,0,0,0,0,0h0c-0.6,0.1-1.1,0.1-1.7,0.2l2.8,19.8c0.3,0,0.7-0.1,1-0.1L37.7,0.2z M33.7,0.8
		C33.7,0.8,33.7,0.8,33.7,0.8C33.6,0.8,33.6,0.8,33.7,0.8c-0.1,0-0.1,0-0.1,0c0,0,0,0,0,0c0,0,0,0,0,0c0,0,0,0,0,0c0,0,0,0,0,0
		c0,0,0,0,0,0c0,0,0,0,0,0c0,0,0,0,0,0c0,0,0,0,0,0c0,0,0,0,0,0c0,0,0,0,0,0c0,0,0,0,0,0c0,0,0,0,0,0c0,0,0,0,0,0c0,0,0,0,0,0
		c0,0,0,0,0,0c0,0,0,0,0,0c0,0,0,0,0,0c0,0,0,0,0,0c0,0,0,0,0,0c0,0,0,0,0,0c0,0,0,0,0,0c0,0,0,0,0,0c0,0,0,0,0,0c0,0,0,0,0,0
		c0,0,0,0,0,0h0c-0.5,0.1-1,0.2-1.4,0.3l4.7,19.4c0.3-0.1,0.7-0.2,1-0.2L33.7,0.8z M29.8,1.7C29.6,1.8,29.3,1.9,29,2h0
		c0,0,0,0-0.1,0l0,0c0,0,0,0-0.1,0c0,0,0,0,0,0c0,0,0,0,0,0c-0.3,0.1-0.6,0.2-0.9,0.3l6.6,18.9c0.3-0.1,0.7-0.2,1-0.3L29.8,1.7z
		 M26.1,3c-0.6,0.2-1.2,0.5-1.8,0.8L32.6,22c0.3-0.1,0.6-0.3,1-0.4L26.1,3z M22.4,4.7c-0.6,0.3-1.2,0.6-1.8,1l10.1,17.3
		c0.3-0.2,0.6-0.3,0.9-0.5L22.4,4.7z M19,6.7c-0.6,0.4-1.1,0.7-1.6,1.1L29,24.1c0.3-0.2,0.6-0.4,0.9-0.6L19,6.7z M15.7,9.1
		c-0.5,0.4-1,0.8-1.5,1.3l13.2,15c0.3-0.2,0.5-0.5,0.8-0.7L15.7,9.1z M12.7,11.7c-0.3,0.3-0.6,0.6-0.8,0.8c0,0,0,0,0,0c0,0,0,0,0,0
		c0,0,0,0,0,0c0,0,0,0,0,0c0,0,0,0,0,0c0,0,0,0,0,0c0,0,0,0,0,0c0,0,0,0,0,0c0,0,0,0,0,0c0,0,0,0,0,0c0,0,0,0,0,0c0,0,0,0,0,0
		c-0.1,0.2-0.3,0.3-0.4,0.5l14.6,13.7c0.2-0.3,0.5-0.5,0.7-0.7L12.7,11.7z M10,14.6C10,14.6,10,14.6,10,14.6
		C10,14.6,10,14.6,10,14.6C10,14.6,10,14.6,10,14.6C10,14.6,10,14.6,10,14.6C10,14.7,10,14.7,10,14.6C9.9,14.7,9.9,14.7,10,14.6
		C9.9,14.7,9.9,14.7,10,14.6C9.9,14.7,9.9,14.7,10,14.6c-0.1,0.1-0.1,0.1-0.1,0.1c0,0,0,0,0,0c0,0,0,0,0,0c0,0,0,0,0,0c0,0,0,0,0,0
		c0,0,0,0,0,0l0,0c-0.4,0.4-0.7,0.9-1.1,1.4c0,0,0,0,0,0l15.8,12.3c0.2-0.3,0.4-0.5,0.7-0.8L10,14.6z M7.5,17.8
		c-0.1,0.1-0.1,0.2-0.2,0.2c0,0,0,0,0,0c0,0,0,0,0,0c0,0,0,0,0,0c0,0,0,0,0,0C7,18.5,6.7,19,6.4,19.4l16.9,10.7
		c0.2-0.3,0.4-0.6,0.6-0.9L7.5,17.8z M5.4,21.1C5.3,21.4,5.1,21.7,5,22c0,0,0,0,0,0c0,0,0,0,0,0c-0.2,0.3-0.3,0.6-0.5,0.9l17.8,9
		c0.2-0.3,0.3-0.6,0.5-0.9L5.4,21.1z M3.6,24.7c-0.1,0.2-0.1,0.3-0.2,0.5l0,0c0,0,0,0,0,0.1l0,0c0,0,0,0,0,0.1l0,0
		c-0.2,0.4-0.4,0.8-0.5,1.3l18.6,7.3c0.1-0.3,0.3-0.6,0.4-1L3.6,24.7z M2.2,28.4C2.1,28.7,2,29,1.9,29.2c0,0,0,0,0,0c0,0,0,0,0,0
		c0,0,0,0,0,0c0,0,0,0,0,0c0,0,0,0,0,0c0,0,0,0,0,0c0,0,0,0,0,0c0,0,0,0,0,0c0,0,0,0,0,0c0,0,0,0,0,0c0,0,0,0,0,0c0,0,0,0,0,0
		c0,0,0,0,0,0c0,0,0,0,0,0c0,0,0,0,0,0c0,0,0,0,0,0c0,0,0,0,0,0c0,0,0,0,0,0c0,0,0,0,0,0c0,0,0,0,0,0c0,0,0,0,0,0c0,0,0,0,0,0
		c0,0,0,0,0,0c0,0,0,0,0,0c0,0,0,0,0,0c0,0,0,0,0,0c0,0,0,0,0,0c0,0,0,0,0,0c0,0,0,0,0,0c0,0,0,0,0,0c0,0,0,0,0,0c0,0,0,0,0,0
		c0,0,0,0,0,0c0,0,0,0,0,0c0,0,0,0,0,0c0,0,0,0,0,0c0,0,0,0,0,0c-0.1,0.2-0.1,0.4-0.2,0.6l19.2,5.4c0.1-0.3,0.2-0.7,0.3-1L2.2,28.4z
		 M1.1,32.3c-0.1,0.5-0.2,1.1-0.3,1.6c0,0.1,0,0.2-0.1,0.4l19.7,3.6c0.1-0.3,0.1-0.7,0.2-1L1.1,32.3z M0.4,36.2
		c-0.1,0.4-0.1,0.9-0.1,1.3c0,0,0,0,0,0c0,0,0,0,0,0c0,0,0,0,0,0c0,0,0,0,0,0c0,0,0,0,0,0c0,0,0,0,0,0c0,0,0,0,0,0v0
		c0,0.2,0,0.4-0.1,0.6l19.9,1.7c0-0.3,0.1-0.7,0.1-1L0.4,36.2z M0,40.2c0,0.3,0,0.6,0,1c0,0,0,0,0,0c0,0,0,0,0,0c0,0,0,0,0,0
		c0,0,0,0,0,0.1c0,0,0,0,0,0c0,0,0,0,0,0c0,0,0,0,0,0c0,0,0,0,0,0c0,0,0,0,0,0c0,0,0,0,0,0s0,0,0,0s0,0,0,0c0,0,0,0,0,0c0,0,0,0,0,0
		c0,0,0,0,0,0c0,0,0,0,0,0c0,0,0,0,0,0c0,0,0,0,0,0c0,0,0,0,0,0c0,0,0,0,0,0c0,0,0,0,0,0c0,0,0,0,0,0c0,0,0,0,0,0l0,0l0,0
		c0,0,0,0,0,0c0,0,0,0,0,0c0,0,0,0,0,0c0,0,0,0,0,0l0,0c0,0.1,0,0.3,0,0.4L20,42l0-0.3c0-0.3,0-0.5,0-0.8L0,40.2z M20,43l-20,1.2
		c0,0.6,0.1,1.1,0.1,1.7c0,0,0,0,0,0c0,0,0,0,0,0c0,0,0,0,0,0c0,0,0,0,0,0c0,0,0,0,0,0c0,0,0,0,0,0c0,0,0,0,0,0c0,0,0,0,0,0
		c0,0.1,0,0.1,0,0.2l19.9-2.1C20.1,43.7,20.1,43.4,20,43z M20.3,45.1L0.5,48.2c0,0,0,0,0,0c0,0,0,0,0,0c0,0,0,0,0,0c0,0,0,0,0,0
		c0,0,0,0,0,0c0,0,0,0,0,0c0,0,0,0,0,0c0.1,0.5,0.2,1,0.3,1.6c0,0,0,0,0,0c0,0,0,0,0,0c0,0,0,0,0,0c0,0,0,0,0,0c0,0,0,0,0,0
		c0,0,0,0,0,0c0,0,0,0,0,0c0,0,0,0,0,0c0,0.1,0,0.1,0,0.2l19.6-4C20.4,45.8,20.3,45.4,20.3,45.1z M20.7,47.1l-19.4,5
		c0.2,0.6,0.3,1.3,0.5,1.9L21,48.1C20.9,47.8,20.8,47.5,20.7,47.1z M21.3,49.1L2.5,55.9c0.2,0.6,0.5,1.2,0.7,1.9l18.5-7.7
		C21.5,49.7,21.4,49.4,21.3,49.1z M22.1,51L4,59.6c0,0.1,0.1,0.1,0.1,0.2c0,0,0,0,0,0c0,0,0,0,0,0c0,0,0,0,0,0c0,0,0,0,0,0
		c0.2,0.4,0.4,0.7,0.6,1.1l0,0c0,0,0,0,0,0c0,0,0,0,0,0c0,0,0,0,0,0c0,0,0,0,0,0c0,0,0,0,0,0c0,0,0,0,0,0c0,0,0,0,0,0
		c0.1,0.1,0.1,0.2,0.2,0.3l17.6-9.5C22.4,51.6,22.2,51.3,22.1,51z M23.1,52.8L5.9,63.1c0.1,0.2,0.2,0.3,0.3,0.5v0c0,0,0,0,0,0
		c0,0,0,0,0,0c0,0,0,0,0,0c0,0,0,0,0,0c0,0,0,0,0,0c0.2,0.4,0.5,0.8,0.7,1.1l16.6-11.1C23.4,53.4,23.2,53.1,23.1,52.8z M24.2,54.6
		L8.1,66.4c0.1,0.1,0.1,0.2,0.2,0.3v0c0,0,0,0,0,0l0,0c0,0,0,0,0,0c0,0,0,0,0,0c0,0,0,0,0,0c0,0,0,0,0,0c0,0,0,0,0,0c0,0,0,0,0,0
		c0,0,0,0,0,0c0,0,0,0,0,0c0,0,0,0,0,0c0,0,0,0,0,0c0,0,0,0,0,0c0,0,0,0,0,0c0,0,0,0,0,0c0,0,0,0,0,0c0,0,0,0,0,0c0,0,0,0,0,0
		c0,0,0,0,0,0c0,0,0,0,0,0c0,0,0,0,0,0c0,0,0,0,0,0c0,0,0,0,0,0c0,0,0,0,0,0c0,0,0,0,0,0c0,0,0,0,0,0c0,0,0,0,0,0c0,0,0,0,0,0
		c0,0,0,0,0,0c0,0,0,0,0,0c0,0,0,0,0,0c0.2,0.3,0.5,0.6,0.7,0.9l15.5-12.6C24.6,55.1,24.4,54.8,24.2,54.6z M25.5,56.2L10.7,69.5
		c0.4,0.5,0.9,1,1.4,1.5l14.2-14.1C26,56.7,25.8,56.4,25.5,56.2z M27,57.7L13.5,72.4c0.2,0.2,0.5,0.5,0.8,0.7c0,0,0,0,0,0
		c0,0,0,0,0,0c0,0,0,0,0,0c0,0,0,0,0,0c0,0,0,0,0,0c0,0,0,0,0,0c0,0,0,0,0,0l0,0c0.2,0.2,0.4,0.4,0.7,0.6l12.8-15.3
		C27.5,58.1,27.3,57.9,27,57.7z M28.6,59L16.5,75c0.3,0.2,0.6,0.5,0.9,0.7c0.2,0.2,0.5,0.3,0.7,0.5l11.3-16.5
		C29.2,59.4,28.9,59.2,28.6,59z M30.3,60.2l-10.5,17c0,0,0.1,0,0.1,0.1c0,0,0,0,0,0c0,0,0,0,0,0c0,0,0,0,0,0c0,0,0,0,0,0
		c0,0,0,0,0,0c0,0,0,0,0,0c0.5,0.3,1,0.6,1.5,0.9c0,0,0,0,0,0c0,0,0,0,0,0c0,0,0,0,0,0c0,0,0,0,0,0l9.7-17.5
		C30.9,60.5,30.6,60.4,30.3,60.2L30.3,60.2z M32.2,61.2l-8.8,18c0.1,0.1,0.2,0.1,0.3,0.2l0,0c0,0,0,0,0,0c0,0,0,0,0,0c0,0,0,0,0,0
		c0,0,0,0,0,0c0,0,0,0,0,0c0,0,0,0,0,0c0,0,0,0,0,0c0,0,0,0,0,0c0,0,0,0,0,0c0,0,0,0,0,0c0,0,0,0,0,0c0,0,0,0,0,0c0,0,0,0,0,0
		c0,0,0,0,0,0c0,0,0,0,0,0c0.4,0.2,0.8,0.4,1.3,0.6l7.9-18.4C32.8,61.5,32.5,61.3,32.2,61.2z M34.1,62l-7,18.7
		c0.6,0.2,1.3,0.5,1.9,0.7l6.1-19C34.7,62.2,34.4,62.1,34.1,62z M36,62.6L30.8,82c0.1,0,0.2,0,0.2,0.1h0c0,0,0,0,0,0c0,0,0,0,0,0
		c0,0,0,0,0,0c0,0,0,0,0,0c0,0,0,0,0,0c0,0,0,0,0,0c0,0,0,0,0,0c0,0,0,0,0,0c0,0,0,0,0,0c0,0,0,0,0,0c0,0,0,0,0,0c0,0,0,0,0,0
		c0,0,0,0,0,0c0.5,0.1,1,0.2,1.5,0.4L37,62.9C36.7,62.8,36.4,62.7,36,62.6z M38,63.1l-3.3,19.7c0.5,0.1,1,0.2,1.5,0.2
		c0.2,0,0.3,0,0.5,0.1l2.4-19.9C38.7,63.2,38.4,63.1,38,63.1z M40.1,63.3l-1.4,19.9c0.1,0,0.3,0,0.4,0c0,0,0,0,0,0s0,0,0,0
		c0,0,0,0,0,0c0,0,0,0,0,0c0,0,0,0,0,0c0,0,0,0,0,0c0.3,0,0.6,0,1,0c0,0,0,0,0,0c0,0,0,0,0,0c0,0,0,0,0,0c0,0,0,0,0,0c0,0,0,0,0,0
		c0,0,0,0,0,0c0,0,0,0,0,0c0,0,0,0,0,0c0.1,0,0.3,0,0.4,0l0.5-20C40.8,63.4,40.5,63.4,40.1,63.3z M43.3,63.3c-0.3,0-0.7,0-1.1,0
		l0.5,20c0.2,0,0.4,0,0.6,0c0,0,0,0,0.1,0c0,0,0,0,0,0c0,0,0,0,0,0c0,0,0,0,0,0c0,0,0,0,0,0h0c0.4,0,0.8,0,1.2-0.1c0,0,0,0,0,0
		c0,0,0,0,0.1,0c0,0,0,0,0,0c0,0,0,0,0,0h0c0,0,0,0,0,0l0,0L43.3,63.3z M45.3,63.1c-0.3,0.1-0.7,0.1-1,0.1l2.4,19.9
		c0.6-0.1,1.2-0.2,1.8-0.3c0,0,0,0,0,0c0,0,0,0,0,0c0,0,0,0,0,0c0,0,0,0,0,0c0,0,0,0,0,0c0,0,0,0,0,0c0,0,0,0,0,0c0,0,0,0,0,0
		c0,0,0,0,0,0c0,0,0,0,0,0L45.3,63.1z M47.4,62.6c-0.3,0.1-0.7,0.2-1,0.2l4.3,19.5c0.1,0,0.1,0,0.2,0c0,0,0,0,0,0c0,0,0,0,0,0
		c0,0,0,0,0,0c0,0,0,0,0,0c0,0,0,0,0,0c0,0,0,0,0,0c0,0,0,0,0,0c0,0,0,0,0,0c0,0,0,0,0,0c0,0,0,0,0,0c0,0,0,0,0,0c0,0,0,0,0,0
		c0,0,0,0,0,0c0,0,0,0,0,0c0.3-0.1,0.5-0.1,0.8-0.2h0c0,0,0,0,0,0c0,0,0,0,0,0c0,0,0,0,0,0c0,0,0,0,0,0c0,0,0,0,0,0c0,0,0,0,0,0
		c0,0,0,0,0,0c0,0,0,0,0,0c0,0,0,0,0,0c0,0,0,0,0,0c0,0,0,0,0,0c0,0,0,0,0,0c0,0,0,0,0,0c0,0,0,0,0,0c0,0,0,0,0,0c0,0,0,0,0,0
		c0,0,0,0,0,0c0,0,0,0,0,0c0,0,0,0,0,0c0,0,0,0,0,0c0,0,0,0,0,0c0,0,0,0,0,0c0,0,0,0,0,0h0c0.1,0,0.3-0.1,0.4-0.1L47.4,62.6z
		 M49.3,62c-0.3,0.1-0.6,0.2-1,0.3l6.1,19c0.3-0.1,0.6-0.2,0.9-0.3c0,0,0,0,0,0c0,0,0,0,0,0c0,0,0,0,0,0c0,0,0,0,0,0c0,0,0,0,0,0
		c0,0,0,0,0,0c0,0,0,0,0,0c0,0,0,0,0,0s0,0,0,0c0,0,0,0,0,0c0,0,0,0,0,0c0,0,0,0,0,0c0,0,0,0,0,0c0,0,0,0,0,0
		c0.3-0.1,0.5-0.2,0.8-0.3L49.3,62z M51.2,61.2c-0.3,0.2-0.6,0.3-0.9,0.4L58.2,80c0.4-0.2,0.7-0.3,1-0.5c0,0,0,0,0,0c0,0,0,0,0,0
		c0,0,0,0,0,0c0,0,0,0,0,0c0,0,0,0,0,0c0,0,0,0,0,0c0,0,0,0,0,0c0,0,0,0,0,0c0,0,0,0,0,0s0,0,0,0c0,0,0,0,0,0c0,0,0,0,0,0
		c0.2-0.1,0.4-0.2,0.6-0.3L51.2,61.2z M53.1,60.2c-0.3,0.2-0.6,0.4-0.9,0.5l9.7,17.5c0.1,0,0.1-0.1,0.2-0.1c0,0,0,0,0,0c0,0,0,0,0,0
		c0,0,0,0,0,0c0,0,0,0,0,0c0,0,0,0,0,0c0,0,0,0,0,0c0,0,0,0,0,0c0,0,0,0,0,0c0,0,0,0,0,0c0,0,0,0,0,0c0,0,0,0,0,0c0,0,0,0,0,0
		c0,0,0,0,0,0l0,0c0.5-0.3,0.9-0.5,1.4-0.8L53.1,60.2z M54.8,59c-0.3,0.2-0.6,0.4-0.8,0.6l11.3,16.5c0.3-0.2,0.5-0.3,0.8-0.5
		c0,0,0,0,0,0c0,0,0,0,0,0c0,0,0,0,0,0c0,0,0,0,0,0c0,0,0,0,0,0c0,0,0,0,0,0c0,0,0,0,0,0c0,0,0,0,0,0c0,0,0,0,0,0c0,0,0,0,0,0
		s0,0,0,0c0,0,0,0,0,0c0,0,0,0,0,0c0,0,0,0,0,0c0,0,0,0,0,0c0,0,0,0,0,0c0,0,0,0,0,0c0,0,0,0,0,0c0,0,0,0,0,0c0,0,0,0,0,0
		c0,0,0,0,0,0c0,0,0,0,0,0c0.2-0.1,0.4-0.3,0.6-0.4L54.8,59z M56.4,57.7c-0.3,0.2-0.5,0.5-0.8,0.7l12.8,15.3c0,0,0,0,0,0
		c0,0,0,0,0,0c0,0,0,0,0,0c0,0,0,0,0,0c0,0,0,0,0,0c0,0,0,0,0,0c0,0,0,0,0,0c0,0,0,0,0,0c0,0,0,0,0,0c0,0,0,0,0,0c0,0,0,0,0,0
		c0,0,0,0,0,0c0,0,0,0,0,0c0,0,0,0,0,0c0,0,0,0,0,0c0,0,0,0,0,0c0,0,0,0,0,0c0,0,0,0,0,0c0,0,0,0,0,0c0,0,0,0,0,0c0,0,0,0,0,0
		c0,0,0,0,0,0c0,0,0,0,0,0c0,0,0,0,0,0c0,0,0,0,0,0c0,0,0,0,0,0c0,0,0,0,0,0c0,0,0,0,0,0c0,0,0,0,0,0c0,0,0,0,0,0l0,0c0,0,0,0,0,0
		l0,0c0.3-0.3,0.7-0.6,1-0.9c0,0,0,0,0,0c0,0,0,0,0,0c0,0,0,0,0,0c0,0,0,0,0,0c0,0,0,0,0,0s0,0,0,0c0,0,0,0,0,0c0,0,0,0,0,0
		c0,0,0,0,0,0c0,0,0,0,0,0c0,0,0,0,0,0l0,0c0,0,0,0,0,0L56.4,57.7z M57.8,56.2c-0.2,0.3-0.5,0.5-0.7,0.8L71.4,71c0,0,0,0,0,0
		c0,0,0,0,0,0c0,0,0,0,0,0c0.3-0.3,0.6-0.6,0.9-1c0,0,0,0,0,0c0,0,0,0,0,0c0,0,0,0,0,0c0,0,0,0,0,0c0,0,0,0,0,0c0,0,0,0,0,0
		c0,0,0,0,0,0c0,0,0,0,0,0c0,0,0,0,0,0l0,0c0.1-0.1,0.2-0.2,0.3-0.4L57.8,56.2z M59.2,54.6c-0.2,0.3-0.4,0.6-0.6,0.8L74,68
		c0,0,0,0,0,0c0,0,0,0,0,0c0,0,0,0,0,0c0,0,0,0,0,0c0,0,0,0,0,0c0,0,0,0,0,0c0,0,0,0,0,0s0,0,0,0c0,0,0,0,0,0c0,0,0,0,0,0
		c0,0,0,0,0,0c0,0,0,0,0,0c0,0,0,0,0,0c0,0,0,0,0,0c0,0,0,0,0,0l0,0c0.2-0.3,0.4-0.5,0.6-0.8l0,0c0,0,0,0,0,0c0,0,0,0,0,0
		c0,0,0,0,0,0c0,0,0,0,0,0c0,0,0,0,0,0c0,0,0,0,0,0c0,0,0,0,0,0c0,0,0,0,0,0c0,0,0,0,0,0c0,0,0,0,0,0c0,0,0,0,0,0
		c0.1-0.2,0.2-0.3,0.4-0.5L59.2,54.6z M60.3,52.8c-0.2,0.3-0.4,0.6-0.6,0.9l16.6,11.1c0-0.1,0.1-0.1,0.1-0.2c0,0,0,0,0,0
		c0,0,0,0,0,0c0.3-0.5,0.6-0.9,0.9-1.4l0,0c0,0,0,0,0,0c0,0,0,0,0,0L60.3,52.8z M61.3,51c-0.1,0.3-0.3,0.6-0.5,0.9l17.6,9.5
		c0.1-0.2,0.2-0.3,0.3-0.5c0.1-0.3,0.3-0.6,0.4-0.8c0,0,0,0,0,0c0,0,0,0,0,0c0,0,0,0,0,0c0,0,0,0,0,0c0,0,0,0,0,0c0,0,0,0,0,0
		c0,0,0,0,0,0c0,0,0,0,0,0c0.1-0.1,0.1-0.2,0.2-0.3L61.3,51z M62.1,49.1c-0.1,0.3-0.2,0.6-0.4,1l18.5,7.7c0.1-0.2,0.2-0.5,0.3-0.7
		c0,0,0,0,0,0c0,0,0,0,0,0c0,0,0,0,0,0c0,0,0,0,0,0c0,0,0,0,0,0c0,0,0,0,0,0c0,0,0,0,0,0c0,0,0,0,0,0c0.1-0.4,0.3-0.7,0.4-1.1
		L62.1,49.1z M62.7,47.1c-0.1,0.3-0.2,0.7-0.3,1L81.5,54c0-0.1,0.1-0.3,0.1-0.4l0,0c0,0,0,0,0,0c0,0,0,0,0,0c0,0,0,0,0,0
		c0,0,0,0,0,0c0,0,0,0,0,0c0,0,0,0,0,0c0,0,0,0,0,0c0,0,0,0,0,0c0,0,0,0,0,0c0,0,0,0,0,0c0,0,0,0,0,0c0,0,0,0,0,0c0,0,0,0,0,0
		c0,0,0,0,0,0c0,0,0,0,0,0c0,0,0,0,0,0c0,0,0,0,0,0v0c0,0,0,0,0,0v0c0.1-0.4,0.2-0.8,0.3-1.2L62.7,47.1z M63.1,45.1
		c-0.1,0.3-0.1,0.7-0.2,1l19.6,4c0.1-0.6,0.2-1.1,0.3-1.7c0-0.1,0-0.2,0-0.2L63.1,45.1z M63.3,43c0,0.3,0,0.7-0.1,1l19.9,2.1
		c0-0.2,0-0.5,0.1-0.7c0,0,0,0,0,0c0,0,0,0,0,0c0,0,0,0,0,0c0,0,0,0,0,0c0,0,0,0,0,0c0,0,0,0,0,0c0-0.4,0.1-0.8,0.1-1.1
		c0,0,0,0,0-0.1L63.3,43z M83.4,40.2l-20,0.7c0,0.3,0,0.5,0,0.8l0,0.3l20,0.2c0-0.1,0-0.3,0-0.4c0,0,0,0,0,0c0,0,0,0,0,0
		c0,0,0,0,0,0s0,0,0,0c0,0,0,0,0,0l0,0l0,0c0,0,0,0,0,0c0,0,0,0,0,0c0,0,0,0,0,0c0,0,0,0,0,0c0,0,0,0,0,0c0,0,0,0,0,0c0,0,0,0,0,0
		c0,0,0,0,0,0c0,0,0,0,0,0c0,0,0,0,0,0c0,0,0,0,0,0c0,0,0,0,0,0c0,0,0,0,0,0c0,0,0,0,0,0c0,0,0,0,0,0c0,0,0,0,0,0c0,0,0,0,0,0
		c0,0,0-0.1,0-0.1c0,0,0,0,0,0c0,0,0,0,0,0c0,0,0,0,0,0c0-0.1,0-0.3,0-0.4v0c0,0,0-0.1,0-0.1c0,0,0,0,0,0c0,0,0,0,0,0c0,0,0,0,0,0
		c0,0,0,0,0,0c0,0,0,0,0,0c0,0,0,0,0,0c0,0,0,0,0,0c0,0,0,0,0,0C83.4,40.4,83.4,40.3,83.4,40.2z M83,36.2l-19.8,2.6
		c0,0.3,0.1,0.7,0.1,1l19.9-1.7c0-0.2,0-0.3,0-0.5c0,0,0,0,0,0c0,0,0,0,0,0c0,0,0,0,0,0c0,0,0,0,0,0c0,0,0,0,0,0c0,0,0,0,0,0
		c0,0,0,0,0,0c0,0,0,0,0,0c0,0,0,0,0,0l0,0C83.1,37.1,83.1,36.7,83,36.2z M82.3,32.3l-19.5,4.5c0.1,0.3,0.1,0.7,0.2,1l19.7-3.6
		c-0.1-0.3-0.1-0.6-0.2-1v0c0,0,0,0,0,0c0,0,0,0,0,0c0,0,0,0,0,0c0,0,0,0,0,0s0,0,0,0s0,0,0,0c0,0,0,0,0,0c0,0,0,0,0,0c0,0,0,0,0,0
		c0,0,0,0,0,0c0,0,0,0,0,0c0,0,0,0,0,0c0,0,0,0,0,0c0,0,0,0,0,0c0,0,0,0,0,0c0,0,0,0,0,0c0,0,0,0,0,0c0,0,0,0,0,0c0,0,0,0,0,0
		c0,0,0,0,0,0c0,0,0,0,0,0c0,0,0,0,0,0c0,0,0,0,0,0c0-0.1,0-0.2-0.1-0.3c0,0,0,0,0,0c0,0,0,0,0,0c0,0,0,0,0,0c0,0,0,0,0,0
		c0,0,0,0,0,0c0,0,0,0,0,0C82.4,32.4,82.3,32.3,82.3,32.3L82.3,32.3z M81.2,28.4l-19,6.4c0.1,0.3,0.2,0.7,0.3,1l19.2-5.4
		c0,0,0,0,0,0c0,0,0,0,0,0c0,0,0,0,0,0c0,0,0,0,0,0c0,0,0,0,0,0c0,0,0,0,0,0c0,0,0,0,0,0l0,0c-0.1-0.5-0.3-1-0.4-1.5c0,0,0,0,0,0
		c0,0,0,0,0,0c0,0,0,0,0,0c0,0,0,0,0,0C81.3,28.6,81.3,28.5,81.2,28.4L81.2,28.4z M79.8,24.7l-18.3,8.2c0.1,0.3,0.3,0.6,0.4,1
		l18.6-7.3C80.3,25.9,80,25.3,79.8,24.7z M78,21.1L60.6,31c0.2,0.3,0.3,0.6,0.5,0.9l17.8-9c-0.3-0.5-0.5-1-0.8-1.5v0c0,0,0,0,0,0
		c0,0,0,0,0,0c0,0,0,0,0,0c0,0,0,0,0,0c0,0,0,0,0,0c0,0,0,0,0,0c0,0,0,0,0,0c0,0,0,0,0,0C78,21.2,78,21.2,78,21.1
		C78,21.2,78,21.2,78,21.1C78,21.2,78,21.2,78,21.1C78,21.2,78,21.2,78,21.1C78,21.2,78,21.2,78,21.1C78,21.2,78,21.1,78,21.1
		C78,21.1,78,21.1,78,21.1C78,21.1,78,21.1,78,21.1z M75.8,17.7L59.5,29.2c0.2,0.3,0.4,0.6,0.6,0.9l16.9-10.7c0-0.1-0.1-0.1-0.1-0.2
		c0,0,0,0,0,0c0,0,0,0,0,0c0,0,0,0,0,0l0,0c-0.2-0.3-0.4-0.7-0.7-1c0,0,0,0,0,0c0,0,0,0,0,0c0,0,0,0,0,0c0,0,0,0,0,0
		C76,18,75.9,17.9,75.8,17.7z M73.4,14.6l-15.2,13c0.2,0.3,0.4,0.5,0.7,0.8l15.8-12.3c0,0-0.1-0.1-0.1-0.1l0,0c0,0,0,0,0,0
		c0,0,0,0,0,0c0,0,0,0,0,0c0,0,0,0,0,0c0,0,0,0,0,0c0,0,0,0,0,0c0,0,0,0,0,0c0,0,0,0,0,0c0,0,0,0,0,0s0,0,0,0c0,0,0,0,0,0
		c0,0,0,0,0,0c0,0,0,0,0,0c0,0,0,0,0,0c0,0,0,0,0,0c0,0,0,0,0,0c0,0,0,0,0,0c0,0,0,0,0,0c0,0,0,0,0,0c0,0,0,0,0,0c0,0,0,0,0,0
		c0,0,0,0,0,0c0,0,0,0,0,0c0,0,0,0,0,0c0,0,0,0,0,0c0,0,0,0,0,0c0,0,0,0,0,0c0,0,0,0,0,0c0,0,0,0,0,0c0,0,0,0,0,0c0,0,0,0,0,0
		c0,0,0,0,0,0c0,0,0,0,0,0c0,0,0,0,0,0c0,0,0,0,0,0c0,0,0,0,0,0c0,0,0,0,0,0c0,0,0,0,0,0c0,0,0,0,0,0c0,0,0,0,0,0c0,0,0,0,0,0
		c0,0,0,0,0,0c0,0,0,0,0,0c0,0,0,0,0,0c0,0,0,0,0,0c0,0,0,0,0,0c0,0,0,0,0,0c0,0,0,0,0,0c0,0,0,0,0,0c0,0,0,0,0,0c0,0,0,0,0,0
		c0,0,0,0,0,0c0,0,0,0,0,0c0,0,0,0,0,0c0,0,0,0,0,0c0,0,0,0,0,0c0,0,0,0,0,0c0,0,0,0,0,0c0,0,0,0,0,0c0,0,0,0,0,0c0,0,0,0,0,0
		c0,0,0,0,0,0c0,0,0,0,0,0c0,0,0,0,0,0c0,0,0,0,0,0c0,0,0,0,0,0c0,0,0,0,0,0c0,0,0,0,0,0c0,0,0,0,0,0c0,0,0,0,0,0c0,0,0,0,0,0
		c0,0,0,0,0,0c0,0,0,0,0,0c0,0,0,0,0,0c0,0,0,0,0,0c0,0,0,0,0,0c0,0,0,0,0,0c0,0,0,0,0,0c0,0,0,0,0,0c0,0,0,0,0,0c0,0,0,0,0,0
		c0,0,0,0,0,0c0,0,0,0,0,0c0,0,0,0,0,0c0,0,0,0,0,0c0,0,0,0,0,0c0,0,0,0,0,0c0,0,0,0,0,0c0,0,0,0,0,0c0,0,0,0,0,0c0,0,0,0,0,0
		c0,0,0,0,0,0c0,0,0,0,0,0c0,0,0,0,0,0c0,0,0,0,0,0c0,0,0,0,0,0c0,0,0,0,0,0c0,0,0,0,0,0c0,0,0,0,0,0c0,0,0,0,0,0c0,0,0,0,0,0
		c0,0,0,0,0,0c0,0,0,0,0,0C73.5,14.7,73.4,14.6,73.4,14.6z M70.6,11.7L56.7,26.1c0.2,0.2,0.5,0.5,0.7,0.7L72,13.1c0,0,0,0,0,0
		C71.6,12.6,71.1,12.1,70.6,11.7z M67.6,9L55.2,24.7c0.3,0.2,0.5,0.4,0.8,0.7l13.2-15c-0.1-0.1-0.2-0.1-0.2-0.2c0,0,0,0,0,0
		c0,0,0,0,0,0c0,0,0,0,0,0c0,0,0,0,0,0C68.5,9.7,68,9.4,67.6,9z M64.4,6.7L53.5,23.5c0.3,0.2,0.6,0.4,0.9,0.6L66,7.8
		c-0.2-0.1-0.3-0.2-0.5-0.3c0,0,0,0,0,0c0,0,0,0,0,0c0,0,0,0,0,0c0,0,0,0,0,0c0,0,0,0,0,0c0,0,0,0,0,0c-0.2-0.1-0.3-0.2-0.5-0.4
		c0,0,0,0,0,0c0,0,0,0,0,0c0,0,0,0,0,0c0,0,0,0,0,0c0,0,0,0,0,0c0,0,0,0,0,0C64.7,6.9,64.6,6.8,64.4,6.7z M60.9,4.7l-9.2,17.7
		c0.3,0.2,0.6,0.3,0.9,0.5L62.7,5.7c-0.1-0.1-0.3-0.2-0.4-0.2l0,0c0,0,0,0-0.1,0l0,0c0,0,0,0-0.1,0l0,0C61.7,5.1,61.3,4.9,60.9,4.7z
		 M57.3,3l-7.5,18.5c0.3,0.1,0.6,0.3,1,0.4l8.4-18.2c0,0,0,0,0,0s0,0,0,0c0,0,0,0,0,0c0,0,0,0,0,0c0,0,0,0,0,0c0,0,0,0,0,0
		c0,0,0,0,0,0c0,0,0,0,0,0c0,0,0,0,0,0c0,0,0,0,0,0c0,0,0,0,0,0c0,0,0,0,0,0c0,0,0,0,0,0c0,0,0,0,0,0c0,0,0,0,0,0c0,0,0,0,0,0
		c0,0,0,0,0,0c0,0,0,0,0,0c0,0,0,0,0,0c0,0,0,0,0,0c0,0,0,0,0,0c0,0,0,0,0,0C58.3,3.4,57.8,3.2,57.3,3z M53.5,1.7l-5.7,19.2
		c0.3,0.1,0.7,0.2,1,0.3l6.6-18.9C55,2.2,54.5,2,54.1,1.9c0,0,0,0,0,0c0,0,0,0,0,0c0,0,0,0,0,0c0,0,0,0,0,0c0,0,0,0,0,0c0,0,0,0,0,0
		c0,0,0,0,0,0c0,0,0,0,0,0c0,0,0,0,0,0c0,0,0,0,0,0C53.8,1.8,53.7,1.7,53.5,1.7z M49.6,0.8l-3.8,19.6c0.3,0.1,0.7,0.1,1,0.2
		l4.7-19.4c0,0,0,0,0,0c0,0,0,0,0,0c0,0,0,0,0,0c0,0,0,0,0,0c0,0,0,0,0,0c0,0,0,0,0,0c0,0,0,0,0,0c0,0,0,0,0,0c0,0,0,0,0,0
		c0,0,0,0,0,0c0,0,0,0,0,0c0,0,0,0,0,0c0,0,0,0,0,0c0,0,0,0,0,0c0,0,0,0,0,0h0c-0.3-0.1-0.5-0.1-0.8-0.2c0,0,0,0,0,0c0,0,0,0-0.1,0
		c0,0,0,0,0,0c0,0,0,0,0,0c0,0,0,0,0,0c0,0,0,0,0,0c0,0,0,0,0,0c0,0,0,0,0,0c0,0,0,0,0,0c0,0,0,0,0,0c0,0,0,0,0,0c0,0,0,0,0,0
		s0,0,0,0c0,0,0,0,0,0C50.1,0.8,49.9,0.8,49.6,0.8z M45.7,0.2l-1.9,19.9c0.3,0,0.7,0.1,1,0.1l2.8-19.8c-0.2,0-0.3,0-0.5-0.1l0,0
		c0,0,0,0,0,0c0,0,0,0,0,0c0,0,0,0,0,0c0,0,0,0,0,0c0,0,0,0,0,0c0,0,0,0,0,0c0,0,0,0,0,0c0,0,0,0,0,0c0,0,0,0,0,0c0,0,0,0,0,0
		c0,0,0,0,0,0c0,0,0,0,0,0l0,0c-0.3,0-0.6-0.1-0.9-0.1h0c0,0,0,0,0,0c0,0,0,0,0,0c0,0,0,0,0,0s0,0,0,0c0,0,0,0,0,0c0,0,0,0,0,0
		c0,0,0,0,0,0C45.9,0.2,45.8,0.2,45.7,0.2z"/>
	<path id="path40" inkscape:connector-curvature="0" class="st0" d="M41.7,16.6c13.9,0,25.1,11.3,25.1,25.1
		c0,13.9-11.3,25.1-25.1,25.1c-13.9,0-25.1-11.3-25.1-25.1C16.6,27.9,27.8,16.6,41.7,16.6 M41.7,10.6c-17.2,0-31.1,13.9-31.1,31.1
		c0,17.2,13.9,31.1,31.1,31.1c17.2,0,31.1-13.9,31.1-31.1C72.8,24.5,58.9,10.6,41.7,10.6z"/>
	<path id="path38" inkscape:connector-curvature="0" class="st2" d="M41.7,69.8c-15.5,0-28.1-12.6-28.1-28.1
		c0-15.5,12.6-28.1,28.1-28.1c15.5,0,28.1,12.6,28.1,28.1C69.8,57.2,57.2,69.8,41.7,69.8z"/>
	<path id="path30" inkscape:connector-curvature="0" class="st1" d="M41.7,2c21.9,0,39.7,17.8,39.7,39.7c0,21.9-17.8,39.7-39.7,39.7
		C19.8,81.4,2,63.6,2,41.7C2,19.8,19.8,2,41.7,2 M41.7,0C18.7,0,0,18.7,0,41.7c0,23,18.7,41.7,41.7,41.7c23,0,41.7-18.7,41.7-41.7
		C83.4,18.7,64.7,0,41.7,0z"/>
</g>
<g id="g964" transform="matrix(0.99537093,0,0,0.9953948,85,0.38400269)">
	<path id="path952" inkscape:connector-curvature="0" class="st3" d="M83.4,41.7c0,23-18.7,41.7-41.7,41.7C18.7,83.4,0,64.7,0,41.7
		C0,18.7,18.7,0,41.7,0C64.7,0,83.4,18.7,83.4,41.7z"/>
	<path id="path954" inkscape:connector-curvature="0" class="st3" d="M77.7,41.7c0,19.9-16.1,36-36,36c-19.9,0-36-16.1-36-36
		c0-19.9,16.1-36,36-36C61.6,5.7,77.7,21.8,77.7,41.7z"/>
	<path id="path956" inkscape:connector-curvature="0" class="st4" d="M43.1,0.1C43.1,0.1,43.1,0.1,43.1,0.1
		C43.1,0.1,43.1,0.1,43.1,0.1C43.1,0.1,43.1,0.1,43.1,0.1C43.1,0.1,43.1,0.1,43.1,0.1C43,0.1,43,0,43.1,0.1C43,0,43,0,43,0
		c0,0,0,0,0,0c0,0,0,0,0,0c0,0,0,0,0,0c0,0,0,0,0,0c0,0,0,0,0,0c0,0,0,0,0,0c0,0,0,0,0,0c0,0,0,0,0,0c0,0,0,0,0,0c0,0,0,0,0,0
		c0,0,0,0,0,0c0,0,0,0,0,0c0,0,0,0,0,0c0,0,0,0,0,0c0,0,0,0,0,0c0,0,0,0,0,0c0,0,0,0,0,0c0,0,0,0,0,0c0,0,0,0,0,0c0,0,0,0,0,0
		c0,0,0,0,0,0c0,0,0,0,0,0c0,0,0,0,0,0c0,0,0,0,0,0c0,0,0,0,0,0c0,0,0,0,0,0c0,0,0,0,0,0c0,0,0,0,0,0c0,0,0,0,0,0c0,0,0,0,0,0
		c0,0,0,0,0,0c0,0,0,0,0,0c0,0,0,0,0,0c0,0,0,0,0,0c0,0,0,0,0,0c0,0,0,0,0,0c0,0,0,0,0,0c0,0,0,0,0,0c0,0,0,0,0,0c0,0,0,0,0,0
		c0,0,0,0,0,0c0,0,0,0,0,0c0,0,0,0,0,0c0,0,0,0,0,0c0,0,0,0,0,0c0,0-0.1,0-0.1,0c0,0,0,0,0,0c0,0,0,0,0,0c0,0,0,0,0,0c0,0,0,0,0,0
		c0,0,0,0,0,0c0,0,0,0,0,0c0,0,0,0,0,0c0,0,0,0,0,0c0,0,0,0,0,0c0,0,0,0,0,0l0,0c0,0,0,0,0,0l0,0c0,0,0,0-0.1,0l0,0
		c-0.3,0-0.5,0-0.7,0l0.1,20c0.4,0,0.7,0,1.1,0L43.1,0.1z M37.7,0.2c-0.1,0-0.1,0-0.2,0l0,0c0,0,0,0,0,0c0,0,0,0,0,0c0,0,0,0,0,0
		c0,0,0,0,0,0c0,0,0,0,0,0c0,0,0,0,0,0c0,0,0,0,0,0c0,0,0,0,0,0h0c-0.6,0.1-1.1,0.1-1.7,0.2l2.8,19.8c0.3,0,0.7-0.1,1-0.1L37.7,0.2z
		 M33.7,0.8C33.7,0.8,33.7,0.8,33.7,0.8C33.6,0.8,33.6,0.8,33.7,0.8c-0.1,0-0.1,0-0.1,0c0,0,0,0,0,0c0,0,0,0,0,0c0,0,0,0,0,0
		c0,0,0,0,0,0c0,0,0,0,0,0c0,0,0,0,0,0c0,0,0,0,0,0c0,0,0,0,0,0c0,0,0,0,0,0c0,0,0,0,0,0c0,0,0,0,0,0c0,0,0,0,0,0c0,0,0,0,0,0
		c0,0,0,0,0,0c0,0,0,0,0,0c0,0,0,0,0,0c0,0,0,0,0,0c0,0,0,0,0,0c0,0,0,0,0,0c0,0,0,0,0,0c0,0,0,0,0,0c0,0,0,0,0,0c0,0,0,0,0,0
		c0,0,0,0,0,0c0,0,0,0,0,0h0c-0.5,0.1-1,0.2-1.4,0.3l4.7,19.4c0.3-0.1,0.7-0.2,1-0.2L33.7,0.8z M29.8,1.7C29.6,1.8,29.3,1.9,29,2h0
		c0,0,0,0-0.1,0l0,0c0,0,0,0-0.1,0c0,0,0,0,0,0c0,0,0,0,0,0c-0.3,0.1-0.6,0.2-0.9,0.3l6.6,18.9c0.3-0.1,0.7-0.2,1-0.3L29.8,1.7z
		 M26.1,3c-0.6,0.2-1.2,0.5-1.8,0.8L32.6,22c0.3-0.1,0.6-0.3,1-0.4L26.1,3z M22.4,4.7c-0.6,0.3-1.2,0.6-1.8,1l10.1,17.3
		c0.3-0.2,0.6-0.3,0.9-0.5L22.4,4.7z M19,6.7c-0.6,0.4-1.1,0.7-1.6,1.1L29,24.1c0.3-0.2,0.6-0.4,0.9-0.6L19,6.7z M15.7,9.1
		c-0.5,0.4-1,0.8-1.5,1.3l13.2,15c0.3-0.2,0.5-0.5,0.8-0.7L15.7,9.1z M12.7,11.7c-0.3,0.3-0.6,0.6-0.8,0.8c0,0,0,0,0,0c0,0,0,0,0,0
		c0,0,0,0,0,0c0,0,0,0,0,0c0,0,0,0,0,0c0,0,0,0,0,0c0,0,0,0,0,0c0,0,0,0,0,0c0,0,0,0,0,0c0,0,0,0,0,0c0,0,0,0,0,0c0,0,0,0,0,0
		c-0.1,0.2-0.3,0.3-0.4,0.5l14.6,13.7c0.2-0.3,0.5-0.5,0.7-0.7L12.7,11.7z M10,14.6C10,14.6,10,14.6,10,14.6
		C10,14.6,10,14.6,10,14.6C10,14.6,10,14.6,10,14.6C10,14.6,10,14.6,10,14.6C10,14.7,10,14.7,10,14.6C9.9,14.7,9.9,14.7,10,14.6
		C9.9,14.7,9.9,14.7,10,14.6C9.9,14.7,9.9,14.7,10,14.6c-0.1,0.1-0.1,0.1-0.1,0.1c0,0,0,0,0,0c0,0,0,0,0,0c0,0,0,0,0,0c0,0,0,0,0,0
		c0,0,0,0,0,0l0,0c-0.4,0.4-0.7,0.9-1.1,1.4c0,0,0,0,0,0l15.8,12.3c0.2-0.3,0.4-0.5,0.7-0.8L10,14.6z M7.5,17.8
		c-0.1,0.1-0.1,0.2-0.2,0.2c0,0,0,0,0,0c0,0,0,0,0,0c0,0,0,0,0,0c0,0,0,0,0,0C7,18.5,6.7,19,6.4,19.4l16.9,10.7
		c0.2-0.3,0.4-0.6,0.6-0.9L7.5,17.8z M5.4,21.1C5.3,21.4,5.1,21.7,5,22c0,0,0,0,0,0c0,0,0,0,0,0c-0.2,0.3-0.3,0.6-0.5,0.9l17.8,9
		c0.2-0.3,0.3-0.6,0.5-0.9L5.4,21.1z M3.6,24.7c-0.1,0.2-0.1,0.3-0.2,0.5l0,0c0,0,0,0,0,0.1l0,0c0,0,0,0,0,0.1l0,0
		c-0.2,0.4-0.4,0.8-0.5,1.3l18.6,7.3c0.1-0.3,0.3-0.6,0.4-1L3.6,24.7z M2.2,28.4C2.1,28.7,2,29,1.9,29.2c0,0,0,0,0,0c0,0,0,0,0,0
		c0,0,0,0,0,0c0,0,0,0,0,0c0,0,0,0,0,0c0,0,0,0,0,0c0,0,0,0,0,0c0,0,0,0,0,0c0,0,0,0,0,0c0,0,0,0,0,0c0,0,0,0,0,0c0,0,0,0,0,0
		c0,0,0,0,0,0c0,0,0,0,0,0c0,0,0,0,0,0c0,0,0,0,0,0c0,0,0,0,0,0c0,0,0,0,0,0c0,0,0,0,0,0c0,0,0,0,0,0c0,0,0,0,0,0c0,0,0,0,0,0
		c0,0,0,0,0,0c0,0,0,0,0,0c0,0,0,0,0,0c0,0,0,0,0,0c0,0,0,0,0,0c0,0,0,0,0,0c0,0,0,0,0,0c0,0,0,0,0,0c0,0,0,0,0,0c0,0,0,0,0,0
		c0,0,0,0,0,0c0,0,0,0,0,0c0,0,0,0,0,0c0,0,0,0,0,0c0,0,0,0,0,0c-0.1,0.2-0.1,0.4-0.2,0.6l19.2,5.4c0.1-0.3,0.2-0.7,0.3-1L2.2,28.4z
		 M1.1,32.3c-0.1,0.5-0.2,1.1-0.3,1.6c0,0.1,0,0.2-0.1,0.4l19.7,3.6c0.1-0.3,0.1-0.7,0.2-1L1.1,32.3z M0.4,36.2
		c-0.1,0.4-0.1,0.9-0.1,1.3c0,0,0,0,0,0c0,0,0,0,0,0c0,0,0,0,0,0c0,0,0,0,0,0c0,0,0,0,0,0c0,0,0,0,0,0c0,0,0,0,0,0v0
		c0,0.2,0,0.4-0.1,0.6l19.9,1.7c0-0.3,0.1-0.7,0.1-1L0.4,36.2z M0,40.2c0,0.3,0,0.6,0,1c0,0,0,0,0,0c0,0,0,0,0,0c0,0,0,0,0,0
		c0,0,0,0,0,0.1c0,0,0,0,0,0c0,0,0,0,0,0c0,0,0,0,0,0c0,0,0,0,0,0c0,0,0,0,0,0c0,0,0,0,0,0s0,0,0,0s0,0,0,0c0,0,0,0,0,0c0,0,0,0,0,0
		c0,0,0,0,0,0c0,0,0,0,0,0c0,0,0,0,0,0c0,0,0,0,0,0c0,0,0,0,0,0c0,0,0,0,0,0c0,0,0,0,0,0c0,0,0,0,0,0c0,0,0,0,0,0l0,0l0,0
		c0,0,0,0,0,0c0,0,0,0,0,0c0,0,0,0,0,0c0,0,0,0,0,0l0,0c0,0.1,0,0.3,0,0.4L20,42l0-0.3c0-0.3,0-0.5,0-0.8L0,40.2z M20,43l-20,1.2
		c0,0.6,0.1,1.1,0.1,1.7c0,0,0,0,0,0c0,0,0,0,0,0c0,0,0,0,0,0c0,0,0,0,0,0c0,0,0,0,0,0c0,0,0,0,0,0c0,0,0,0,0,0c0,0,0,0,0,0
		c0,0.1,0,0.1,0,0.2l19.9-2.1C20.1,43.7,20.1,43.4,20,43z M20.3,45.1L0.5,48.2c0,0,0,0,0,0c0,0,0,0,0,0c0,0,0,0,0,0c0,0,0,0,0,0
		c0,0,0,0,0,0c0,0,0,0,0,0c0,0,0,0,0,0c0.1,0.5,0.2,1,0.3,1.6c0,0,0,0,0,0c0,0,0,0,0,0c0,0,0,0,0,0c0,0,0,0,0,0c0,0,0,0,0,0
		c0,0,0,0,0,0c0,0,0,0,0,0c0,0,0,0,0,0c0,0.1,0,0.1,0,0.2l19.6-4C20.4,45.8,20.3,45.4,20.3,45.1z M20.7,47.1l-19.4,5
		c0.2,0.6,0.3,1.3,0.5,1.9L21,48.1C20.9,47.8,20.8,47.5,20.7,47.1z M21.3,49.1L2.5,55.9c0.2,0.6,0.5,1.2,0.7,1.9l18.5-7.7
		C21.5,49.7,21.4,49.4,21.3,49.1z M22.1,51L4,59.6c0,0.1,0.1,0.1,0.1,0.2c0,0,0,0,0,0c0,0,0,0,0,0c0,0,0,0,0,0c0,0,0,0,0,0
		c0.2,0.4,0.4,0.7,0.6,1.1l0,0c0,0,0,0,0,0c0,0,0,0,0,0c0,0,0,0,0,0c0,0,0,0,0,0c0,0,0,0,0,0c0,0,0,0,0,0c0,0,0,0,0,0
		c0.1,0.1,0.1,0.2,0.2,0.3l17.6-9.5C22.4,51.6,22.2,51.3,22.1,51z M23.1,52.8L5.9,63.1c0.1,0.2,0.2,0.3,0.3,0.5v0c0,0,0,0,0,0
		c0,0,0,0,0,0c0,0,0,0,0,0c0,0,0,0,0,0c0,0,0,0,0,0c0.2,0.4,0.5,0.8,0.7,1.1l16.6-11.1C23.4,53.4,23.2,53.1,23.1,52.8z M24.2,54.6
		L8.1,66.4c0.1,0.1,0.1,0.2,0.2,0.3v0c0,0,0,0,0,0l0,0c0,0,0,0,0,0c0,0,0,0,0,0c0,0,0,0,0,0c0,0,0,0,0,0c0,0,0,0,0,0c0,0,0,0,0,0
		c0,0,0,0,0,0c0,0,0,0,0,0c0,0,0,0,0,0c0,0,0,0,0,0c0,0,0,0,0,0c0,0,0,0,0,0c0,0,0,0,0,0c0,0,0,0,0,0c0,0,0,0,0,0c0,0,0,0,0,0
		c0,0,0,0,0,0c0,0,0,0,0,0c0,0,0,0,0,0c0,0,0,0,0,0c0,0,0,0,0,0c0,0,0,0,0,0c0,0,0,0,0,0c0,0,0,0,0,0c0,0,0,0,0,0c0,0,0,0,0,0
		c0,0,0,0,0,0c0,0,0,0,0,0c0,0,0,0,0,0c0.2,0.3,0.5,0.6,0.7,0.9l15.5-12.6C24.6,55.1,24.4,54.8,24.2,54.6z M25.5,56.2L10.7,69.5
		c0.4,0.5,0.9,1,1.4,1.5l14.2-14.1C26,56.7,25.8,56.4,25.5,56.2z M27,57.7L13.5,72.4c0.2,0.2,0.5,0.5,0.8,0.7c0,0,0,0,0,0
		c0,0,0,0,0,0c0,0,0,0,0,0c0,0,0,0,0,0c0,0,0,0,0,0c0,0,0,0,0,0c0,0,0,0,0,0l0,0c0.2,0.2,0.4,0.4,0.7,0.6l12.8-15.3
		C27.5,58.1,27.3,57.9,27,57.7z M28.6,59L16.5,75c0.3,0.2,0.6,0.5,0.9,0.7c0.2,0.2,0.5,0.3,0.7,0.5l11.3-16.5
		C29.2,59.4,28.9,59.2,28.6,59z M30.3,60.2l-10.5,17c0,0,0.1,0,0.1,0.1c0,0,0,0,0,0c0,0,0,0,0,0c0,0,0,0,0,0c0,0,0,0,0,0
		c0,0,0,0,0,0c0,0,0,0,0,0c0.5,0.3,1,0.6,1.5,0.9c0,0,0,0,0,0c0,0,0,0,0,0c0,0,0,0,0,0c0,0,0,0,0,0l9.7-17.5
		C30.9,60.5,30.6,60.4,30.3,60.2L30.3,60.2z M32.2,61.2l-8.8,18c0.1,0.1,0.2,0.1,0.3,0.2l0,0c0,0,0,0,0,0c0,0,0,0,0,0c0,0,0,0,0,0
		c0,0,0,0,0,0c0,0,0,0,0,0c0,0,0,0,0,0c0,0,0,0,0,0c0,0,0,0,0,0c0,0,0,0,0,0c0,0,0,0,0,0c0,0,0,0,0,0c0,0,0,0,0,0c0,0,0,0,0,0
		c0,0,0,0,0,0c0,0,0,0,0,0c0.4,0.2,0.8,0.4,1.3,0.6l7.9-18.4C32.8,61.5,32.5,61.3,32.2,61.2z M34.1,62l-7,18.7
		c0.6,0.2,1.3,0.5,1.9,0.7l6.1-19C34.7,62.2,34.4,62.1,34.1,62z M36,62.6L30.8,82c0.1,0,0.2,0,0.2,0.1h0c0,0,0,0,0,0c0,0,0,0,0,0
		c0,0,0,0,0,0c0,0,0,0,0,0c0,0,0,0,0,0c0,0,0,0,0,0c0,0,0,0,0,0c0,0,0,0,0,0c0,0,0,0,0,0c0,0,0,0,0,0c0,0,0,0,0,0c0,0,0,0,0,0
		c0,0,0,0,0,0c0.5,0.1,1,0.2,1.5,0.4L37,62.9C36.7,62.8,36.4,62.7,36,62.6z M38,63.1l-3.3,19.7c0.5,0.1,1,0.2,1.5,0.2
		c0.2,0,0.3,0,0.5,0.1l2.4-19.9C38.7,63.2,38.4,63.1,38,63.1z M40.1,63.3l-1.4,19.9c0.1,0,0.3,0,0.4,0c0,0,0,0,0,0s0,0,0,0
		c0,0,0,0,0,0c0,0,0,0,0,0c0,0,0,0,0,0c0,0,0,0,0,0c0.3,0,0.6,0,1,0c0,0,0,0,0,0c0,0,0,0,0,0c0,0,0,0,0,0c0,0,0,0,0,0c0,0,0,0,0,0
		c0,0,0,0,0,0c0,0,0,0,0,0c0,0,0,0,0,0c0.1,0,0.3,0,0.4,0l0.5-20C40.8,63.4,40.5,63.4,40.1,63.3z M43.3,63.3c-0.3,0-0.7,0-1.1,0
		l0.5,20c0.2,0,0.4,0,0.6,0c0,0,0,0,0.1,0c0,0,0,0,0,0c0,0,0,0,0,0c0,0,0,0,0,0c0,0,0,0,0,0h0c0.4,0,0.8,0,1.2-0.1c0,0,0,0,0,0
		c0,0,0,0,0.1,0c0,0,0,0,0,0c0,0,0,0,0,0h0c0,0,0,0,0,0l0,0L43.3,63.3z M45.3,63.1c-0.3,0.1-0.7,0.1-1,0.1l2.4,19.9
		c0.6-0.1,1.2-0.2,1.8-0.3c0,0,0,0,0,0c0,0,0,0,0,0c0,0,0,0,0,0c0,0,0,0,0,0c0,0,0,0,0,0c0,0,0,0,0,0c0,0,0,0,0,0c0,0,0,0,0,0
		c0,0,0,0,0,0c0,0,0,0,0,0L45.3,63.1z M47.4,62.6c-0.3,0.1-0.7,0.2-1,0.2l4.3,19.5c0.1,0,0.1,0,0.2,0c0,0,0,0,0,0c0,0,0,0,0,0
		c0,0,0,0,0,0c0,0,0,0,0,0c0,0,0,0,0,0c0,0,0,0,0,0c0,0,0,0,0,0c0,0,0,0,0,0c0,0,0,0,0,0c0,0,0,0,0,0c0,0,0,0,0,0c0,0,0,0,0,0
		c0,0,0,0,0,0c0,0,0,0,0,0c0.3-0.1,0.5-0.1,0.8-0.2h0c0,0,0,0,0,0c0,0,0,0,0,0c0,0,0,0,0,0c0,0,0,0,0,0c0,0,0,0,0,0c0,0,0,0,0,0
		c0,0,0,0,0,0c0,0,0,0,0,0c0,0,0,0,0,0c0,0,0,0,0,0c0,0,0,0,0,0c0,0,0,0,0,0c0,0,0,0,0,0c0,0,0,0,0,0c0,0,0,0,0,0c0,0,0,0,0,0
		c0,0,0,0,0,0c0,0,0,0,0,0c0,0,0,0,0,0c0,0,0,0,0,0c0,0,0,0,0,0c0,0,0,0,0,0c0,0,0,0,0,0h0c0.1,0,0.3-0.1,0.4-0.1L47.4,62.6z
		 M49.3,62c-0.3,0.1-0.6,0.2-1,0.3l6.1,19c0.3-0.1,0.6-0.2,0.9-0.3c0,0,0,0,0,0c0,0,0,0,0,0c0,0,0,0,0,0c0,0,0,0,0,0c0,0,0,0,0,0
		c0,0,0,0,0,0c0,0,0,0,0,0c0,0,0,0,0,0s0,0,0,0c0,0,0,0,0,0c0,0,0,0,0,0c0,0,0,0,0,0c0,0,0,0,0,0c0,0,0,0,0,0
		c0.3-0.1,0.5-0.2,0.8-0.3L49.3,62z M51.2,61.2c-0.3,0.2-0.6,0.3-0.9,0.4L58.2,80c0.4-0.2,0.7-0.3,1-0.5c0,0,0,0,0,0c0,0,0,0,0,0
		c0,0,0,0,0,0c0,0,0,0,0,0c0,0,0,0,0,0c0,0,0,0,0,0c0,0,0,0,0,0c0,0,0,0,0,0c0,0,0,0,0,0s0,0,0,0c0,0,0,0,0,0c0,0,0,0,0,0
		c0.2-0.1,0.4-0.2,0.6-0.3L51.2,61.2z M53.1,60.2c-0.3,0.2-0.6,0.4-0.9,0.5l9.7,17.5c0.1,0,0.1-0.1,0.2-0.1c0,0,0,0,0,0c0,0,0,0,0,0
		c0,0,0,0,0,0c0,0,0,0,0,0c0,0,0,0,0,0c0,0,0,0,0,0c0,0,0,0,0,0c0,0,0,0,0,0c0,0,0,0,0,0c0,0,0,0,0,0c0,0,0,0,0,0c0,0,0,0,0,0
		c0,0,0,0,0,0l0,0c0.5-0.3,0.9-0.5,1.4-0.8L53.1,60.2z M54.8,59c-0.3,0.2-0.6,0.4-0.8,0.6l11.3,16.5c0.3-0.2,0.5-0.3,0.8-0.5
		c0,0,0,0,0,0c0,0,0,0,0,0c0,0,0,0,0,0c0,0,0,0,0,0c0,0,0,0,0,0c0,0,0,0,0,0c0,0,0,0,0,0c0,0,0,0,0,0c0,0,0,0,0,0c0,0,0,0,0,0
		s0,0,0,0c0,0,0,0,0,0c0,0,0,0,0,0c0,0,0,0,0,0c0,0,0,0,0,0c0,0,0,0,0,0c0,0,0,0,0,0c0,0,0,0,0,0c0,0,0,0,0,0c0,0,0,0,0,0
		c0,0,0,0,0,0c0,0,0,0,0,0c0.2-0.1,0.4-0.3,0.6-0.4L54.8,59z M56.4,57.7c-0.3,0.2-0.5,0.5-0.8,0.7l12.8,15.3c0,0,0,0,0,0
		c0,0,0,0,0,0c0,0,0,0,0,0c0,0,0,0,0,0c0,0,0,0,0,0c0,0,0,0,0,0c0,0,0,0,0,0c0,0,0,0,0,0c0,0,0,0,0,0c0,0,0,0,0,0c0,0,0,0,0,0
		c0,0,0,0,0,0c0,0,0,0,0,0c0,0,0,0,0,0c0,0,0,0,0,0c0,0,0,0,0,0c0,0,0,0,0,0c0,0,0,0,0,0c0,0,0,0,0,0c0,0,0,0,0,0c0,0,0,0,0,0
		c0,0,0,0,0,0c0,0,0,0,0,0c0,0,0,0,0,0c0,0,0,0,0,0c0,0,0,0,0,0c0,0,0,0,0,0c0,0,0,0,0,0c0,0,0,0,0,0c0,0,0,0,0,0l0,0c0,0,0,0,0,0
		l0,0c0.3-0.3,0.7-0.6,1-0.9c0,0,0,0,0,0c0,0,0,0,0,0c0,0,0,0,0,0c0,0,0,0,0,0c0,0,0,0,0,0s0,0,0,0c0,0,0,0,0,0c0,0,0,0,0,0
		c0,0,0,0,0,0c0,0,0,0,0,0c0,0,0,0,0,0l0,0c0,0,0,0,0,0L56.4,57.7z M57.8,56.2c-0.2,0.3-0.5,0.5-0.7,0.8L71.4,71c0,0,0,0,0,0
		c0,0,0,0,0,0c0,0,0,0,0,0c0.3-0.3,0.6-0.6,0.9-1c0,0,0,0,0,0c0,0,0,0,0,0c0,0,0,0,0,0c0,0,0,0,0,0c0,0,0,0,0,0c0,0,0,0,0,0
		c0,0,0,0,0,0c0,0,0,0,0,0c0,0,0,0,0,0l0,0c0.1-0.1,0.2-0.2,0.3-0.4L57.8,56.2z M59.2,54.6c-0.2,0.3-0.4,0.6-0.6,0.8L74,68
		c0,0,0,0,0,0c0,0,0,0,0,0c0,0,0,0,0,0c0,0,0,0,0,0c0,0,0,0,0,0c0,0,0,0,0,0c0,0,0,0,0,0s0,0,0,0c0,0,0,0,0,0c0,0,0,0,0,0
		c0,0,0,0,0,0c0,0,0,0,0,0c0,0,0,0,0,0c0,0,0,0,0,0c0,0,0,0,0,0l0,0c0.2-0.3,0.4-0.5,0.6-0.8l0,0c0,0,0,0,0,0c0,0,0,0,0,0
		c0,0,0,0,0,0c0,0,0,0,0,0c0,0,0,0,0,0c0,0,0,0,0,0c0,0,0,0,0,0c0,0,0,0,0,0c0,0,0,0,0,0c0,0,0,0,0,0c0,0,0,0,0,0
		c0.1-0.2,0.2-0.3,0.4-0.5L59.2,54.6z M60.3,52.8c-0.2,0.3-0.4,0.6-0.6,0.9l16.6,11.1c0-0.1,0.1-0.1,0.1-0.2c0,0,0,0,0,0
		c0,0,0,0,0,0c0.3-0.5,0.6-0.9,0.9-1.4l0,0c0,0,0,0,0,0c0,0,0,0,0,0L60.3,52.8z M61.3,51c-0.1,0.3-0.3,0.6-0.5,0.9l17.6,9.5
		c0.1-0.2,0.2-0.3,0.3-0.5c0.1-0.3,0.3-0.6,0.4-0.8c0,0,0,0,0,0c0,0,0,0,0,0c0,0,0,0,0,0c0,0,0,0,0,0c0,0,0,0,0,0c0,0,0,0,0,0
		c0,0,0,0,0,0c0,0,0,0,0,0c0.1-0.1,0.1-0.2,0.2-0.3L61.3,51z M62.1,49.1c-0.1,0.3-0.2,0.6-0.4,1l18.5,7.7c0.1-0.2,0.2-0.5,0.3-0.7
		c0,0,0,0,0,0c0,0,0,0,0,0c0,0,0,0,0,0c0,0,0,0,0,0c0,0,0,0,0,0c0,0,0,0,0,0c0,0,0,0,0,0c0,0,0,0,0,0c0.1-0.4,0.3-0.7,0.4-1.1
		L62.1,49.1z M62.7,47.1c-0.1,0.3-0.2,0.7-0.3,1L81.5,54c0-0.1,0.1-0.3,0.1-0.4l0,0c0,0,0,0,0,0c0,0,0,0,0,0c0,0,0,0,0,0
		c0,0,0,0,0,0c0,0,0,0,0,0c0,0,0,0,0,0c0,0,0,0,0,0c0,0,0,0,0,0c0,0,0,0,0,0c0,0,0,0,0,0c0,0,0,0,0,0c0,0,0,0,0,0c0,0,0,0,0,0
		c0,0,0,0,0,0c0,0,0,0,0,0c0,0,0,0,0,0c0,0,0,0,0,0v0c0,0,0,0,0,0v0c0.1-0.4,0.2-0.8,0.3-1.2L62.7,47.1z M63.1,45.1
		c-0.1,0.3-0.1,0.7-0.2,1l19.6,4c0.1-0.6,0.2-1.1,0.3-1.7c0-0.1,0-0.2,0-0.2L63.1,45.1z M63.3,43c0,0.3,0,0.7-0.1,1l19.9,2.1
		c0-0.2,0-0.5,0.1-0.7c0,0,0,0,0,0c0,0,0,0,0,0c0,0,0,0,0,0c0,0,0,0,0,0c0,0,0,0,0,0c0,0,0,0,0,0c0-0.4,0.1-0.8,0.1-1.1
		c0,0,0,0,0-0.1L63.3,43z M83.4,40.2l-20,0.7c0,0.3,0,0.5,0,0.8l0,0.3l20,0.2c0-0.1,0-0.3,0-0.4c0,0,0,0,0,0c0,0,0,0,0,0
		c0,0,0,0,0,0s0,0,0,0c0,0,0,0,0,0l0,0l0,0c0,0,0,0,0,0c0,0,0,0,0,0c0,0,0,0,0,0c0,0,0,0,0,0c0,0,0,0,0,0c0,0,0,0,0,0c0,0,0,0,0,0
		c0,0,0,0,0,0c0,0,0,0,0,0c0,0,0,0,0,0c0,0,0,0,0,0c0,0,0,0,0,0c0,0,0,0,0,0c0,0,0,0,0,0c0,0,0,0,0,0c0,0,0,0,0,0c0,0,0,0,0,0
		c0,0,0-0.1,0-0.1c0,0,0,0,0,0c0,0,0,0,0,0c0,0,0,0,0,0c0-0.1,0-0.3,0-0.4v0c0,0,0-0.1,0-0.1c0,0,0,0,0,0c0,0,0,0,0,0c0,0,0,0,0,0
		c0,0,0,0,0,0c0,0,0,0,0,0c0,0,0,0,0,0c0,0,0,0,0,0c0,0,0,0,0,0C83.4,40.4,83.4,40.3,83.4,40.2z M83,36.2l-19.8,2.6
		c0,0.3,0.1,0.7,0.1,1l19.9-1.7c0-0.2,0-0.3,0-0.5c0,0,0,0,0,0c0,0,0,0,0,0c0,0,0,0,0,0c0,0,0,0,0,0c0,0,0,0,0,0c0,0,0,0,0,0
		c0,0,0,0,0,0c0,0,0,0,0,0c0,0,0,0,0,0l0,0C83.1,37.1,83.1,36.7,83,36.2z M82.3,32.3l-19.5,4.5c0.1,0.3,0.1,0.7,0.2,1l19.7-3.6
		c-0.1-0.3-0.1-0.6-0.2-1v0c0,0,0,0,0,0c0,0,0,0,0,0c0,0,0,0,0,0c0,0,0,0,0,0s0,0,0,0s0,0,0,0c0,0,0,0,0,0c0,0,0,0,0,0c0,0,0,0,0,0
		c0,0,0,0,0,0c0,0,0,0,0,0c0,0,0,0,0,0c0,0,0,0,0,0c0,0,0,0,0,0c0,0,0,0,0,0c0,0,0,0,0,0c0,0,0,0,0,0c0,0,0,0,0,0c0,0,0,0,0,0
		c0,0,0,0,0,0c0,0,0,0,0,0c0,0,0,0,0,0c0,0,0,0,0,0c0-0.1,0-0.2-0.1-0.3c0,0,0,0,0,0c0,0,0,0,0,0c0,0,0,0,0,0c0,0,0,0,0,0
		c0,0,0,0,0,0c0,0,0,0,0,0C82.4,32.4,82.3,32.3,82.3,32.3L82.3,32.3z M81.2,28.4l-19,6.4c0.1,0.3,0.2,0.7,0.3,1l19.2-5.4
		c0,0,0,0,0,0c0,0,0,0,0,0c0,0,0,0,0,0c0,0,0,0,0,0c0,0,0,0,0,0c0,0,0,0,0,0c0,0,0,0,0,0l0,0c-0.1-0.5-0.3-1-0.4-1.5c0,0,0,0,0,0
		c0,0,0,0,0,0c0,0,0,0,0,0c0,0,0,0,0,0C81.3,28.6,81.3,28.5,81.2,28.4L81.2,28.4z M79.8,24.7l-18.3,8.2c0.1,0.3,0.3,0.6,0.4,1
		l18.6-7.3C80.3,25.9,80,25.3,79.8,24.7z M78,21.1L60.6,31c0.2,0.3,0.3,0.6,0.5,0.9l17.8-9c-0.3-0.5-0.5-1-0.8-1.5v0c0,0,0,0,0,0
		c0,0,0,0,0,0c0,0,0,0,0,0c0,0,0,0,0,0c0,0,0,0,0,0c0,0,0,0,0,0c0,0,0,0,0,0c0,0,0,0,0,0C78,21.2,78,21.2,78,21.1
		C78,21.2,78,21.2,78,21.1C78,21.2,78,21.2,78,21.1C78,21.2,78,21.2,78,21.1C78,21.2,78,21.2,78,21.1C78,21.2,78,21.1,78,21.1
		C78,21.1,78,21.1,78,21.1C78,21.1,78,21.1,78,21.1z M75.8,17.7L59.5,29.2c0.2,0.3,0.4,0.6,0.6,0.9l16.9-10.7c0-0.1-0.1-0.1-0.1-0.2
		c0,0,0,0,0,0c0,0,0,0,0,0c0,0,0,0,0,0l0,0c-0.2-0.3-0.4-0.7-0.7-1c0,0,0,0,0,0c0,0,0,0,0,0c0,0,0,0,0,0c0,0,0,0,0,0
		C76,18,75.9,17.9,75.8,17.7z M73.4,14.6l-15.2,13c0.2,0.3,0.4,0.5,0.7,0.8l15.8-12.3c0,0-0.1-0.1-0.1-0.1l0,0c0,0,0,0,0,0
		c0,0,0,0,0,0c0,0,0,0,0,0c0,0,0,0,0,0c0,0,0,0,0,0c0,0,0,0,0,0c0,0,0,0,0,0c0,0,0,0,0,0c0,0,0,0,0,0s0,0,0,0c0,0,0,0,0,0
		c0,0,0,0,0,0c0,0,0,0,0,0c0,0,0,0,0,0c0,0,0,0,0,0c0,0,0,0,0,0c0,0,0,0,0,0c0,0,0,0,0,0c0,0,0,0,0,0c0,0,0,0,0,0c0,0,0,0,0,0
		c0,0,0,0,0,0c0,0,0,0,0,0c0,0,0,0,0,0c0,0,0,0,0,0c0,0,0,0,0,0c0,0,0,0,0,0c0,0,0,0,0,0c0,0,0,0,0,0c0,0,0,0,0,0c0,0,0,0,0,0
		c0,0,0,0,0,0c0,0,0,0,0,0c0,0,0,0,0,0c0,0,0,0,0,0c0,0,0,0,0,0c0,0,0,0,0,0c0,0,0,0,0,0c0,0,0,0,0,0c0,0,0,0,0,0c0,0,0,0,0,0
		c0,0,0,0,0,0c0,0,0,0,0,0c0,0,0,0,0,0c0,0,0,0,0,0c0,0,0,0,0,0c0,0,0,0,0,0c0,0,0,0,0,0c0,0,0,0,0,0c0,0,0,0,0,0c0,0,0,0,0,0
		c0,0,0,0,0,0c0,0,0,0,0,0c0,0,0,0,0,0c0,0,0,0,0,0c0,0,0,0,0,0c0,0,0,0,0,0c0,0,0,0,0,0c0,0,0,0,0,0c0,0,0,0,0,0c0,0,0,0,0,0
		c0,0,0,0,0,0c0,0,0,0,0,0c0,0,0,0,0,0c0,0,0,0,0,0c0,0,0,0,0,0c0,0,0,0,0,0c0,0,0,0,0,0c0,0,0,0,0,0c0,0,0,0,0,0c0,0,0,0,0,0
		c0,0,0,0,0,0c0,0,0,0,0,0c0,0,0,0,0,0c0,0,0,0,0,0c0,0,0,0,0,0c0,0,0,0,0,0c0,0,0,0,0,0c0,0,0,0,0,0c0,0,0,0,0,0c0,0,0,0,0,0
		c0,0,0,0,0,0c0,0,0,0,0,0c0,0,0,0,0,0c0,0,0,0,0,0c0,0,0,0,0,0c0,0,0,0,0,0c0,0,0,0,0,0c0,0,0,0,0,0c0,0,0,0,0,0c0,0,0,0,0,0
		c0,0,0,0,0,0c0,0,0,0,0,0c0,0,0,0,0,0c0,0,0,0,0,0c0,0,0,0,0,0c0,0,0,0,0,0c0,0,0,0,0,0c0,0,0,0,0,0c0,0,0,0,0,0c0,0,0,0,0,0
		c0,0,0,0,0,0c0,0,0,0,0,0C73.5,14.7,73.4,14.6,73.4,14.6z M70.6,11.7L56.7,26.1c0.2,0.2,0.5,0.5,0.7,0.7L72,13.1c0,0,0,0,0,0
		C71.6,12.6,71.1,12.1,70.6,11.7z M67.6,9L55.2,24.7c0.3,0.2,0.5,0.4,0.8,0.7l13.2-15c-0.1-0.1-0.2-0.1-0.2-0.2c0,0,0,0,0,0
		c0,0,0,0,0,0c0,0,0,0,0,0c0,0,0,0,0,0C68.5,9.7,68,9.4,67.6,9z M64.4,6.7L53.5,23.5c0.3,0.2,0.6,0.4,0.9,0.6L66,7.8
		c-0.2-0.1-0.3-0.2-0.5-0.3c0,0,0,0,0,0c0,0,0,0,0,0c0,0,0,0,0,0c0,0,0,0,0,0c0,0,0,0,0,0c0,0,0,0,0,0c-0.2-0.1-0.3-0.2-0.5-0.4
		c0,0,0,0,0,0c0,0,0,0,0,0c0,0,0,0,0,0c0,0,0,0,0,0c0,0,0,0,0,0c0,0,0,0,0,0C64.7,6.9,64.6,6.8,64.4,6.7z M60.9,4.7l-9.2,17.7
		c0.3,0.2,0.6,0.3,0.9,0.5L62.7,5.7c-0.1-0.1-0.3-0.2-0.4-0.2l0,0c0,0,0,0-0.1,0l0,0c0,0,0,0-0.1,0l0,0C61.7,5.1,61.3,4.9,60.9,4.7z
		 M57.3,3l-7.5,18.5c0.3,0.1,0.6,0.3,1,0.4l8.4-18.2c0,0,0,0,0,0s0,0,0,0c0,0,0,0,0,0c0,0,0,0,0,0c0,0,0,0,0,0c0,0,0,0,0,0
		c0,0,0,0,0,0c0,0,0,0,0,0c0,0,0,0,0,0c0,0,0,0,0,0c0,0,0,0,0,0c0,0,0,0,0,0c0,0,0,0,0,0c0,0,0,0,0,0c0,0,0,0,0,0c0,0,0,0,0,0
		c0,0,0,0,0,0c0,0,0,0,0,0c0,0,0,0,0,0c0,0,0,0,0,0c0,0,0,0,0,0c0,0,0,0,0,0C58.3,3.4,57.8,3.2,57.3,3z M53.5,1.7l-5.7,19.2
		c0.3,0.1,0.7,0.2,1,0.3l6.6-18.9C55,2.2,54.5,2,54.1,1.9c0,0,0,0,0,0c0,0,0,0,0,0c0,0,0,0,0,0c0,0,0,0,0,0c0,0,0,0,0,0c0,0,0,0,0,0
		c0,0,0,0,0,0c0,0,0,0,0,0c0,0,0,0,0,0c0,0,0,0,0,0C53.8,1.8,53.7,1.7,53.5,1.7z M49.6,0.8l-3.8,19.6c0.3,0.1,0.7,0.1,1,0.2
		l4.7-19.4c0,0,0,0,0,0c0,0,0,0,0,0c0,0,0,0,0,0c0,0,0,0,0,0c0,0,0,0,0,0c0,0,0,0,0,0c0,0,0,0,0,0c0,0,0,0,0,0c0,0,0,0,0,0
		c0,0,0,0,0,0c0,0,0,0,0,0c0,0,0,0,0,0c0,0,0,0,0,0c0,0,0,0,0,0c0,0,0,0,0,0h0c-0.3-0.1-0.5-0.1-0.8-0.2c0,0,0,0,0,0c0,0,0,0-0.1,0
		c0,0,0,0,0,0c0,0,0,0,0,0c0,0,0,0,0,0c0,0,0,0,0,0c0,0,0,0,0,0c0,0,0,0,0,0c0,0,0,0,0,0c0,0,0,0,0,0c0,0,0,0,0,0c0,0,0,0,0,0
		s0,0,0,0c0,0,0,0,0,0C50.1,0.8,49.9,0.8,49.6,0.8z M45.7,0.2l-1.9,19.9c0.3,0,0.7,0.1,1,0.1l2.8-19.8c-0.2,0-0.3,0-0.5-0.1l0,0
		c0,0,0,0,0,0c0,0,0,0,0,0c0,0,0,0,0,0c0,0,0,0,0,0c0,0,0,0,0,0c0,0,0,0,0,0c0,0,0,0,0,0c0,0,0,0,0,0c0,0,0,0,0,0c0,0,0,0,0,0
		c0,0,0,0,0,0c0,0,0,0,0,0l0,0c-0.3,0-0.6-0.1-0.9-0.1h0c0,0,0,0,0,0c0,0,0,0,0,0c0,0,0,0,0,0s0,0,0,0c0,0,0,0,0,0c0,0,0,0,0,0
		c0,0,0,0,0,0C45.9,0.2,45.8,0.2,45.7,0.2z"/>
	<path id="path958" inkscape:connector-curvature="0" class="st5" d="M41.7,16.6c13.9,0,25.1,11.3,25.1,25.1
		c0,13.9-11.3,25.1-25.1,25.1c-13.9,0-25.1-11.3-25.1-25.1C16.6,27.9,27.8,16.6,41.7,16.6 M41.7,10.6c-17.2,0-31.1,13.9-31.1,31.1
		c0,17.2,13.9,31.1,31.1,31.1c17.2,0,31.1-13.9,31.1-31.1C72.8,24.5,58.9,10.6,41.7,10.6z"/>
	<path id="path960" inkscape:connector-curvature="0" class="st3" d="M41.7,69.8c-15.5,0-28.1-12.6-28.1-28.1
		c0-15.5,12.6-28.1,28.1-28.1c15.5,0,28.1,12.6,28.1,28.1C69.8,57.2,57.2,69.8,41.7,69.8z"/>
	<path id="path962" inkscape:connector-curvature="0" class="st4" d="M41.7,2c21.9,0,39.7,17.8,39.7,39.7
		c0,21.9-17.8,39.7-39.7,39.7C19.8,81.4,2,63.6,2,41.7C2,19.8,19.8,2,41.7,2 M41.7,0C18.7,0,0,18.7,0,41.7c0,23,18.7,41.7,41.7,41.7
		c23,0,41.7-18.7,41.7-41.7C83.4,18.7,64.7,0,41.7,0z"/>
</g>
</svg>
